<?xml version="1.0" encoding="UTF-8"?><svg id="Calque_5" xmlns="http://www.w3.org/2000/svg" viewBox="0 0 32 16"><defs><style>.cls-1{fill:#002808;}.cls-2{fill:#fff;}.cls-3{fill:#31dada;}</style></defs><g><rect class="cls-3" x="2.4" y="11.15" width="4.2" height=".7"/><rect class="cls-3" x="9.4" y="11.15" width="4.2" height=".7"/><rect class="cls-3" x="6.6" y="10.45" width=".7" height=".7"/><rect class="cls-3" x="8.7" y="10.45" width=".7" height=".7"/><rect class="cls-1" x="7.3" y="9.75" width="1.4" height=".7"/><rect class="cls-1" x="13.6" y="10.45" width=".7" height=".7"/><rect class="cls-1" x="14.3" y="8.35" width=".7" height="2.1"/><rect class="cls-1" x="13.6" y="7.65" width=".7" height=".7"/><rect class="cls-1" x="11.5" y="6.95" width="2.1" height=".7"/><rect class="cls-1" x="10.8" y="6.25" width=".7" height=".7"/><rect class="cls-1" x="10.1" y="5.55" width=".7" height=".7"/><rect class="cls-1" x="1.7" y="9.75" width=".7" height="1.4"/><rect class="cls-1" x="1" y="8.35" width=".7" height="1.4"/><rect class="cls-1" x="1.7" y="7.65" width="1.4" height=".7"/><rect class="cls-3" x="2.4" y="6.25" width=".7" height=".7"/><polygon class="cls-3" points="3.1 4.85 3.1 5.55 2.4 5.55 2.4 6.25 1.7 6.25 1.7 4.85 3.1 4.85"/><rect class="cls-3" x="3.1" y="5.55" width=".7" height=".7"/><polygon class="cls-3" points="6.6 7.65 6.6 8.35 5.9 8.35 5.9 9.05 4.5 9.05 4.5 8.35 5.2 8.35 5.2 7.65 6.6 7.65"/><rect class="cls-1" x="10.1" y="6.25" width=".7" height="1.4"/><polygon class="cls-1" points="13.6 8.35 13.6 7.65 12.9 7.65 12.2 7.65 11.5 7.65 11.5 6.95 10.8 6.95 10.8 8.35 10.1 8.35 10.1 5.55 9.4 5.55 9.4 4.85 8.7 4.85 8.7 5.55 8 5.55 8 6.95 7.3 6.95 7.3 7.65 6.6 7.65 6.6 8.35 5.9 8.35 5.9 9.05 4.5 9.05 4.5 8.35 3.8 8.35 3.8 7.65 3.1 7.65 3.1 8.35 1.7 8.35 1.7 9.75 2.4 9.75 2.4 10.45 7.3 10.45 7.3 9.75 8 9.75 8.7 9.75 8.7 10.45 9.4 10.45 9.4 11.15 10.1 11.15 10.8 11.15 11.5 11.15 12.2 11.15 12.9 11.15 13.6 11.15 13.6 10.45 14.3 10.45 14.3 8.35 13.6 8.35"/><rect class="cls-1" x="6.6" y="9.75" width=".7" height=".7"/><rect class="cls-1" x="8.7" y="9.75" width=".7" height=".7"/><rect class="cls-1" x="2.4" y="10.45" width="4.2" height=".7"/><rect class="cls-1" x="12.9" y="10.45" width=".7" height=".7"/><rect class="cls-1" x="10.1" y="10.45" width=".7" height=".7"/><rect class="cls-1" x="9.4" y="10.45" width=".7" height=".7"/><rect class="cls-1" x="10.8" y="10.45" width=".7" height=".7"/><rect class="cls-1" x="11.5" y="10.45" width=".7" height=".7"/><rect class="cls-3" x="11.5" y="9.05" width=".7" height=".7"/><rect class="cls-3" x="11.5" y="9.75" width=".7" height=".7"/><rect class="cls-3" x="12.2" y="7.65" width=".7" height=".7"/><rect class="cls-3" x="10.1" y="9.05" width=".7" height=".7"/><rect class="cls-3" x="10.1" y="9.75" width=".7" height=".7"/><rect class="cls-3" x="12.9" y="9.05" width=".7" height=".7"/><rect class="cls-3" x="12.9" y="9.75" width=".7" height=".7"/><rect class="cls-1" x="12.2" y="10.45" width=".7" height=".7"/><rect class="cls-3" x="4.5" y="7.65" width=".7" height=".7"/><rect class="cls-3" x="3.8" y="6.95" width=".7" height=".7"/><rect class="cls-3" x="3.1" y="6.25" width=".7" height=".7"/><rect class="cls-3" x="2.4" y="5.55" width=".7" height=".7"/><rect class="cls-3" x="3.1" y="6.95" width=".7" height=".7"/><rect class="cls-3" x="3.8" y="7.65" width=".7" height=".7"/><rect class="cls-1" x="6.6" y="6.95" width=".7" height=".7"/><rect class="cls-1" x="7.3" y="5.55" width=".7" height="1.4"/><rect class="cls-1" x="8" y="4.85" width=".7" height=".7"/><rect class="cls-1" x="8.7" y="4.15" width=".7" height=".7"/><rect class="cls-1" x="9.4" y="4.85" width=".7" height=".7"/><rect class="cls-3" x="4.5" y="6.95" width=".7" height=".7"/><rect class="cls-3" x="3.8" y="6.25" width=".7" height=".7"/><polygon points="10.1 6.95 10.1 6.25 9.4 6.25 8.7 6.25 8.7 6.95 8.7 7.65 9.4 7.65 9.4 8.35 10.1 8.35 10.1 7.65 10.8 7.65 10.8 6.95 10.1 6.95"/><rect class="cls-2" x="9.4" y="6.95" width=".7" height=".7"/><rect x="10.1" y="6.25" width=".7" height=".7"/><rect x="8.7" y="7.65" width=".7" height=".7"/></g><g><rect class="cls-3" x="18.4" y="11.22" width="4.2" height=".7"/><rect class="cls-3" x="25.4" y="11.22" width="4.2" height=".7"/><rect class="cls-3" x="22.6" y="10.52" width=".7" height=".7"/><rect class="cls-3" x="24.7" y="10.52" width=".7" height=".7"/><rect class="cls-1" x="23.3" y="9.82" width="1.4" height=".7"/><rect class="cls-1" x="29.6" y="10.52" width=".7" height=".7"/><rect class="cls-1" x="30.3" y="8.42" width=".7" height="2.1"/><rect class="cls-1" x="29.6" y="7.72" width=".7" height=".7"/><rect class="cls-1" x="27.5" y="7.02" width="2.1" height=".7"/><rect class="cls-1" x="26.8" y="6.32" width=".7" height=".7"/><rect class="cls-1" x="26.1" y="5.62" width=".7" height=".7"/><rect class="cls-1" x="17.7" y="9.82" width=".7" height="1.4"/><rect class="cls-1" x="17" y="8.42" width=".7" height="1.4"/><rect class="cls-1" x="17.7" y="7.72" width="1.4" height=".7"/><rect class="cls-3" x="18.4" y="6.32" width=".7" height=".7"/><polygon class="cls-3" points="19.1 4.92 19.1 5.62 18.4 5.62 18.4 6.32 17.7 6.32 17.7 4.92 19.1 4.92"/><rect class="cls-3" x="19.1" y="5.62" width=".7" height=".7"/><polygon class="cls-3" points="22.6 7.72 22.6 8.42 21.9 8.42 21.9 9.12 20.5 9.12 20.5 8.42 21.2 8.42 21.2 7.72 22.6 7.72"/><rect class="cls-1" x="26.1" y="6.32" width=".7" height="1.4"/><polygon class="cls-1" points="29.6 8.42 29.6 7.72 28.9 7.72 28.2 7.72 27.5 7.72 27.5 7.02 26.8 7.02 26.8 8.42 26.1 8.42 26.1 5.62 25.4 5.62 25.4 4.92 24.7 4.92 24.7 5.62 24 5.62 24 7.02 23.3 7.02 23.3 7.72 22.6 7.72 22.6 8.42 21.9 8.42 21.9 9.12 20.5 9.12 20.5 8.42 19.8 8.42 19.8 7.72 19.1 7.72 19.1 8.42 17.7 8.42 17.7 9.82 18.4 9.82 18.4 10.52 23.3 10.52 23.3 9.82 24 9.82 24.7 9.82 24.7 10.52 25.4 10.52 25.4 11.22 26.1 11.22 26.8 11.22 27.5 11.22 28.2 11.22 28.9 11.22 29.6 11.22 29.6 10.52 30.3 10.52 30.3 8.42 29.6 8.42"/><rect class="cls-1" x="22.6" y="9.82" width=".7" height=".7"/><rect class="cls-1" x="24.7" y="9.82" width=".7" height=".7"/><rect class="cls-1" x="18.4" y="10.52" width="4.2" height=".7"/><rect class="cls-1" x="28.9" y="10.52" width=".7" height=".7"/><rect class="cls-1" x="26.1" y="10.52" width=".7" height=".7"/><rect class="cls-1" x="25.4" y="10.52" width=".7" height=".7"/><rect class="cls-1" x="26.8" y="10.52" width=".7" height=".7"/><rect class="cls-1" x="27.5" y="10.52" width=".7" height=".7"/><rect class="cls-3" x="27.5" y="9.12" width=".7" height=".7"/><rect class="cls-3" x="27.5" y="9.82" width=".7" height=".7"/><rect class="cls-3" x="28.2" y="7.72" width=".7" height=".7"/><rect class="cls-3" x="26.1" y="9.12" width=".7" height=".7"/><rect class="cls-3" x="26.1" y="9.82" width=".7" height=".7"/><rect class="cls-3" x="28.9" y="9.12" width=".7" height=".7"/><rect class="cls-3" x="28.9" y="9.82" width=".7" height=".7"/><rect class="cls-1" x="28.2" y="10.52" width=".7" height=".7"/><rect class="cls-3" x="20.5" y="7.72" width=".7" height=".7"/><rect class="cls-3" x="19.8" y="7.02" width=".7" height=".7"/><rect class="cls-3" x="19.1" y="6.32" width=".7" height=".7"/><rect class="cls-3" x="18.4" y="5.62" width=".7" height=".7"/><rect class="cls-3" x="19.1" y="7.02" width=".7" height=".7"/><rect class="cls-3" x="19.8" y="7.72" width=".7" height=".7"/><rect class="cls-1" x="22.6" y="7.02" width=".7" height=".7"/><rect class="cls-1" x="23.3" y="5.62" width=".7" height="1.4"/><rect class="cls-1" x="24" y="4.92" width=".7" height=".7"/><rect class="cls-1" x="24.7" y="4.22" width=".7" height=".7"/><rect class="cls-1" x="25.4" y="4.92" width=".7" height=".7"/><rect class="cls-3" x="20.5" y="7.02" width=".7" height=".7"/><rect class="cls-3" x="19.8" y="6.32" width=".7" height=".7"/><polygon points="26.1 7.02 26.1 6.32 25.4 6.32 24.7 6.32 24.7 7.02 24.7 7.72 25.4 7.72 25.4 8.42 26.1 8.42 26.1 7.72 26.8 7.72 26.8 7.02 26.1 7.02"/><rect class="cls-2" x="25.4" y="7.02" width=".7" height=".7"/><rect x="26.1" y="6.32" width=".7" height=".7"/><rect x="24.7" y="7.72" width=".7" height=".7"/><rect x="26.1" y="7.72" width=".7" height=".7"/></g><rect x="10.1" y="7.65" width=".7" height=".7"/></svg>