<?xml version="1.0" encoding="UTF-8"?><svg id="Calque_2" xmlns="http://www.w3.org/2000/svg" viewBox="0 0 64 16"><defs><style>.cls-1{fill:#68ace5;}.cls-2{fill:#007fc6;}.cls-3{fill:#fff;}.cls-4{fill:#224256;}.cls-5{fill:#38749e;}</style></defs><g><g><g><polygon class="cls-2" points="56.9 9.91 56.9 10.44 56.37 10.44 55.83 10.44 55.83 10.98 56.37 10.98 56.9 10.98 57.44 10.98 57.44 10.44 57.44 9.91 57.44 9.37 57.44 8.84 56.9 8.84 56.9 9.37 56.9 9.91"/><polygon class="cls-2" points="56.37 7.23 56.37 7.76 56.37 8.3 56.37 8.84 56.9 8.84 56.9 8.3 56.9 7.76 56.9 7.23 56.9 6.69 56.37 6.69 56.37 7.23"/><rect class="cls-2" x="56.37" y="1.34" width=".54" height=".54"/><polygon class="cls-2" points="55.3 1.34 55.83 1.34 56.37 1.34 56.37 .8 55.83 .8 55.3 .8 55.3 1.34"/><polygon class="cls-2" points="55.3 2.41 55.3 1.87 55.3 1.34 54.76 1.34 54.76 1.87 54.76 2.41 54.76 2.94 55.3 2.94 55.3 2.41"/><polygon class="cls-2" points="54.76 3.48 54.76 2.94 54.22 2.94 54.22 3.48 54.22 4.01 54.76 4.01 54.76 3.48"/><rect class="cls-2" x="54.76" y="4.01" width=".54" height=".54"/><polygon class="cls-2" points="55.3 5.62 55.3 6.16 55.83 6.16 55.83 5.62 55.83 5.09 55.83 4.55 55.3 4.55 55.3 5.09 55.3 5.62"/><polygon class="cls-2" points="54.76 6.69 54.76 7.23 55.3 7.23 55.3 6.69 55.3 6.16 54.76 6.16 54.76 6.69"/><rect class="cls-2" x="54.22" y="5.62" width=".54" height=".54"/><polygon class="cls-2" points="54.22 5.09 54.22 4.55 54.22 4.01 53.69 4.01 53.69 4.55 53.69 5.09 53.69 5.62 54.22 5.62 54.22 5.09"/><rect class="cls-2" x="53.15" y="5.62" width=".54" height=".54"/><rect class="cls-2" x="52.62" y="6.16" width=".54" height=".54"/><polygon class="cls-2" points="52.08 7.23 51.55 7.23 51.55 7.76 51.55 8.3 52.08 8.3 52.08 7.76 52.08 7.23"/><polygon class="cls-2" points="52.08 8.3 52.08 8.84 52.62 8.84 53.15 8.84 53.15 8.3 52.62 8.3 52.08 8.3"/><rect class="cls-2" x="53.15" y="10.44" width=".54" height=".54"/><rect class="cls-2" x="53.69" y="9.91" width=".54" height=".54"/><polygon class="cls-2" points="54.76 9.37 54.76 8.84 54.76 8.3 54.22 8.3 54.22 8.84 54.22 9.37 54.22 9.91 54.76 9.91 54.76 9.37"/><polygon class="cls-2" points="53.69 7.76 53.15 7.76 53.15 8.3 53.69 8.3 54.22 8.3 54.22 7.76 53.69 7.76"/><rect class="cls-2" x="52.08" y="6.69" width=".54" height=".54"/><rect class="cls-2" x="54.22" y="7.23" width=".54" height=".54"/><polygon class="cls-2" points="56.9 6.16 56.9 6.69 57.44 6.69 57.44 6.16 57.44 5.62 57.44 1.87 56.9 1.87 56.9 5.62 56.9 6.16"/><polygon class="cls-2" points="54.76 10.98 54.22 10.98 53.69 10.98 53.69 11.51 54.22 11.51 54.76 11.51 55.3 11.51 55.83 11.51 55.83 10.98 55.3 10.98 54.76 10.98"/></g><rect class="cls-2" x="55.3" y="8.84" width=".54" height="2.68" transform="translate(45.39 65.74) rotate(-90)"/><rect class="cls-2" x="55.3" y="7.76" width=".54" height="1.61" transform="translate(47 64.13) rotate(-90)"/><rect class="cls-2" x="54.49" y="4.28" width=".54" height="1.07" transform="translate(49.94 59.58) rotate(-90)"/><rect class="cls-2" x="54.49" y="4.82" width=".54" height="1.07" transform="translate(49.41 60.11) rotate(-90)"/><g><rect class="cls-2" x="53.69" y="10.44" width="2.14" height=".54"/><polygon class="cls-2" points="54.76 9.91 56.9 9.91 56.9 9.37 56.9 8.84 54.76 8.84 54.76 9.37 54.76 9.91"/><polygon class="cls-2" points="55.3 1.87 55.3 2.41 55.3 2.94 54.76 2.94 54.76 3.48 54.76 4.01 55.3 4.01 55.3 4.55 55.83 4.55 55.83 5.09 55.83 5.62 55.83 6.16 55.3 6.16 55.3 6.69 55.3 7.23 54.76 7.23 54.76 7.76 54.22 7.76 54.22 8.3 56.37 8.3 56.37 7.76 56.37 7.23 56.37 6.69 56.9 6.69 56.9 6.16 56.9 5.62 56.9 5.09 56.9 4.55 56.9 4.01 56.9 3.48 56.9 2.94 56.9 2.41 56.9 1.87 56.37 1.87 56.37 1.34 55.3 1.34 55.3 1.87"/></g><polygon class="cls-2" points="53.69 6.16 53.15 6.16 53.15 6.69 52.62 6.69 52.62 7.23 52.08 7.23 52.08 7.76 52.08 8.3 53.15 8.3 53.15 7.76 54.22 7.76 54.22 7.23 54.76 7.23 54.76 6.69 54.76 6.16 54.22 6.16 54.22 5.62 53.69 5.62 53.69 6.16"/><rect class="cls-2" x="54.76" y="5.62" width=".54" height=".54" transform="translate(49.14 60.92) rotate(-90)"/><rect class="cls-2" x="54.22" y="4.01" width=".54" height=".54" transform="translate(50.21 58.77) rotate(-90)"/><polygon class="cls-2" points="54.22 5.62 54.76 5.62 54.76 6.16 55.3 6.16 55.3 4.55 54.76 4.55 54.76 4.01 54.22 4.01 54.22 5.62"/><rect class="cls-2" x="55.83" y="9.37" width="1.61" height=".54" transform="translate(47 66.27) rotate(-90)"/><rect class="cls-2" x="54.22" y="4.01" width="4.82" height=".54" transform="translate(52.35 60.92) rotate(-90)"/></g><g><g><polygon class="cls-1" points="57.51 12.05 57.51 12.61 56.94 12.61 56.38 12.61 56.38 13.17 56.94 13.17 57.51 13.17 58.07 13.17 58.07 12.61 58.07 12.05 58.07 11.49 58.07 10.93 57.51 10.93 57.51 11.49 57.51 12.05"/><polygon class="cls-1" points="56.94 9.24 56.94 9.8 56.94 10.37 56.94 10.93 57.51 10.93 57.51 10.37 57.51 9.8 57.51 9.24 57.51 8.68 56.94 8.68 56.94 9.24"/><rect class="cls-1" x="56.94" y="3.07" width=".56" height=".56"/><polygon class="cls-1" points="55.82 3.07 56.38 3.07 56.94 3.07 56.94 2.51 56.38 2.51 55.82 2.51 55.82 3.07"/><polygon class="cls-1" points="55.82 4.19 55.82 3.63 55.82 3.07 55.26 3.07 55.26 3.63 55.26 4.19 55.26 4.75 55.82 4.75 55.82 4.19"/><polygon class="cls-1" points="55.26 5.31 55.26 4.75 54.7 4.75 54.7 5.31 54.7 5.88 55.26 5.88 55.26 5.31"/><rect class="cls-1" x="55.26" y="5.88" width=".56" height=".56"/><polygon class="cls-1" points="55.82 7.56 55.82 8.12 56.38 8.12 56.38 7.56 56.38 7 56.38 6.44 55.82 6.44 55.82 7 55.82 7.56"/><polygon class="cls-1" points="55.26 8.68 55.26 9.24 55.82 9.24 55.82 8.68 55.82 8.12 55.26 8.12 55.26 8.68"/><rect class="cls-1" x="54.7" y="7.56" width=".56" height=".56"/><polygon class="cls-1" points="54.7 7 54.7 6.44 54.7 5.88 54.14 5.88 54.14 6.44 54.14 7 54.14 7.56 54.7 7.56 54.7 7"/><rect class="cls-1" x="53.58" y="7.56" width=".56" height=".56"/><rect class="cls-1" x="53.02" y="8.12" width=".56" height=".56"/><polygon class="cls-1" points="52.45 9.24 51.89 9.24 51.89 9.8 51.89 10.37 52.45 10.37 52.45 9.8 52.45 9.24"/><polygon class="cls-1" points="52.45 10.37 52.45 10.93 53.02 10.93 53.58 10.93 53.58 10.37 53.02 10.37 52.45 10.37"/><rect class="cls-1" x="53.58" y="12.61" width=".56" height=".56"/><rect class="cls-1" x="54.14" y="12.05" width=".56" height=".56"/><polygon class="cls-1" points="55.26 11.49 55.26 10.93 55.26 10.37 54.7 10.37 54.7 10.93 54.7 11.49 54.7 12.05 55.26 12.05 55.26 11.49"/><polygon class="cls-1" points="54.14 9.8 53.58 9.8 53.58 10.37 54.14 10.37 54.7 10.37 54.7 9.8 54.14 9.8"/><rect class="cls-1" x="52.45" y="8.68" width=".56" height=".56"/><rect class="cls-1" x="54.7" y="9.24" width=".56" height=".56"/><polygon class="cls-1" points="57.51 8.12 57.51 8.68 58.07 8.68 58.07 8.12 58.07 7.56 58.07 3.63 57.51 3.63 57.51 7.56 57.51 8.12"/><polygon class="cls-1" points="55.26 13.17 54.7 13.17 54.14 13.17 54.14 13.73 54.7 13.73 55.26 13.73 55.82 13.73 56.38 13.73 56.38 13.17 55.82 13.17 55.26 13.17"/></g><rect class="cls-1" x="55.82" y="10.93" width=".56" height="2.81" transform="translate(43.77 68.43) rotate(-90)"/><rect class="cls-1" x="55.82" y="9.8" width=".56" height="1.68" transform="translate(45.46 66.75) rotate(-90)"/><rect class="cls-3" x="54.98" y="6.16" width=".56" height="1.12" transform="translate(48.54 61.98) rotate(-90)"/><rect class="cls-3" x="54.98" y="6.72" width=".56" height="1.12" transform="translate(47.98 62.54) rotate(-90)"/><g><rect class="cls-1" x="54.14" y="12.61" width="2.24" height=".56"/><polygon class="cls-1" points="55.26 12.05 57.51 12.05 57.51 11.49 57.51 10.93 55.26 10.93 55.26 11.49 55.26 12.05"/><polygon class="cls-1" points="55.82 3.63 55.82 4.19 55.82 4.75 55.26 4.75 55.26 5.31 55.26 5.88 55.82 5.88 55.82 6.44 56.38 6.44 56.38 7 56.38 7.56 56.38 8.12 55.82 8.12 55.82 8.68 55.82 9.24 55.26 9.24 55.26 9.8 54.7 9.8 54.7 10.37 56.94 10.37 56.94 9.8 56.94 9.24 56.94 8.68 57.51 8.68 57.51 8.12 57.51 7.56 57.51 7 57.51 6.44 57.51 5.88 57.51 5.31 57.51 4.75 57.51 4.19 57.51 3.63 56.94 3.63 56.94 3.07 55.82 3.07 55.82 3.63"/></g><polygon class="cls-5" points="54.14 8.12 53.58 8.12 53.58 8.68 53.02 8.68 53.02 9.24 52.45 9.24 52.45 9.8 52.45 10.37 53.58 10.37 53.58 9.8 54.7 9.8 54.7 9.24 55.26 9.24 55.26 8.68 55.26 8.12 54.7 8.12 54.7 7.56 54.14 7.56 54.14 8.12"/><rect class="cls-3" x="55.26" y="7.56" width=".56" height=".56" transform="translate(47.7 63.38) rotate(-90)"/><rect class="cls-3" x="54.7" y="5.88" width=".56" height=".56" transform="translate(48.82 61.14) rotate(-90)"/><polygon class="cls-5" points="54.7 7.56 55.26 7.56 55.26 8.12 55.82 8.12 55.82 6.44 55.26 6.44 55.26 5.88 54.7 5.88 54.7 7.56"/><rect class="cls-5" x="56.66" y="11.77" width="2.24" height=".56" transform="translate(45.74 69.84) rotate(-90)"/><rect class="cls-5" x="55.26" y="5.88" width="5.05" height=".56" transform="translate(51.63 63.94) rotate(-90)"/><rect class="cls-5" x="56.94" y="10.37" width=".56" height=".56" transform="translate(46.58 67.87) rotate(-90)"/><rect class="cls-5" x="56.94" y="9.8" width=".56" height=".56" transform="translate(47.14 67.31) rotate(-90)"/><rect class="cls-5" x="56.94" y="9.24" width=".56" height=".56" transform="translate(47.7 66.75) rotate(-90)"/><rect class="cls-5" x="56.94" y="8.68" width=".56" height=".56" transform="translate(48.26 66.19) rotate(-90)"/><rect class="cls-5" x="54.14" y="9.8" width=".56" height=".56" transform="translate(44.33 64.5) rotate(-90)"/><rect class="cls-5" x="53.58" y="9.8" width=".56" height=".56" transform="translate(43.77 63.94) rotate(-90)"/><rect class="cls-5" x="53.02" y="10.37" width=".56" height=".56" transform="translate(42.65 63.94) rotate(-90)"/><rect class="cls-5" x="52.45" y="10.37" width=".56" height=".56" transform="translate(42.09 63.38) rotate(-90)"/><rect class="cls-5" x="51.89" y="9.8" width=".56" height=".56" transform="translate(42.09 62.26) rotate(-90)"/><rect class="cls-5" x="51.89" y="9.24" width=".56" height=".56" transform="translate(42.65 61.7) rotate(-90)"/><rect class="cls-4" x="54.7" y="7.56" width=".56" height=".56" transform="translate(47.14 62.82) rotate(-90)"/><rect class="cls-4" x="55.26" y="8.12" width=".56" height=".56" transform="translate(47.14 63.94) rotate(-90)"/><rect class="cls-4" x="55.82" y="7.56" width=".56" height=".56" transform="translate(48.26 63.94) rotate(-90)"/><rect class="cls-4" x="55.82" y="7" width=".56" height=".56" transform="translate(48.82 63.38) rotate(-90)"/><rect class="cls-4" x="55.82" y="6.44" width=".56" height=".56" transform="translate(49.38 62.82) rotate(-90)"/><rect class="cls-4" x="55.26" y="5.88" width=".56" height=".56" transform="translate(49.38 61.7) rotate(-90)"/></g></g><g><g><g><polygon class="cls-2" points="25.22 9.95 25.22 10.48 24.68 10.48 24.15 10.48 24.15 11.02 24.68 11.02 25.22 11.02 25.75 11.02 25.75 10.48 25.75 9.95 25.75 9.41 25.75 8.88 25.22 8.88 25.22 9.41 25.22 9.95"/><polygon class="cls-2" points="24.68 7.27 24.68 7.8 24.68 8.34 24.68 8.88 25.22 8.88 25.22 8.34 25.22 7.8 25.22 7.27 25.22 6.73 24.68 6.73 24.68 7.27"/><rect class="cls-2" x="24.68" y="1.38" width=".54" height=".54"/><polygon class="cls-2" points="23.61 1.38 24.15 1.38 24.68 1.38 24.68 .84 24.15 .84 23.61 .84 23.61 1.38"/><polygon class="cls-2" points="23.61 2.45 23.61 1.91 23.61 1.38 23.07 1.38 23.07 1.91 23.07 2.45 23.07 2.98 23.61 2.98 23.61 2.45"/><polygon class="cls-2" points="23.07 3.52 23.07 2.98 22.54 2.98 22.54 3.52 22.54 4.05 23.07 4.05 23.07 3.52"/><rect class="cls-2" x="23.07" y="4.05" width=".54" height=".54"/><polygon class="cls-2" points="23.61 5.66 23.61 6.2 24.15 6.2 24.15 5.66 24.15 5.13 24.15 4.59 23.61 4.59 23.61 5.13 23.61 5.66"/><polygon class="cls-2" points="23.07 6.73 23.07 7.27 23.61 7.27 23.61 6.73 23.61 6.2 23.07 6.2 23.07 6.73"/><rect class="cls-2" x="22.54" y="5.66" width=".54" height=".54"/><polygon class="cls-2" points="22.54 5.13 22.54 4.59 22.54 4.05 22 4.05 22 4.59 22 5.13 22 5.66 22.54 5.66 22.54 5.13"/><rect class="cls-2" x="21.47" y="5.66" width=".54" height=".54"/><rect class="cls-2" x="20.93" y="6.2" width=".54" height=".54"/><polygon class="cls-2" points="20.4 7.27 19.86 7.27 19.86 7.8 19.86 8.34 20.4 8.34 20.4 7.8 20.4 7.27"/><polygon class="cls-2" points="20.4 8.34 20.4 8.88 20.93 8.88 21.47 8.88 21.47 8.34 20.93 8.34 20.4 8.34"/><rect class="cls-2" x="21.47" y="10.48" width=".54" height=".54"/><rect class="cls-2" x="22" y="9.95" width=".54" height=".54"/><polygon class="cls-2" points="23.07 9.41 23.07 8.88 23.07 8.34 22.54 8.34 22.54 8.88 22.54 9.41 22.54 9.95 23.07 9.95 23.07 9.41"/><polygon class="cls-2" points="22 7.8 21.47 7.8 21.47 8.34 22 8.34 22.54 8.34 22.54 7.8 22 7.8"/><rect class="cls-2" x="20.4" y="6.73" width=".54" height=".54"/><rect class="cls-2" x="22.54" y="7.27" width=".54" height=".54"/><polygon class="cls-2" points="25.22 6.2 25.22 6.73 25.75 6.73 25.75 6.2 25.75 5.66 25.75 1.91 25.22 1.91 25.22 5.66 25.22 6.2"/><polygon class="cls-2" points="23.07 11.02 22.54 11.02 22 11.02 22 11.55 22.54 11.55 23.07 11.55 23.61 11.55 24.15 11.55 24.15 11.02 23.61 11.02 23.07 11.02"/></g><rect class="cls-2" x="23.61" y="8.88" width=".54" height="2.68" transform="translate(13.66 34.09) rotate(-90)"/><rect class="cls-2" x="23.61" y="7.8" width=".54" height="1.61" transform="translate(15.27 32.49) rotate(-90)"/><rect class="cls-2" x="22.81" y="4.32" width=".54" height="1.07" transform="translate(18.22 27.93) rotate(-90)"/><rect class="cls-2" x="22.81" y="4.86" width=".54" height="1.07" transform="translate(17.68 28.47) rotate(-90)"/><g><rect class="cls-2" x="22" y="10.48" width="2.14" height=".54"/><polygon class="cls-2" points="23.07 9.95 25.22 9.95 25.22 9.41 25.22 8.88 23.07 8.88 23.07 9.41 23.07 9.95"/><polygon class="cls-2" points="23.61 1.91 23.61 2.45 23.61 2.98 23.07 2.98 23.07 3.52 23.07 4.05 23.61 4.05 23.61 4.59 24.15 4.59 24.15 5.13 24.15 5.66 24.15 6.2 23.61 6.2 23.61 6.73 23.61 7.27 23.07 7.27 23.07 7.8 22.54 7.8 22.54 8.34 24.68 8.34 24.68 7.8 24.68 7.27 24.68 6.73 25.22 6.73 25.22 6.2 25.22 5.66 25.22 5.13 25.22 4.59 25.22 4.05 25.22 3.52 25.22 2.98 25.22 2.45 25.22 1.91 24.68 1.91 24.68 1.38 23.61 1.38 23.61 1.91"/></g><polygon class="cls-2" points="22 6.2 21.47 6.2 21.47 6.73 20.93 6.73 20.93 7.27 20.4 7.27 20.4 7.8 20.4 8.34 21.47 8.34 21.47 7.8 22.54 7.8 22.54 7.27 23.07 7.27 23.07 6.73 23.07 6.2 22.54 6.2 22.54 5.66 22 5.66 22 6.2"/><rect class="cls-2" x="23.07" y="5.66" width=".54" height=".54" transform="translate(17.41 29.27) rotate(-90)"/><rect class="cls-2" x="22.54" y="4.05" width=".54" height=".54" transform="translate(18.48 27.13) rotate(-90)"/><polygon class="cls-2" points="22.54 5.66 23.07 5.66 23.07 6.2 23.61 6.2 23.61 4.59 23.07 4.59 23.07 4.05 22.54 4.05 22.54 5.66"/><rect class="cls-2" x="24.15" y="9.41" width="1.61" height=".54" transform="translate(15.27 34.63) rotate(-90)"/><rect class="cls-2" x="22.54" y="4.05" width="4.82" height=".54" transform="translate(20.63 29.27) rotate(-90)"/></g><g><g><polygon class="cls-1" points="25.82 12.09 25.82 12.65 25.26 12.65 24.7 12.65 24.7 13.21 25.26 13.21 25.82 13.21 26.38 13.21 26.38 12.65 26.38 12.09 26.38 11.53 26.38 10.97 25.82 10.97 25.82 11.53 25.82 12.09"/><polygon class="cls-1" points="25.26 9.28 25.26 9.85 25.26 10.41 25.26 10.97 25.82 10.97 25.82 10.41 25.82 9.85 25.82 9.28 25.82 8.72 25.26 8.72 25.26 9.28"/><rect class="cls-1" x="25.26" y="3.11" width=".56" height=".56"/><polygon class="cls-1" points="24.14 3.11 24.7 3.11 25.26 3.11 25.26 2.55 24.7 2.55 24.14 2.55 24.14 3.11"/><polygon class="cls-1" points="24.14 4.23 24.14 3.67 24.14 3.11 23.57 3.11 23.57 3.67 23.57 4.23 23.57 4.79 24.14 4.79 24.14 4.23"/><polygon class="cls-1" points="23.57 5.36 23.57 4.79 23.01 4.79 23.01 5.36 23.01 5.92 23.57 5.92 23.57 5.36"/><rect class="cls-1" x="23.57" y="5.92" width=".56" height=".56"/><polygon class="cls-1" points="24.14 7.6 24.14 8.16 24.7 8.16 24.7 7.6 24.7 7.04 24.7 6.48 24.14 6.48 24.14 7.04 24.14 7.6"/><polygon class="cls-1" points="23.57 8.72 23.57 9.28 24.14 9.28 24.14 8.72 24.14 8.16 23.57 8.16 23.57 8.72"/><rect class="cls-1" x="23.01" y="7.6" width=".56" height=".56"/><polygon class="cls-1" points="23.01 7.04 23.01 6.48 23.01 5.92 22.45 5.92 22.45 6.48 22.45 7.04 22.45 7.6 23.01 7.6 23.01 7.04"/><rect class="cls-1" x="21.89" y="7.6" width=".56" height=".56"/><rect class="cls-1" x="21.33" y="8.16" width=".56" height=".56"/><polygon class="cls-1" points="20.77 9.28 20.21 9.28 20.21 9.85 20.21 10.41 20.77 10.41 20.77 9.85 20.77 9.28"/><polygon class="cls-1" points="20.77 10.41 20.77 10.97 21.33 10.97 21.89 10.97 21.89 10.41 21.33 10.41 20.77 10.41"/><rect class="cls-1" x="21.89" y="12.65" width=".56" height=".56"/><rect class="cls-1" x="22.45" y="12.09" width=".56" height=".56"/><polygon class="cls-1" points="23.57 11.53 23.57 10.97 23.57 10.41 23.01 10.41 23.01 10.97 23.01 11.53 23.01 12.09 23.57 12.09 23.57 11.53"/><polygon class="cls-1" points="22.45 9.85 21.89 9.85 21.89 10.41 22.45 10.41 23.01 10.41 23.01 9.85 22.45 9.85"/><rect class="cls-1" x="20.77" y="8.72" width=".56" height=".56"/><rect class="cls-1" x="23.01" y="9.28" width=".56" height=".56"/><polygon class="cls-1" points="25.82 8.16 25.82 8.72 26.38 8.72 26.38 8.16 26.38 7.6 26.38 3.67 25.82 3.67 25.82 7.6 25.82 8.16"/><polygon class="cls-1" points="23.57 13.21 23.01 13.21 22.45 13.21 22.45 13.77 23.01 13.77 23.57 13.77 24.14 13.77 24.7 13.77 24.7 13.21 24.14 13.21 23.57 13.21"/></g><rect class="cls-1" x="24.14" y="10.97" width=".56" height="2.81" transform="translate(12.05 36.79) rotate(-90)"/><rect class="cls-1" x="24.14" y="9.85" width=".56" height="1.68" transform="translate(13.73 35.1) rotate(-90)"/><rect class="cls-3" x="23.29" y="6.2" width=".56" height="1.12" transform="translate(16.82 30.33) rotate(-90)"/><rect class="cls-3" x="23.29" y="6.76" width=".56" height="1.12" transform="translate(16.25 30.89) rotate(-90)"/><g><rect class="cls-1" x="22.45" y="12.65" width="2.24" height=".56"/><polygon class="cls-1" points="23.57 12.09 25.82 12.09 25.82 11.53 25.82 10.97 23.57 10.97 23.57 11.53 23.57 12.09"/><polygon class="cls-1" points="24.14 3.67 24.14 4.23 24.14 4.79 23.57 4.79 23.57 5.36 23.57 5.92 24.14 5.92 24.14 6.48 24.7 6.48 24.7 7.04 24.7 7.6 24.7 8.16 24.14 8.16 24.14 8.72 24.14 9.28 23.57 9.28 23.57 9.85 23.01 9.85 23.01 10.41 25.26 10.41 25.26 9.85 25.26 9.28 25.26 8.72 25.82 8.72 25.82 8.16 25.82 7.6 25.82 7.04 25.82 6.48 25.82 5.92 25.82 5.36 25.82 4.79 25.82 4.23 25.82 3.67 25.26 3.67 25.26 3.11 24.14 3.11 24.14 3.67"/></g><polygon class="cls-5" points="22.45 8.16 21.89 8.16 21.89 8.72 21.33 8.72 21.33 9.28 20.77 9.28 20.77 9.85 20.77 10.41 21.89 10.41 21.89 9.85 23.01 9.85 23.01 9.28 23.57 9.28 23.57 8.72 23.57 8.16 23.01 8.16 23.01 7.6 22.45 7.6 22.45 8.16"/><rect class="cls-3" x="23.57" y="7.6" width=".56" height=".56" transform="translate(15.97 31.74) rotate(-90)"/><rect class="cls-3" x="23.01" y="5.92" width=".56" height=".56" transform="translate(17.1 29.49) rotate(-90)"/><polygon class="cls-5" points="23.01 7.6 23.57 7.6 23.57 8.16 24.14 8.16 24.14 6.48 23.57 6.48 23.57 5.92 23.01 5.92 23.01 7.6"/><rect class="cls-5" x="24.98" y="11.81" width="2.24" height=".56" transform="translate(14.01 38.19) rotate(-90)"/><rect class="cls-5" x="23.57" y="5.92" width="5.05" height=".56" transform="translate(19.9 32.3) rotate(-90)"/><rect class="cls-5" x="25.26" y="10.41" width=".56" height=".56" transform="translate(14.85 36.23) rotate(-90)"/><rect class="cls-5" x="25.26" y="9.85" width=".56" height=".56" transform="translate(15.41 35.66) rotate(-90)"/><rect class="cls-5" x="25.26" y="9.28" width=".56" height=".56" transform="translate(15.97 35.1) rotate(-90)"/><rect class="cls-5" x="25.26" y="8.72" width=".56" height=".56" transform="translate(16.53 34.54) rotate(-90)"/><rect class="cls-5" x="22.45" y="9.85" width=".56" height=".56" transform="translate(12.61 32.86) rotate(-90)"/><rect class="cls-5" x="21.89" y="9.85" width=".56" height=".56" transform="translate(12.05 32.3) rotate(-90)"/><rect class="cls-5" x="21.33" y="10.41" width=".56" height=".56" transform="translate(10.92 32.3) rotate(-90)"/><rect class="cls-5" x="20.77" y="10.41" width=".56" height=".56" transform="translate(10.36 31.74) rotate(-90)"/><rect class="cls-5" x="20.21" y="9.85" width=".56" height=".56" transform="translate(10.36 30.61) rotate(-90)"/><rect class="cls-5" x="20.21" y="9.28" width=".56" height=".56" transform="translate(10.92 30.05) rotate(-90)"/><rect class="cls-4" x="23.01" y="7.6" width=".56" height=".56" transform="translate(15.41 31.17) rotate(-90)"/><rect class="cls-4" x="23.57" y="8.16" width=".56" height=".56" transform="translate(15.41 32.3) rotate(-90)"/><rect class="cls-4" x="24.14" y="7.6" width=".56" height=".56" transform="translate(16.53 32.3) rotate(-90)"/><rect class="cls-4" x="24.14" y="7.04" width=".56" height=".56" transform="translate(17.1 31.74) rotate(-90)"/><rect class="cls-4" x="24.14" y="6.48" width=".56" height=".56" transform="translate(17.66 31.17) rotate(-90)"/><rect class="cls-4" x="23.57" y="5.92" width=".56" height=".56" transform="translate(17.66 30.05) rotate(-90)"/></g></g><g><g><rect class="cls-2" x="40.46" y="11.19" width=".56" height="2.8" transform="translate(28.15 53.33) rotate(-90)"/><rect class="cls-2" x="40.46" y="10.63" width=".56" height="2.8" transform="translate(28.71 52.77) rotate(-90)"/><rect class="cls-2" x="40.46" y="10.07" width=".56" height="2.8" transform="translate(29.27 52.21) rotate(-90)"/><rect class="cls-2" x="40.74" y="9.23" width=".56" height="3.36" transform="translate(30.11 51.93) rotate(-90)"/><rect class="cls-2" x="39.06" y="6.99" width=".56" height="6.72" transform="translate(28.99 49.69) rotate(-90)"/><rect class="cls-2" x="39.06" y="6.43" width=".56" height="6.72" transform="translate(29.55 49.13) rotate(-90)"/><rect class="cls-2" x="39.34" y="6.15" width=".56" height="6.16" transform="translate(30.39 48.85) rotate(-90)"/><rect class="cls-2" x="38.78" y="6.15" width=".56" height="5.04" transform="translate(30.39 47.73) rotate(-90)"/><rect class="cls-2" x="38.5" y="5.87" width=".56" height="4.48" transform="translate(30.67 46.89) rotate(-90)"/><rect class="cls-2" x="37.38" y="5.31" width=".56" height="4.48" transform="translate(30.11 45.21) rotate(-90)"/><rect class="cls-2" x="37.38" y="4.75" width=".56" height="4.48" transform="translate(30.67 44.65) rotate(-90)"/><rect class="cls-2" x="37.38" y="4.19" width=".56" height="4.48" transform="translate(31.23 44.09) rotate(-90)"/><rect class="cls-2" x="37.38" y="3.63" width=".56" height="4.48" transform="translate(31.79 43.53) rotate(-90)"/><rect class="cls-2" x="37.1" y="3.35" width=".56" height="3.92" transform="translate(32.07 42.69) rotate(-90)"/><rect class="cls-2" x="36.82" y="3.07" width=".56" height="3.36" transform="translate(32.35 41.85) rotate(-90)"/><rect class="cls-2" x="36.26" y="2.51" width=".56" height="3.36" transform="translate(32.35 40.73) rotate(-90)"/><rect class="cls-2" x="35.7" y="1.95" width=".56" height="3.36" transform="translate(32.35 39.61) rotate(-90)"/><rect class="cls-2" x="35.42" y="1.67" width=".56" height="2.8" transform="translate(32.63 38.77) rotate(-90)"/><rect class="cls-2" x="35.42" y="1.67" width=".56" height="1.68" transform="translate(33.19 38.21) rotate(-90)"/><rect class="cls-2" x="40.18" y="12.03" width=".56" height="2.24" transform="translate(27.31 53.61) rotate(-90)"/><rect class="cls-2" x="36.82" y="9.79" width=".56" height="2.24" transform="translate(26.19 48.01) rotate(-90)"/><rect class="cls-2" x="36.82" y="10.35" width=".56" height="2.24" transform="translate(25.63 48.57) rotate(-90)"/><rect class="cls-2" x="36.82" y="11.47" width=".56" height="1.12" transform="translate(25.07 49.13) rotate(-90)"/></g><g><g><polygon class="cls-1" points="42.15 12.32 42.15 12.89 41.59 12.89 41.02 12.89 41.02 13.45 41.59 13.45 42.15 13.45 42.71 13.45 42.71 12.89 42.71 12.32 42.71 11.76 42.71 11.2 42.15 11.2 42.15 11.76 42.15 12.32"/><polygon class="cls-1" points="41.59 9.52 41.59 10.08 41.59 10.64 41.59 11.2 42.15 11.2 42.15 10.64 42.15 10.08 42.15 9.52 42.15 8.96 41.59 8.96 41.59 9.52"/><rect class="cls-1" x="41.59" y="3.34" width=".56" height=".56"/><polygon class="cls-1" points="40.46 3.34 41.02 3.34 41.59 3.34 41.59 2.78 41.02 2.78 40.46 2.78 40.46 3.34"/><polygon class="cls-1" points="40.46 4.47 40.46 3.91 40.46 3.34 39.9 3.34 39.9 3.91 39.9 4.47 39.9 5.03 40.46 5.03 40.46 4.47"/><polygon class="cls-1" points="39.9 5.59 39.9 5.03 39.34 5.03 39.34 5.59 39.34 6.15 39.9 6.15 39.9 5.59"/><rect class="cls-1" x="39.9" y="6.15" width=".56" height=".56"/><polygon class="cls-1" points="40.46 7.83 40.46 8.4 41.02 8.4 41.02 7.83 41.02 7.27 41.02 6.71 40.46 6.71 40.46 7.27 40.46 7.83"/><polygon class="cls-1" points="39.9 8.96 39.9 9.52 40.46 9.52 40.46 8.96 40.46 8.4 39.9 8.4 39.9 8.96"/><rect class="cls-1" x="39.34" y="7.83" width=".56" height=".56"/><polygon class="cls-1" points="39.34 7.27 39.34 6.71 39.34 6.15 38.78 6.15 38.78 6.71 38.78 7.27 38.78 7.83 39.34 7.83 39.34 7.27"/><rect class="cls-1" x="38.22" y="7.83" width=".56" height=".56"/><rect class="cls-1" x="37.66" y="8.4" width=".56" height=".56"/><polygon class="cls-1" points="37.1 9.52 36.54 9.52 36.54 10.08 36.54 10.64 37.1 10.64 37.1 10.08 37.1 9.52"/><polygon class="cls-1" points="37.1 10.64 37.1 11.2 37.66 11.2 38.22 11.2 38.22 10.64 37.66 10.64 37.1 10.64"/><rect class="cls-1" x="38.22" y="12.89" width=".56" height=".56"/><rect class="cls-1" x="38.78" y="12.32" width=".56" height=".56"/><polygon class="cls-1" points="39.9 11.76 39.9 11.2 39.9 10.64 39.34 10.64 39.34 11.2 39.34 11.76 39.34 12.32 39.9 12.32 39.9 11.76"/><polygon class="cls-1" points="38.78 10.08 38.22 10.08 38.22 10.64 38.78 10.64 39.34 10.64 39.34 10.08 38.78 10.08"/><rect class="cls-1" x="37.1" y="8.96" width=".56" height=".56"/><rect class="cls-1" x="39.34" y="9.52" width=".56" height=".56"/><polygon class="cls-1" points="42.15 8.4 42.15 8.96 42.71 8.96 42.71 8.4 42.71 7.83 42.71 3.91 42.15 3.91 42.15 7.83 42.15 8.4"/><polygon class="cls-1" points="39.9 13.45 39.34 13.45 38.78 13.45 38.78 14.01 39.34 14.01 39.9 14.01 40.46 14.01 41.02 14.01 41.02 13.45 40.46 13.45 39.9 13.45"/></g><rect class="cls-1" x="40.46" y="11.2" width=".56" height="2.81" transform="translate(28.14 53.35) rotate(-90)"/><rect class="cls-1" x="40.46" y="10.08" width=".56" height="1.68" transform="translate(29.82 51.67) rotate(-90)"/><rect class="cls-3" x="39.62" y="6.43" width=".56" height="1.12" transform="translate(32.91 46.89) rotate(-90)"/><rect class="cls-3" x="39.62" y="6.99" width=".56" height="1.12" transform="translate(32.35 47.46) rotate(-90)"/><g><rect class="cls-1" x="38.78" y="12.89" width="2.24" height=".56"/><polygon class="cls-1" points="39.9 12.32 42.15 12.32 42.15 11.76 42.15 11.2 39.9 11.2 39.9 11.76 39.9 12.32"/><polygon class="cls-1" points="40.46 3.91 40.46 4.47 40.46 5.03 39.9 5.03 39.9 5.59 39.9 6.15 40.46 6.15 40.46 6.71 41.02 6.71 41.02 7.27 41.02 7.83 41.02 8.4 40.46 8.4 40.46 8.96 40.46 9.52 39.9 9.52 39.9 10.08 39.34 10.08 39.34 10.64 41.59 10.64 41.59 10.08 41.59 9.52 41.59 8.96 42.15 8.96 42.15 8.4 42.15 7.83 42.15 7.27 42.15 6.71 42.15 6.15 42.15 5.59 42.15 5.03 42.15 4.47 42.15 3.91 41.59 3.91 41.59 3.34 40.46 3.34 40.46 3.91"/></g><polygon class="cls-5" points="38.78 8.4 38.22 8.4 38.22 8.96 37.66 8.96 37.66 9.52 37.1 9.52 37.1 10.08 37.1 10.64 38.22 10.64 38.22 10.08 39.34 10.08 39.34 9.52 39.9 9.52 39.9 8.96 39.9 8.4 39.34 8.4 39.34 7.83 38.78 7.83 38.78 8.4"/><rect class="cls-3" x="39.9" y="7.83" width=".56" height=".56" transform="translate(32.07 48.3) rotate(-90)"/><rect class="cls-3" x="39.34" y="6.15" width=".56" height=".56" transform="translate(33.19 46.05) rotate(-90)"/><polygon class="cls-5" points="39.34 7.83 39.9 7.83 39.9 8.4 40.46 8.4 40.46 6.71 39.9 6.71 39.9 6.15 39.34 6.15 39.34 7.83"/><rect class="cls-5" x="41.31" y="12.04" width="2.24" height=".56" transform="translate(30.1 54.75) rotate(-90)"/><rect class="cls-5" x="39.9" y="6.15" width="5.05" height=".56" transform="translate(36 48.86) rotate(-90)"/><rect class="cls-5" x="41.59" y="10.64" width=".56" height=".56" transform="translate(30.95 52.79) rotate(-90)"/><rect class="cls-5" x="41.59" y="10.08" width=".56" height=".56" transform="translate(31.51 52.23) rotate(-90)"/><rect class="cls-5" x="41.59" y="9.52" width=".56" height=".56" transform="translate(32.07 51.67) rotate(-90)"/><rect class="cls-5" x="41.59" y="8.96" width=".56" height=".56" transform="translate(32.63 51.1) rotate(-90)"/><rect class="cls-5" x="38.78" y="10.08" width=".56" height=".56" transform="translate(28.7 49.42) rotate(-90)"/><rect class="cls-5" x="38.22" y="10.08" width=".56" height=".56" transform="translate(28.14 48.86) rotate(-90)"/><rect class="cls-5" x="37.66" y="10.64" width=".56" height=".56" transform="translate(27.02 48.86) rotate(-90)"/><rect class="cls-5" x="37.1" y="10.64" width=".56" height=".56" transform="translate(26.46 48.3) rotate(-90)"/><rect class="cls-5" x="36.54" y="10.08" width=".56" height=".56" transform="translate(26.46 47.18) rotate(-90)"/><rect class="cls-5" x="36.54" y="9.52" width=".56" height=".56" transform="translate(27.02 46.61) rotate(-90)"/><rect class="cls-4" x="39.34" y="7.83" width=".56" height=".56" transform="translate(31.51 47.74) rotate(-90)"/><rect class="cls-4" x="39.9" y="8.4" width=".56" height=".56" transform="translate(31.51 48.86) rotate(-90)"/><rect class="cls-4" x="40.46" y="7.83" width=".56" height=".56" transform="translate(32.63 48.86) rotate(-90)"/><rect class="cls-4" x="40.46" y="7.27" width=".56" height=".56" transform="translate(33.19 48.3) rotate(-90)"/><rect class="cls-4" x="40.46" y="6.71" width=".56" height=".56" transform="translate(33.75 47.74) rotate(-90)"/><rect class="cls-4" x="39.9" y="6.15" width=".56" height=".56" transform="translate(33.75 46.61) rotate(-90)"/></g></g><g><g><g><polygon class="cls-2" points="10.84 10.84 10.84 11.37 10.3 11.37 9.77 11.37 9.77 11.91 10.3 11.91 10.84 11.91 11.38 11.91 11.38 11.37 11.38 10.84 11.38 10.3 11.38 9.77 10.84 9.77 10.84 10.3 10.84 10.84"/><polygon class="cls-2" points="10.3 8.16 10.3 8.69 10.3 9.23 10.3 9.77 10.84 9.77 10.84 9.23 10.84 8.69 10.84 8.16 10.84 7.62 10.3 7.62 10.3 8.16"/><rect class="cls-2" x="10.3" y="2.27" width=".54" height=".54"/><polygon class="cls-2" points="9.23 2.27 9.77 2.27 10.3 2.27 10.3 1.73 9.77 1.73 9.23 1.73 9.23 2.27"/><polygon class="cls-2" points="9.23 3.34 9.23 2.8 9.23 2.27 8.7 2.27 8.7 2.8 8.7 3.34 8.7 3.87 9.23 3.87 9.23 3.34"/><polygon class="cls-2" points="8.7 4.41 8.7 3.87 8.16 3.87 8.16 4.41 8.16 4.94 8.7 4.94 8.7 4.41"/><rect class="cls-2" x="8.7" y="4.94" width=".54" height=".54"/><polygon class="cls-2" points="9.23 6.55 9.23 7.09 9.77 7.09 9.77 6.55 9.77 6.02 9.77 5.48 9.23 5.48 9.23 6.02 9.23 6.55"/><polygon class="cls-2" points="8.7 7.62 8.7 8.16 9.23 8.16 9.23 7.62 9.23 7.09 8.7 7.09 8.7 7.62"/><rect class="cls-2" x="8.16" y="6.55" width=".54" height=".54"/><polygon class="cls-2" points="8.16 6.02 8.16 5.48 8.16 4.94 7.63 4.94 7.63 5.48 7.63 6.02 7.63 6.55 8.16 6.55 8.16 6.02"/><rect class="cls-2" x="7.09" y="6.55" width=".54" height=".54"/><rect class="cls-2" x="6.56" y="7.09" width=".54" height=".54"/><polygon class="cls-2" points="6.02 8.16 5.48 8.16 5.48 8.69 5.48 9.23 6.02 9.23 6.02 8.69 6.02 8.16"/><polygon class="cls-2" points="6.02 9.23 6.02 9.77 6.56 9.77 7.09 9.77 7.09 9.23 6.56 9.23 6.02 9.23"/><rect class="cls-2" x="7.09" y="11.37" width=".54" height=".54"/><rect class="cls-2" x="7.63" y="10.84" width=".54" height=".54"/><polygon class="cls-2" points="8.7 10.3 8.7 9.77 8.7 9.23 8.16 9.23 8.16 9.77 8.16 10.3 8.16 10.84 8.7 10.84 8.7 10.3"/><polygon class="cls-2" points="7.63 8.69 7.09 8.69 7.09 9.23 7.63 9.23 8.16 9.23 8.16 8.69 7.63 8.69"/><rect class="cls-2" x="6.02" y="7.62" width=".54" height=".54"/><rect class="cls-2" x="8.16" y="8.16" width=".54" height=".54"/><polygon class="cls-2" points="10.84 7.09 10.84 7.62 11.38 7.62 11.38 7.09 11.38 6.55 11.38 2.8 10.84 2.8 10.84 6.55 10.84 7.09"/><polygon class="cls-2" points="8.7 11.91 8.16 11.91 7.63 11.91 7.63 12.44 8.16 12.44 8.7 12.44 9.23 12.44 9.77 12.44 9.77 11.91 9.23 11.91 8.7 11.91"/></g><rect class="cls-2" x="9.23" y="9.77" width=".54" height="2.68" transform="translate(-1.6 20.61) rotate(-90)"/><rect class="cls-2" x="9.23" y="8.69" width=".54" height="1.61" transform="translate(0 19) rotate(-90)"/><rect class="cls-2" x="8.43" y="5.21" width=".54" height="1.07" transform="translate(2.95 14.45) rotate(-90)"/><rect class="cls-2" x="8.43" y="5.75" width=".54" height="1.07" transform="translate(2.41 14.98) rotate(-90)"/><g><rect class="cls-2" x="7.63" y="11.37" width="2.14" height=".54"/><polygon class="cls-2" points="8.7 10.84 10.84 10.84 10.84 10.3 10.84 9.77 8.7 9.77 8.7 10.3 8.7 10.84"/><polygon class="cls-2" points="9.23 2.8 9.23 3.34 9.23 3.87 8.7 3.87 8.7 4.41 8.7 4.94 9.23 4.94 9.23 5.48 9.77 5.48 9.77 6.02 9.77 6.55 9.77 7.09 9.23 7.09 9.23 7.62 9.23 8.16 8.7 8.16 8.7 8.69 8.16 8.69 8.16 9.23 10.3 9.23 10.3 8.69 10.3 8.16 10.3 7.62 10.84 7.62 10.84 7.09 10.84 6.55 10.84 6.02 10.84 5.48 10.84 4.94 10.84 4.41 10.84 3.87 10.84 3.34 10.84 2.8 10.3 2.8 10.3 2.27 9.23 2.27 9.23 2.8"/></g><polygon class="cls-2" points="7.63 7.09 7.09 7.09 7.09 7.62 6.56 7.62 6.56 8.16 6.02 8.16 6.02 8.69 6.02 9.23 7.09 9.23 7.09 8.69 8.16 8.69 8.16 8.16 8.7 8.16 8.7 7.62 8.7 7.09 8.16 7.09 8.16 6.55 7.63 6.55 7.63 7.09"/><rect class="cls-2" x="8.7" y="6.55" width=".54" height=".54" transform="translate(2.15 15.78) rotate(-90)"/><rect class="cls-2" x="8.16" y="4.94" width=".54" height=".54" transform="translate(3.22 13.64) rotate(-90)"/><polygon class="cls-2" points="8.16 6.55 8.7 6.55 8.7 7.09 9.23 7.09 9.23 5.48 8.7 5.48 8.7 4.94 8.16 4.94 8.16 6.55"/><rect class="cls-2" x="9.77" y="10.3" width="1.61" height=".54" transform="translate(0 21.14) rotate(-90)"/><rect class="cls-2" x="8.16" y="4.94" width="4.82" height=".54" transform="translate(5.36 15.78) rotate(-90)"/></g><g><rect class="cls-1" x="8.85" y="12.96" width=".51" height="1.17" transform="translate(-4.44 22.64) rotate(-90)"/><rect class="cls-5" x="11.19" y="10.42" width=".51" height="1.17" transform="translate(.44 22.45) rotate(-90)"/><rect class="cls-5" x="10.61" y="9.91" width=".51" height="1.17" transform="translate(.36 21.36) rotate(-90)"/><rect class="cls-5" x="9.73" y="9.11" width=".51" height="1.76" transform="translate(-.01 19.97) rotate(-90)"/><rect class="cls-5" x="8.85" y="8.9" width=".51" height="1.17" transform="translate(-.38 18.58) rotate(-90)"/><rect class="cls-5" x="8.26" y="8.39" width=".51" height="1.17" transform="translate(-.46 17.49) rotate(-90)"/><rect class="cls-5" x="7.67" y="7.37" width=".51" height="1.17" transform="translate(-.03 15.89) rotate(-90)"/><rect class="cls-5" x="7.09" y="6.87" width=".51" height="1.17" transform="translate(-.11 14.8) rotate(-90)"/><rect class="cls-5" x="6.5" y="6.36" width=".51" height="1.17" transform="translate(-.19 13.7) rotate(-90)"/><rect class="cls-5" x="5.92" y="5.85" width=".51" height="1.17" transform="translate(-.27 12.61) rotate(-90)"/><rect class="cls-5" x="5.33" y="5.34" width=".51" height="1.17" transform="translate(-.35 11.51) rotate(-90)"/><rect class="cls-5" x="4.74" y="4.84" width=".51" height="1.17" transform="translate(-.43 10.42) rotate(-90)"/><rect class="cls-5" x="7.97" y="8.18" width=".51" height=".59" transform="translate(-.25 16.69) rotate(-90)"/><rect class="cls-1" x="9.14" y="12.16" width=".51" height="1.76" transform="translate(-3.64 22.43) rotate(-90)"/><polygon class="cls-1" points="2.65 5.17 2.65 5.68 2.07 5.68 2.07 6.18 2.07 6.69 2.65 6.69 2.65 7.2 3.24 7.2 3.24 7.71 6.17 7.71 6.17 8.21 6.76 8.21 6.76 8.72 6.76 9.23 6.76 9.74 6.76 10.24 6.76 10.75 7.34 10.75 7.34 11.26 7.34 11.77 7.93 11.77 7.93 12.27 8.51 12.27 8.51 12.78 10.86 12.78 10.86 12.27 10.86 11.77 11.45 11.77 11.45 11.26 10.86 11.26 10.86 10.75 10.27 10.75 10.27 10.24 9.1 10.24 9.1 9.74 8.51 9.74 8.51 9.23 7.93 9.23 7.93 8.72 7.93 8.21 7.34 8.21 7.34 7.71 6.76 7.71 6.76 7.2 6.17 7.2 6.17 6.69 5.58 6.69 5.58 6.18 5 6.18 5 5.68 4.41 5.68 4.41 5.17 4.41 4.66 2.65 4.66 2.65 5.17"/><rect class="cls-1" x="2.11" y="5.13" width=".51" height=".59" transform="translate(-3.06 7.78) rotate(-90)"/><rect class="cls-5" x="4.45" y="4.62" width=".51" height=".59" transform="translate(-.21 9.62) rotate(-90)"/><rect class="cls-5" x="5.92" y="12.45" width=".51" height="1.17" transform="translate(-6.87 19.21) rotate(-90)"/><rect class="cls-5" x="5.62" y="11.65" width=".51" height="1.76" transform="translate(-6.65 18.41) rotate(-90)"/><rect class="cls-5" x="5.62" y="11.14" width=".51" height="1.76" transform="translate(-6.14 17.9) rotate(-90)"/><rect class="cls-5" x="5.62" y="10.63" width=".51" height="1.76" transform="translate(-5.64 17.39) rotate(-90)"/><rect class="cls-5" x="5.33" y="9.83" width=".51" height="2.34" transform="translate(-5.42 16.59) rotate(-90)"/><rect class="cls-5" x="5.33" y="9.33" width=".51" height="2.34" transform="translate(-4.91 16.08) rotate(-90)"/><rect class="cls-5" x="5.33" y="8.82" width=".51" height="2.34" transform="translate(-4.41 15.57) rotate(-90)"/><rect class="cls-1" x="3.86" y="9.19" width=".51" height=".59" transform="translate(-5.37 13.6) rotate(-90)"/><rect class="cls-1" x="3.86" y="8.68" width=".51" height=".59" transform="translate(-4.86 13.09) rotate(-90)"/><rect class="cls-1" x="3.86" y="8.18" width=".51" height=".59" transform="translate(-4.35 12.59) rotate(-90)"/><rect class="cls-1" x="3.86" y="7.67" width=".51" height=".59" transform="translate(-3.84 12.08) rotate(-90)"/><rect class="cls-1" x="3.28" y="7.67" width=".51" height=".59" transform="translate(-4.43 11.49) rotate(-90)"/><rect class="cls-2" x="4.45" y="9.19" width=".51" height=".59" transform="translate(-4.78 14.19) rotate(-90)"/><rect class="cls-2" x="5.04" y="8.1" width=".51" height="1.76" transform="translate(-3.69 14.27) rotate(-90)"/><rect class="cls-2" x="5.04" y="8.18" width=".51" height=".59" transform="translate(-3.18 13.76) rotate(-90)"/><rect class="cls-4" x="5.04" y="9.19" width=".51" height=".59" transform="translate(-4.19 14.77) rotate(-90)"/><rect class="cls-4" x="4.45" y="9.19" width=".51" height=".59" transform="translate(-4.78 14.19) rotate(-90)"/><rect class="cls-4" x="3.86" y="9.19" width=".51" height=".59" transform="translate(-5.37 13.6) rotate(-90)"/><rect class="cls-4" x="3.86" y="8.68" width=".51" height=".59" transform="translate(-4.86 13.09) rotate(-90)"/><rect class="cls-4" x="4.45" y="9.19" width=".51" height=".59" transform="translate(-4.78 14.19) rotate(-90)"/><rect class="cls-4" x="5.62" y="9.19" width=".51" height=".59" transform="translate(-3.61 15.36) rotate(-90)"/><rect class="cls-4" x="6.21" y="9.19" width=".51" height=".59" transform="translate(-3.02 15.95) rotate(-90)"/><rect class="cls-4" x="6.21" y="8.68" width=".51" height=".59" transform="translate(-2.51 15.44) rotate(-90)"/><rect class="cls-4" x="6.21" y="8.18" width=".51" height=".59" transform="translate(-2.01 14.93) rotate(-90)"/><rect class="cls-4" x="5.62" y="8.18" width=".51" height=".59" transform="translate(-2.59 14.35) rotate(-90)"/><rect class="cls-4" x="5.62" y="7.67" width=".51" height=".59" transform="translate(-2.08 13.84) rotate(-90)"/><rect class="cls-4" x="5.04" y="7.67" width=".51" height=".59" transform="translate(-2.67 13.25) rotate(-90)"/><rect class="cls-4" x="4.45" y="7.67" width=".51" height=".59" transform="translate(-3.26 12.67) rotate(-90)"/><rect class="cls-4" x="4.45" y="8.18" width=".51" height=".59" transform="translate(-3.76 13.17) rotate(-90)"/><rect class="cls-5" x="5.33" y="8.39" width=".51" height="1.17" transform="translate(-3.39 14.56) rotate(-90)"/><rect class="cls-5" x="5.04" y="8.18" width=".51" height=".59" transform="translate(-3.18 13.76) rotate(-90)"/><rect class="cls-5" x="4.45" y="8.68" width=".51" height=".59" transform="translate(-4.27 13.68) rotate(-90)"/><rect class="cls-4" x="4.45" y="9.19" width=".51" height=".59" transform="translate(-4.78 14.19) rotate(-90)"/></g></g></svg>