<?xml version="1.0" encoding="UTF-8"?><svg id="Calque_2" xmlns="http://www.w3.org/2000/svg" viewBox="0 0 64 16"><defs><style>.cls-1{fill:#68ace5;}.cls-2{fill:#007fc6;}.cls-3{fill:#fff;}.cls-4{fill:#224256;}.cls-5{fill:#38749e;}</style></defs><g><rect class="cls-2" x="44.31" y="8.25" width=".56" height="2.8" transform="translate(89.17 19.31) rotate(180)"/><rect class="cls-2" x="43.75" y="8.25" width=".56" height="2.8" transform="translate(88.05 19.31) rotate(180)"/><rect class="cls-2" x="43.19" y="8.25" width=".56" height="2.8" transform="translate(86.93 19.31) rotate(180)"/><rect class="cls-2" x="42.63" y="8.25" width=".56" height="3.36" transform="translate(85.81 19.87) rotate(180)"/><rect class="cls-2" x="42.07" y="4.89" width=".56" height="6.72" transform="translate(84.69 16.51) rotate(180)"/><rect class="cls-2" x="41.51" y="4.89" width=".56" height="6.72" transform="translate(83.57 16.51) rotate(180)"/><rect class="cls-2" x="40.95" y="5.45" width=".56" height="6.16" transform="translate(82.45 17.07) rotate(180)"/><rect class="cls-2" x="40.39" y="5.45" width=".56" height="5.04" transform="translate(81.33 15.95) rotate(180)"/><rect class="cls-2" x="39.83" y="5.45" width=".56" height="4.48" transform="translate(80.21 15.39) rotate(180)"/><rect class="cls-2" x="39.27" y="4.33" width=".56" height="4.48" transform="translate(79.09 13.15) rotate(180)"/><rect class="cls-2" x="38.71" y="4.33" width=".56" height="4.48" transform="translate(77.97 13.15) rotate(180)"/><rect class="cls-2" x="38.15" y="4.33" width=".56" height="4.48" transform="translate(76.85 13.15) rotate(180)"/><rect class="cls-2" x="37.59" y="4.33" width=".56" height="4.48" transform="translate(75.73 13.15) rotate(180)"/><rect class="cls-2" x="37.03" y="4.33" width=".56" height="3.92" transform="translate(74.61 12.59) rotate(180)"/><rect class="cls-2" x="36.47" y="4.33" width=".56" height="3.36" transform="translate(73.49 12.03) rotate(180)"/><rect class="cls-2" x="35.91" y="3.77" width=".56" height="3.36" transform="translate(72.37 10.91) rotate(180)"/><rect class="cls-2" x="35.35" y="3.21" width=".56" height="3.36" transform="translate(71.25 9.79) rotate(180)"/><rect class="cls-2" x="34.79" y="3.21" width=".56" height="2.8" transform="translate(70.13 9.23) rotate(180)"/><rect class="cls-2" x="34.23" y="3.77" width=".56" height="1.68" transform="translate(69.01 9.23) rotate(180)"/><rect class="cls-2" x="44.87" y="8.25" width=".56" height="2.24" transform="translate(90.29 18.75) rotate(180)"/><rect class="cls-2" x="42.63" y="4.89" width=".56" height="2.24" transform="translate(85.81 12.03) rotate(180)"/><rect class="cls-2" x="43.19" y="4.89" width=".56" height="2.24" transform="translate(86.93 12.03) rotate(180)"/><rect class="cls-2" x="43.75" y="5.45" width=".56" height="1.12" transform="translate(88.05 12.03) rotate(180)"/></g><g><g><polygon class="cls-2" points="58.17 10.41 58.71 10.41 58.71 9.87 58.71 9.34 59.24 9.34 59.24 9.87 59.24 10.41 59.24 10.95 58.71 10.95 58.17 10.95 57.64 10.95 57.1 10.95 57.1 10.41 57.64 10.41 58.17 10.41"/><polygon class="cls-2" points="55.5 9.87 56.03 9.87 56.57 9.87 57.1 9.87 57.1 10.41 56.57 10.41 56.03 10.41 55.5 10.41 54.96 10.41 54.96 9.87 55.5 9.87"/><rect class="cls-2" x="49.6" y="9.87" width=".54" height=".54"/><polygon class="cls-2" points="49.6 8.8 49.6 9.34 49.6 9.87 49.07 9.87 49.07 9.34 49.07 8.8 49.6 8.8"/><polygon class="cls-2" points="50.67 8.8 50.14 8.8 49.6 8.8 49.6 8.27 50.14 8.27 50.67 8.27 51.21 8.27 51.21 8.8 50.67 8.8"/><polygon class="cls-2" points="51.75 8.27 51.21 8.27 51.21 7.73 51.75 7.73 52.28 7.73 52.28 8.27 51.75 8.27"/><rect class="cls-2" x="52.28" y="8.27" width=".54" height=".54"/><polygon class="cls-2" points="53.89 8.8 54.42 8.8 54.42 9.34 53.89 9.34 53.35 9.34 52.82 9.34 52.82 8.8 53.35 8.8 53.89 8.8"/><polygon class="cls-2" points="54.96 8.27 55.5 8.27 55.5 8.8 54.96 8.8 54.42 8.8 54.42 8.27 54.96 8.27"/><rect class="cls-2" x="53.89" y="7.73" width=".54" height=".54"/><polygon class="cls-2" points="53.35 7.73 52.82 7.73 52.28 7.73 52.28 7.2 52.82 7.2 53.35 7.2 53.89 7.2 53.89 7.73 53.35 7.73"/><rect class="cls-2" x="53.89" y="6.66" width=".54" height=".54"/><rect class="cls-2" x="54.42" y="6.13" width=".54" height=".54"/><polygon class="cls-2" points="55.5 5.59 55.5 5.05 56.03 5.05 56.57 5.05 56.57 5.59 56.03 5.59 55.5 5.59"/><polygon class="cls-2" points="56.57 5.59 57.1 5.59 57.1 6.13 57.1 6.66 56.57 6.66 56.57 6.13 56.57 5.59"/><rect class="cls-2" x="58.71" y="6.66" width=".54" height=".54"/><rect class="cls-2" x="58.17" y="7.2" width=".54" height=".54"/><polygon class="cls-2" points="57.64 8.27 57.1 8.27 56.57 8.27 56.57 7.73 57.1 7.73 57.64 7.73 58.17 7.73 58.17 8.27 57.64 8.27"/><polygon class="cls-2" points="56.03 7.2 56.03 6.66 56.57 6.66 56.57 7.2 56.57 7.73 56.03 7.73 56.03 7.2"/><rect class="cls-2" x="54.96" y="5.59" width=".54" height=".54"/><rect class="cls-2" x="55.5" y="7.73" width=".54" height=".54"/><polygon class="cls-2" points="54.42 10.41 54.96 10.41 54.96 10.95 54.42 10.95 53.89 10.95 50.14 10.95 50.14 10.41 53.89 10.41 54.42 10.41"/><polygon class="cls-2" points="59.24 8.27 59.24 7.73 59.24 7.2 59.78 7.2 59.78 7.73 59.78 8.27 59.78 8.8 59.78 9.34 59.24 9.34 59.24 8.8 59.24 8.27"/></g><rect class="cls-2" x="58.17" y="7.73" width=".54" height="2.68" transform="translate(116.88 18.14) rotate(180)"/><rect class="cls-2" x="56.57" y="8.27" width=".54" height="1.61" transform="translate(113.67 18.14) rotate(180)"/><rect class="cls-2" x="52.82" y="7.73" width=".54" height="1.07" transform="translate(106.17 16.54) rotate(180)"/><rect class="cls-2" x="53.35" y="7.73" width=".54" height="1.07" transform="translate(107.24 16.54) rotate(180)"/><g><rect class="cls-2" x="58.71" y="7.2" width=".54" height="2.14"/><polygon class="cls-2" points="58.17 8.27 58.17 10.41 57.64 10.41 57.1 10.41 57.1 8.27 57.64 8.27 58.17 8.27"/><polygon class="cls-2" points="50.14 8.8 50.67 8.8 51.21 8.8 51.21 8.27 51.75 8.27 52.28 8.27 52.28 8.8 52.82 8.8 52.82 9.34 53.35 9.34 53.89 9.34 54.42 9.34 54.42 8.8 54.96 8.8 55.5 8.8 55.5 8.27 56.03 8.27 56.03 7.73 56.57 7.73 56.57 9.87 56.03 9.87 55.5 9.87 54.96 9.87 54.96 10.41 54.42 10.41 53.89 10.41 53.35 10.41 52.82 10.41 52.28 10.41 51.75 10.41 51.21 10.41 50.67 10.41 50.14 10.41 50.14 9.87 49.6 9.87 49.6 8.8 50.14 8.8"/></g><polygon class="cls-2" points="54.42 7.2 54.42 6.66 54.96 6.66 54.96 6.13 55.5 6.13 55.5 5.59 56.03 5.59 56.57 5.59 56.57 6.66 56.03 6.66 56.03 7.73 55.5 7.73 55.5 8.27 54.96 8.27 54.42 8.27 54.42 7.73 53.89 7.73 53.89 7.2 54.42 7.2"/><rect class="cls-2" x="53.89" y="8.27" width=".54" height=".54" transform="translate(108.31 17.07) rotate(180)"/><rect class="cls-2" x="52.28" y="7.73" width=".54" height=".54" transform="translate(105.1 16) rotate(180)"/><polygon class="cls-2" points="53.89 7.73 53.89 8.27 54.42 8.27 54.42 8.8 52.82 8.8 52.82 8.27 52.28 8.27 52.28 7.73 53.89 7.73"/><rect class="cls-2" x="57.1" y="9.87" width="1.61" height=".54" transform="translate(115.81 20.29) rotate(180)"/><rect class="cls-2" x="50.14" y="9.87" width="4.82" height=".54" transform="translate(105.1 20.29) rotate(180)"/></g><g><g><polygon class="cls-1" points="60.32 11.01 60.88 11.01 60.88 10.45 60.88 9.89 61.44 9.89 61.44 10.45 61.44 11.01 61.44 11.57 60.88 11.57 60.32 11.57 59.76 11.57 59.19 11.57 59.19 11.01 59.76 11.01 60.32 11.01"/><polygon class="cls-1" points="57.51 10.45 58.07 10.45 58.63 10.45 59.19 10.45 59.19 11.01 58.63 11.01 58.07 11.01 57.51 11.01 56.95 11.01 56.95 10.45 57.51 10.45"/><rect class="cls-1" x="51.34" y="10.45" width=".56" height=".56"/><polygon class="cls-1" points="51.34 9.33 51.34 9.89 51.34 10.45 50.78 10.45 50.78 9.89 50.78 9.33 51.34 9.33"/><polygon class="cls-1" points="52.46 9.33 51.9 9.33 51.34 9.33 51.34 8.77 51.9 8.77 52.46 8.77 53.02 8.77 53.02 9.33 52.46 9.33"/><polygon class="cls-1" points="53.58 8.77 53.02 8.77 53.02 8.21 53.58 8.21 54.14 8.21 54.14 8.77 53.58 8.77"/><rect class="cls-1" x="54.14" y="8.77" width=".56" height=".56"/><polygon class="cls-1" points="55.83 9.33 56.39 9.33 56.39 9.89 55.83 9.89 55.27 9.89 54.7 9.89 54.7 9.33 55.27 9.33 55.83 9.33"/><polygon class="cls-1" points="56.95 8.77 57.51 8.77 57.51 9.33 56.95 9.33 56.39 9.33 56.39 8.77 56.95 8.77"/><rect class="cls-1" x="55.83" y="8.21" width=".56" height=".56"/><polygon class="cls-1" points="55.27 8.21 54.7 8.21 54.14 8.21 54.14 7.65 54.7 7.65 55.27 7.65 55.83 7.65 55.83 8.21 55.27 8.21"/><rect class="cls-1" x="55.83" y="7.08" width=".56" height=".56"/><rect class="cls-1" x="56.39" y="6.52" width=".56" height=".56"/><polygon class="cls-1" points="57.51 5.96 57.51 5.4 58.07 5.4 58.63 5.4 58.63 5.96 58.07 5.96 57.51 5.96"/><polygon class="cls-1" points="58.63 5.96 59.19 5.96 59.19 6.52 59.19 7.08 58.63 7.08 58.63 6.52 58.63 5.96"/><rect class="cls-1" x="60.88" y="7.08" width=".56" height=".56"/><rect class="cls-1" x="60.32" y="7.65" width=".56" height=".56"/><polygon class="cls-1" points="59.76 8.77 59.19 8.77 58.63 8.77 58.63 8.21 59.19 8.21 59.76 8.21 60.32 8.21 60.32 8.77 59.76 8.77"/><polygon class="cls-1" points="58.07 7.65 58.07 7.08 58.63 7.08 58.63 7.65 58.63 8.21 58.07 8.21 58.07 7.65"/><rect class="cls-1" x="56.95" y="5.96" width=".56" height=".56"/><rect class="cls-1" x="57.51" y="8.21" width=".56" height=".56"/><polygon class="cls-1" points="56.39 11.01 56.95 11.01 56.95 11.57 56.39 11.57 55.83 11.57 51.9 11.57 51.9 11.01 55.83 11.01 56.39 11.01"/><polygon class="cls-1" points="61.44 8.77 61.44 8.21 61.44 7.65 62 7.65 62 8.21 62 8.77 62 9.33 62 9.89 61.44 9.89 61.44 9.33 61.44 8.77"/></g><rect class="cls-1" x="60.32" y="8.21" width=".56" height="2.81" transform="translate(121.19 19.22) rotate(180)"/><rect class="cls-1" x="58.63" y="8.77" width=".56" height="1.68" transform="translate(117.83 19.22) rotate(180)"/><rect class="cls-3" x="54.7" y="8.21" width=".56" height="1.12" transform="translate(109.97 17.54) rotate(180)"/><rect class="cls-3" x="55.27" y="8.21" width=".56" height="1.12" transform="translate(111.09 17.54) rotate(180)"/><g><rect class="cls-1" x="60.88" y="7.65" width=".56" height="2.24"/><polygon class="cls-1" points="60.32 8.77 60.32 11.01 59.76 11.01 59.19 11.01 59.19 8.77 59.76 8.77 60.32 8.77"/><polygon class="cls-1" points="51.9 9.33 52.46 9.33 53.02 9.33 53.02 8.77 53.58 8.77 54.14 8.77 54.14 9.33 54.7 9.33 54.7 9.89 55.27 9.89 55.83 9.89 56.39 9.89 56.39 9.33 56.95 9.33 57.51 9.33 57.51 8.77 58.07 8.77 58.07 8.21 58.63 8.21 58.63 10.45 58.07 10.45 57.51 10.45 56.95 10.45 56.95 11.01 56.39 11.01 55.83 11.01 55.27 11.01 54.7 11.01 54.14 11.01 53.58 11.01 53.02 11.01 52.46 11.01 51.9 11.01 51.9 10.45 51.34 10.45 51.34 9.33 51.9 9.33"/></g><polygon class="cls-5" points="56.39 7.65 56.39 7.08 56.95 7.08 56.95 6.52 57.51 6.52 57.51 5.96 58.07 5.96 58.63 5.96 58.63 7.08 58.07 7.08 58.07 8.21 57.51 8.21 57.51 8.77 56.95 8.77 56.39 8.77 56.39 8.21 55.83 8.21 55.83 7.65 56.39 7.65"/><rect class="cls-3" x="55.83" y="8.77" width=".56" height=".56" transform="translate(112.21 18.1) rotate(180)"/><rect class="cls-3" x="54.14" y="8.21" width=".56" height=".56" transform="translate(108.85 16.97) rotate(180)"/><polygon class="cls-5" points="55.83 8.21 55.83 8.77 56.39 8.77 56.39 9.33 54.7 9.33 54.7 8.77 54.14 8.77 54.14 8.21 55.83 8.21"/><rect class="cls-5" x="59.19" y="11.01" width="2.24" height=".56" transform="translate(120.63 22.59) rotate(180)"/><rect class="cls-5" x="51.9" y="11.01" width="5.05" height=".56" transform="translate(108.85 22.59) rotate(180)"/><rect class="cls-5" x="58.63" y="10.45" width=".56" height=".56" transform="translate(117.83 21.46) rotate(180)"/><rect class="cls-5" x="58.07" y="10.45" width=".56" height=".56" transform="translate(116.7 21.46) rotate(180)"/><rect class="cls-5" x="57.51" y="10.45" width=".56" height=".56" transform="translate(115.58 21.46) rotate(180)"/><rect class="cls-5" x="56.95" y="10.45" width=".56" height=".56" transform="translate(114.46 21.46) rotate(180)"/><rect class="cls-5" x="58.07" y="7.65" width=".56" height=".56" transform="translate(116.7 15.85) rotate(180)"/><rect class="cls-5" x="58.07" y="7.08" width=".56" height=".56" transform="translate(116.7 14.73) rotate(180)"/><rect class="cls-5" x="58.63" y="6.52" width=".56" height=".56" transform="translate(117.83 13.61) rotate(180)"/><rect class="cls-5" x="58.63" y="5.96" width=".56" height=".56" transform="translate(117.83 12.49) rotate(180)"/><rect class="cls-5" x="58.07" y="5.4" width=".56" height=".56" transform="translate(116.7 11.36) rotate(180)"/><rect class="cls-5" x="57.51" y="5.4" width=".56" height=".56" transform="translate(115.58 11.36) rotate(180)"/><rect class="cls-4" x="55.83" y="8.21" width=".56" height=".56" transform="translate(112.21 16.97) rotate(180)"/><rect class="cls-4" x="56.39" y="8.77" width=".56" height=".56" transform="translate(113.34 18.1) rotate(180)"/><rect class="cls-4" x="55.83" y="9.33" width=".56" height=".56" transform="translate(112.21 19.22) rotate(180)"/><rect class="cls-4" x="55.27" y="9.33" width=".56" height=".56" transform="translate(111.09 19.22) rotate(180)"/><rect class="cls-4" x="54.7" y="9.33" width=".56" height=".56" transform="translate(109.97 19.22) rotate(180)"/><rect class="cls-4" x="54.14" y="8.77" width=".56" height=".56" transform="translate(108.85 18.1) rotate(180)"/></g><g><g><polygon class="cls-2" points="26.15 10.36 26.68 10.36 26.68 9.83 26.68 9.29 27.22 9.29 27.22 9.83 27.22 10.36 27.22 10.9 26.68 10.9 26.15 10.9 25.61 10.9 25.08 10.9 25.08 10.36 25.61 10.36 26.15 10.36"/><polygon class="cls-2" points="23.47 9.83 24.01 9.83 24.54 9.83 25.08 9.83 25.08 10.36 24.54 10.36 24.01 10.36 23.47 10.36 22.93 10.36 22.93 9.83 23.47 9.83"/><rect class="cls-2" x="17.58" y="9.83" width=".54" height=".54"/><polygon class="cls-2" points="17.58 8.76 17.58 9.29 17.58 9.83 17.04 9.83 17.04 9.29 17.04 8.76 17.58 8.76"/><polygon class="cls-2" points="18.65 8.76 18.11 8.76 17.58 8.76 17.58 8.22 18.11 8.22 18.65 8.22 19.18 8.22 19.18 8.76 18.65 8.76"/><polygon class="cls-2" points="19.72 8.22 19.18 8.22 19.18 7.69 19.72 7.69 20.26 7.69 20.26 8.22 19.72 8.22"/><rect class="cls-2" x="20.26" y="8.22" width=".54" height=".54"/><polygon class="cls-2" points="21.86 8.76 22.4 8.76 22.4 9.29 21.86 9.29 21.33 9.29 20.79 9.29 20.79 8.76 21.33 8.76 21.86 8.76"/><polygon class="cls-2" points="22.93 8.22 23.47 8.22 23.47 8.76 22.93 8.76 22.4 8.76 22.4 8.22 22.93 8.22"/><rect class="cls-2" x="21.86" y="7.69" width=".54" height=".54"/><polygon class="cls-2" points="21.33 7.69 20.79 7.69 20.26 7.69 20.26 7.15 20.79 7.15 21.33 7.15 21.86 7.15 21.86 7.69 21.33 7.69"/><rect class="cls-2" x="21.86" y="6.61" width=".54" height=".54"/><rect class="cls-2" x="22.4" y="6.08" width=".54" height=".54"/><polygon class="cls-2" points="23.47 5.54 23.47 5.01 24.01 5.01 24.54 5.01 24.54 5.54 24.01 5.54 23.47 5.54"/><polygon class="cls-2" points="24.54 5.54 25.08 5.54 25.08 6.08 25.08 6.61 24.54 6.61 24.54 6.08 24.54 5.54"/><rect class="cls-2" x="26.68" y="6.61" width=".54" height=".54"/><rect class="cls-2" x="26.15" y="7.15" width=".54" height=".54"/><polygon class="cls-2" points="25.61 8.22 25.08 8.22 24.54 8.22 24.54 7.69 25.08 7.69 25.61 7.69 26.15 7.69 26.15 8.22 25.61 8.22"/><polygon class="cls-2" points="24.01 7.15 24.01 6.61 24.54 6.61 24.54 7.15 24.54 7.69 24.01 7.69 24.01 7.15"/><rect class="cls-2" x="22.93" y="5.54" width=".54" height=".54"/><rect class="cls-2" x="23.47" y="7.69" width=".54" height=".54"/><polygon class="cls-2" points="22.4 10.36 22.93 10.36 22.93 10.9 22.4 10.9 21.86 10.9 18.11 10.9 18.11 10.36 21.86 10.36 22.4 10.36"/><polygon class="cls-2" points="27.22 8.22 27.22 7.69 27.22 7.15 27.76 7.15 27.76 7.69 27.76 8.22 27.76 8.76 27.76 9.29 27.22 9.29 27.22 8.76 27.22 8.22"/></g><rect class="cls-2" x="26.15" y="7.69" width=".54" height="2.68" transform="translate(52.83 18.05) rotate(180)"/><rect class="cls-2" x="24.54" y="8.22" width=".54" height="1.61" transform="translate(49.62 18.05) rotate(180)"/><rect class="cls-2" x="20.79" y="7.69" width=".54" height="1.07" transform="translate(42.12 16.44) rotate(180)"/><rect class="cls-2" x="21.33" y="7.69" width=".54" height="1.07" transform="translate(43.19 16.44) rotate(180)"/><g><rect class="cls-2" x="26.68" y="7.15" width=".54" height="2.14"/><polygon class="cls-2" points="26.15 8.22 26.15 10.36 25.61 10.36 25.08 10.36 25.08 8.22 25.61 8.22 26.15 8.22"/><polygon class="cls-2" points="18.11 8.76 18.65 8.76 19.18 8.76 19.18 8.22 19.72 8.22 20.26 8.22 20.26 8.76 20.79 8.76 20.79 9.29 21.33 9.29 21.86 9.29 22.4 9.29 22.4 8.76 22.93 8.76 23.47 8.76 23.47 8.22 24.01 8.22 24.01 7.69 24.54 7.69 24.54 9.83 24.01 9.83 23.47 9.83 22.93 9.83 22.93 10.36 22.4 10.36 21.86 10.36 21.33 10.36 20.79 10.36 20.26 10.36 19.72 10.36 19.18 10.36 18.65 10.36 18.11 10.36 18.11 9.83 17.58 9.83 17.58 8.76 18.11 8.76"/></g><polygon class="cls-2" points="22.4 7.15 22.4 6.61 22.93 6.61 22.93 6.08 23.47 6.08 23.47 5.54 24.01 5.54 24.54 5.54 24.54 6.61 24.01 6.61 24.01 7.69 23.47 7.69 23.47 8.22 22.93 8.22 22.4 8.22 22.4 7.69 21.86 7.69 21.86 7.15 22.4 7.15"/><rect class="cls-2" x="21.86" y="8.22" width=".54" height=".54" transform="translate(44.26 16.98) rotate(180)"/><rect class="cls-2" x="20.26" y="7.69" width=".54" height=".54" transform="translate(41.05 15.91) rotate(180)"/><polygon class="cls-2" points="21.86 7.69 21.86 8.22 22.4 8.22 22.4 8.76 20.79 8.76 20.79 8.22 20.26 8.22 20.26 7.69 21.86 7.69"/><rect class="cls-2" x="25.08" y="9.83" width="1.61" height=".54" transform="translate(51.76 20.19) rotate(180)"/><rect class="cls-2" x="18.11" y="9.83" width="4.82" height=".54" transform="translate(41.05 20.19) rotate(180)"/></g><g><g><polygon class="cls-2" points="11.15 10.36 11.69 10.36 11.69 9.83 11.69 9.29 12.22 9.29 12.22 9.83 12.22 10.36 12.22 10.9 11.69 10.9 11.15 10.9 10.62 10.9 10.08 10.9 10.08 10.36 10.62 10.36 11.15 10.36"/><polygon class="cls-2" points="8.47 9.83 9.01 9.83 9.55 9.83 10.08 9.83 10.08 10.36 9.55 10.36 9.01 10.36 8.47 10.36 7.94 10.36 7.94 9.83 8.47 9.83"/><rect class="cls-2" x="2.58" y="9.83" width=".54" height=".54"/><polygon class="cls-2" points="2.58 8.76 2.58 9.29 2.58 9.83 2.05 9.83 2.05 9.29 2.05 8.76 2.58 8.76"/><polygon class="cls-2" points="3.65 8.76 3.12 8.76 2.58 8.76 2.58 8.22 3.12 8.22 3.65 8.22 4.19 8.22 4.19 8.76 3.65 8.76"/><polygon class="cls-2" points="4.72 8.22 4.19 8.22 4.19 7.69 4.72 7.69 5.26 7.69 5.26 8.22 4.72 8.22"/><rect class="cls-2" x="5.26" y="8.22" width=".54" height=".54"/><polygon class="cls-2" points="6.87 8.76 7.4 8.76 7.4 9.29 6.87 9.29 6.33 9.29 5.8 9.29 5.8 8.76 6.33 8.76 6.87 8.76"/><polygon class="cls-2" points="7.94 8.22 8.47 8.22 8.47 8.76 7.94 8.76 7.4 8.76 7.4 8.22 7.94 8.22"/><rect class="cls-2" x="6.87" y="7.69" width=".54" height=".54"/><polygon class="cls-2" points="6.33 7.69 5.8 7.69 5.26 7.69 5.26 7.15 5.8 7.15 6.33 7.15 6.87 7.15 6.87 7.69 6.33 7.69"/><rect class="cls-2" x="6.87" y="6.61" width=".54" height=".54"/><rect class="cls-2" x="7.4" y="6.08" width=".54" height=".54"/><polygon class="cls-2" points="8.47 5.54 8.47 5.01 9.01 5.01 9.55 5.01 9.55 5.54 9.01 5.54 8.47 5.54"/><polygon class="cls-2" points="9.55 5.54 10.08 5.54 10.08 6.08 10.08 6.61 9.55 6.61 9.55 6.08 9.55 5.54"/><rect class="cls-2" x="11.69" y="6.61" width=".54" height=".54"/><rect class="cls-2" x="11.15" y="7.15" width=".54" height=".54"/><polygon class="cls-2" points="10.62 8.22 10.08 8.22 9.55 8.22 9.55 7.69 10.08 7.69 10.62 7.69 11.15 7.69 11.15 8.22 10.62 8.22"/><polygon class="cls-2" points="9.01 7.15 9.01 6.61 9.55 6.61 9.55 7.15 9.55 7.69 9.01 7.69 9.01 7.15"/><rect class="cls-2" x="7.94" y="5.54" width=".54" height=".54"/><rect class="cls-2" x="8.47" y="7.69" width=".54" height=".54"/><polygon class="cls-2" points="7.4 10.36 7.94 10.36 7.94 10.9 7.4 10.9 6.87 10.9 3.12 10.9 3.12 10.36 6.87 10.36 7.4 10.36"/><polygon class="cls-2" points="12.22 8.22 12.22 7.69 12.22 7.15 12.76 7.15 12.76 7.69 12.76 8.22 12.76 8.76 12.76 9.29 12.22 9.29 12.22 8.76 12.22 8.22"/></g><rect class="cls-2" x="11.15" y="7.69" width=".54" height="2.68" transform="translate(22.84 18.05) rotate(180)"/><rect class="cls-2" x="9.55" y="8.22" width=".54" height="1.61" transform="translate(19.63 18.05) rotate(180)"/><rect class="cls-2" x="5.8" y="7.69" width=".54" height="1.07" transform="translate(12.13 16.44) rotate(180)"/><rect class="cls-2" x="6.33" y="7.69" width=".54" height="1.07" transform="translate(13.2 16.44) rotate(180)"/><g><rect class="cls-2" x="11.69" y="7.15" width=".54" height="2.14"/><polygon class="cls-2" points="11.15 8.22 11.15 10.36 10.62 10.36 10.08 10.36 10.08 8.22 10.62 8.22 11.15 8.22"/><polygon class="cls-2" points="3.12 8.76 3.65 8.76 4.19 8.76 4.19 8.22 4.72 8.22 5.26 8.22 5.26 8.76 5.8 8.76 5.8 9.29 6.33 9.29 6.87 9.29 7.4 9.29 7.4 8.76 7.94 8.76 8.47 8.76 8.47 8.22 9.01 8.22 9.01 7.69 9.55 7.69 9.55 9.83 9.01 9.83 8.47 9.83 7.94 9.83 7.94 10.36 7.4 10.36 6.87 10.36 6.33 10.36 5.8 10.36 5.26 10.36 4.72 10.36 4.19 10.36 3.65 10.36 3.12 10.36 3.12 9.83 2.58 9.83 2.58 8.76 3.12 8.76"/></g><polygon class="cls-2" points="7.4 7.15 7.4 6.61 7.94 6.61 7.94 6.08 8.47 6.08 8.47 5.54 9.01 5.54 9.55 5.54 9.55 6.61 9.01 6.61 9.01 7.69 8.47 7.69 8.47 8.22 7.94 8.22 7.4 8.22 7.4 7.69 6.87 7.69 6.87 7.15 7.4 7.15"/><rect class="cls-2" x="6.87" y="8.22" width=".54" height=".54" transform="translate(14.27 16.98) rotate(180)"/><rect class="cls-2" x="5.26" y="7.69" width=".54" height=".54" transform="translate(11.06 15.91) rotate(180)"/><polygon class="cls-2" points="6.87 7.69 6.87 8.22 7.4 8.22 7.4 8.76 5.8 8.76 5.8 8.22 5.26 8.22 5.26 7.69 6.87 7.69"/><rect class="cls-2" x="10.08" y="9.83" width="1.61" height=".54" transform="translate(21.77 20.19) rotate(180)"/><rect class="cls-2" x="3.12" y="9.83" width="4.82" height=".54" transform="translate(11.06 20.19) rotate(180)"/></g><g><g><polygon class="cls-1" points="28.29 10.97 28.85 10.97 28.85 10.41 28.85 9.84 29.41 9.84 29.41 10.41 29.41 10.97 29.41 11.53 28.85 11.53 28.29 11.53 27.73 11.53 27.17 11.53 27.17 10.97 27.73 10.97 28.29 10.97"/><polygon class="cls-1" points="25.48 10.41 26.05 10.41 26.61 10.41 27.17 10.41 27.17 10.97 26.61 10.97 26.05 10.97 25.48 10.97 24.92 10.97 24.92 10.41 25.48 10.41"/><rect class="cls-1" x="19.31" y="10.41" width=".56" height=".56"/><polygon class="cls-1" points="19.31 9.28 19.31 9.84 19.31 10.41 18.75 10.41 18.75 9.84 18.75 9.28 19.31 9.28"/><polygon class="cls-1" points="20.43 9.28 19.87 9.28 19.31 9.28 19.31 8.72 19.87 8.72 20.43 8.72 21 8.72 21 9.28 20.43 9.28"/><polygon class="cls-1" points="21.56 8.72 21 8.72 21 8.16 21.56 8.16 22.12 8.16 22.12 8.72 21.56 8.72"/><rect class="cls-1" x="22.12" y="8.72" width=".56" height=".56"/><polygon class="cls-1" points="23.8 9.28 24.36 9.28 24.36 9.84 23.8 9.84 23.24 9.84 22.68 9.84 22.68 9.28 23.24 9.28 23.8 9.28"/><polygon class="cls-1" points="24.92 8.72 25.48 8.72 25.48 9.28 24.92 9.28 24.36 9.28 24.36 8.72 24.92 8.72"/><rect class="cls-1" x="23.8" y="8.16" width=".56" height=".56"/><polygon class="cls-1" points="23.24 8.16 22.68 8.16 22.12 8.16 22.12 7.6 22.68 7.6 23.24 7.6 23.8 7.6 23.8 8.16 23.24 8.16"/><rect class="cls-1" x="23.8" y="7.04" width=".56" height=".56"/><rect class="cls-1" x="24.36" y="6.48" width=".56" height=".56"/><polygon class="cls-1" points="25.48 5.92 25.48 5.35 26.05 5.35 26.61 5.35 26.61 5.92 26.05 5.92 25.48 5.92"/><polygon class="cls-1" points="26.61 5.92 27.17 5.92 27.17 6.48 27.17 7.04 26.61 7.04 26.61 6.48 26.61 5.92"/><rect class="cls-1" x="28.85" y="7.04" width=".56" height=".56"/><rect class="cls-1" x="28.29" y="7.6" width=".56" height=".56"/><polygon class="cls-1" points="27.73 8.72 27.17 8.72 26.61 8.72 26.61 8.16 27.17 8.16 27.73 8.16 28.29 8.16 28.29 8.72 27.73 8.72"/><polygon class="cls-1" points="26.05 7.6 26.05 7.04 26.61 7.04 26.61 7.6 26.61 8.16 26.05 8.16 26.05 7.6"/><rect class="cls-1" x="24.92" y="5.92" width=".56" height=".56"/><rect class="cls-1" x="25.48" y="8.16" width=".56" height=".56"/><polygon class="cls-1" points="24.36 10.97 24.92 10.97 24.92 11.53 24.36 11.53 23.8 11.53 19.87 11.53 19.87 10.97 23.8 10.97 24.36 10.97"/><polygon class="cls-1" points="29.41 8.72 29.41 8.16 29.41 7.6 29.97 7.6 29.97 8.16 29.97 8.72 29.97 9.28 29.97 9.84 29.41 9.84 29.41 9.28 29.41 8.72"/></g><rect class="cls-1" x="28.29" y="8.16" width=".56" height="2.81" transform="translate(57.14 19.13) rotate(180)"/><rect class="cls-1" x="26.61" y="8.72" width=".56" height="1.68" transform="translate(53.78 19.13) rotate(180)"/><rect class="cls-3" x="22.68" y="8.16" width=".56" height="1.12" transform="translate(45.92 17.44) rotate(180)"/><rect class="cls-3" x="23.24" y="8.16" width=".56" height="1.12" transform="translate(47.04 17.44) rotate(180)"/><g><rect class="cls-1" x="28.85" y="7.6" width=".56" height="2.24"/><polygon class="cls-1" points="28.29 8.72 28.29 10.97 27.73 10.97 27.17 10.97 27.17 8.72 27.73 8.72 28.29 8.72"/><polygon class="cls-1" points="19.87 9.28 20.43 9.28 21 9.28 21 8.72 21.56 8.72 22.12 8.72 22.12 9.28 22.68 9.28 22.68 9.84 23.24 9.84 23.8 9.84 24.36 9.84 24.36 9.28 24.92 9.28 25.48 9.28 25.48 8.72 26.05 8.72 26.05 8.16 26.61 8.16 26.61 10.41 26.05 10.41 25.48 10.41 24.92 10.41 24.92 10.97 24.36 10.97 23.8 10.97 23.24 10.97 22.68 10.97 22.12 10.97 21.56 10.97 21 10.97 20.43 10.97 19.87 10.97 19.87 10.41 19.31 10.41 19.31 9.28 19.87 9.28"/></g><polygon class="cls-5" points="24.36 7.6 24.36 7.04 24.92 7.04 24.92 6.48 25.48 6.48 25.48 5.92 26.05 5.92 26.61 5.92 26.61 7.04 26.05 7.04 26.05 8.16 25.48 8.16 25.48 8.72 24.92 8.72 24.36 8.72 24.36 8.16 23.8 8.16 23.8 7.6 24.36 7.6"/><rect class="cls-3" x="23.8" y="8.72" width=".56" height=".56" transform="translate(48.16 18.01) rotate(180)"/><rect class="cls-3" x="22.12" y="8.16" width=".56" height=".56" transform="translate(44.8 16.88) rotate(180)"/><polygon class="cls-5" points="23.8 8.16 23.8 8.72 24.36 8.72 24.36 9.28 22.68 9.28 22.68 8.72 22.12 8.72 22.12 8.16 23.8 8.16"/><rect class="cls-5" x="27.17" y="10.97" width="2.24" height=".56" transform="translate(56.58 22.49) rotate(180)"/><rect class="cls-5" x="19.87" y="10.97" width="5.05" height=".56" transform="translate(44.8 22.49) rotate(180)"/><rect class="cls-5" x="26.61" y="10.41" width=".56" height=".56" transform="translate(53.78 21.37) rotate(180)"/><rect class="cls-5" x="26.05" y="10.41" width=".56" height=".56" transform="translate(52.65 21.37) rotate(180)"/><rect class="cls-5" x="25.48" y="10.41" width=".56" height=".56" transform="translate(51.53 21.37) rotate(180)"/><rect class="cls-5" x="24.92" y="10.41" width=".56" height=".56" transform="translate(50.41 21.37) rotate(180)"/><rect class="cls-5" x="26.05" y="7.6" width=".56" height=".56" transform="translate(52.65 15.76) rotate(180)"/><rect class="cls-5" x="26.05" y="7.04" width=".56" height=".56" transform="translate(52.65 14.64) rotate(180)"/><rect class="cls-5" x="26.61" y="6.48" width=".56" height=".56" transform="translate(53.78 13.52) rotate(180)"/><rect class="cls-5" x="26.61" y="5.92" width=".56" height=".56" transform="translate(53.78 12.39) rotate(180)"/><rect class="cls-5" x="26.05" y="5.35" width=".56" height=".56" transform="translate(52.65 11.27) rotate(180)"/><rect class="cls-5" x="25.48" y="5.35" width=".56" height=".56" transform="translate(51.53 11.27) rotate(180)"/><rect class="cls-4" x="23.8" y="8.16" width=".56" height=".56" transform="translate(48.16 16.88) rotate(180)"/><rect class="cls-4" x="24.36" y="8.72" width=".56" height=".56" transform="translate(49.29 18.01) rotate(180)"/><rect class="cls-4" x="23.8" y="9.28" width=".56" height=".56" transform="translate(48.16 19.13) rotate(180)"/><rect class="cls-4" x="23.24" y="9.28" width=".56" height=".56" transform="translate(47.04 19.13) rotate(180)"/><rect class="cls-4" x="22.68" y="9.28" width=".56" height=".56" transform="translate(45.92 19.13) rotate(180)"/><rect class="cls-4" x="22.12" y="8.72" width=".56" height=".56" transform="translate(44.8 18.01) rotate(180)"/></g><g><g><polygon class="cls-1" points="44.32 11.06 44.88 11.06 44.88 10.5 44.88 9.94 45.44 9.94 45.44 10.5 45.44 11.06 45.44 11.62 44.88 11.62 44.32 11.62 43.76 11.62 43.19 11.62 43.19 11.06 43.76 11.06 44.32 11.06"/><polygon class="cls-1" points="41.51 10.5 42.07 10.5 42.63 10.5 43.19 10.5 43.19 11.06 42.63 11.06 42.07 11.06 41.51 11.06 40.95 11.06 40.95 10.5 41.51 10.5"/><rect class="cls-1" x="35.34" y="10.5" width=".56" height=".56"/><polygon class="cls-1" points="35.34 9.38 35.34 9.94 35.34 10.5 34.78 10.5 34.78 9.94 34.78 9.38 35.34 9.38"/><polygon class="cls-1" points="36.46 9.38 35.9 9.38 35.34 9.38 35.34 8.82 35.9 8.82 36.46 8.82 37.02 8.82 37.02 9.38 36.46 9.38"/><polygon class="cls-1" points="37.58 8.82 37.02 8.82 37.02 8.26 37.58 8.26 38.14 8.26 38.14 8.82 37.58 8.82"/><rect class="cls-1" x="38.14" y="8.82" width=".56" height=".56"/><polygon class="cls-1" points="39.83 9.38 40.39 9.38 40.39 9.94 39.83 9.94 39.27 9.94 38.7 9.94 38.7 9.38 39.27 9.38 39.83 9.38"/><polygon class="cls-1" points="40.95 8.82 41.51 8.82 41.51 9.38 40.95 9.38 40.39 9.38 40.39 8.82 40.95 8.82"/><rect class="cls-1" x="39.83" y="8.26" width=".56" height=".56"/><polygon class="cls-1" points="39.27 8.26 38.7 8.26 38.14 8.26 38.14 7.69 38.7 7.69 39.27 7.69 39.83 7.69 39.83 8.26 39.27 8.26"/><rect class="cls-1" x="39.83" y="7.13" width=".56" height=".56"/><rect class="cls-1" x="40.39" y="6.57" width=".56" height=".56"/><polygon class="cls-1" points="41.51 6.01 41.51 5.45 42.07 5.45 42.63 5.45 42.63 6.01 42.07 6.01 41.51 6.01"/><polygon class="cls-1" points="42.63 6.01 43.19 6.01 43.19 6.57 43.19 7.13 42.63 7.13 42.63 6.57 42.63 6.01"/><rect class="cls-1" x="44.88" y="7.13" width=".56" height=".56"/><rect class="cls-1" x="44.32" y="7.69" width=".56" height=".56"/><polygon class="cls-1" points="43.76 8.82 43.19 8.82 42.63 8.82 42.63 8.26 43.19 8.26 43.76 8.26 44.32 8.26 44.32 8.82 43.76 8.82"/><polygon class="cls-1" points="42.07 7.69 42.07 7.13 42.63 7.13 42.63 7.69 42.63 8.26 42.07 8.26 42.07 7.69"/><rect class="cls-1" x="40.95" y="6.01" width=".56" height=".56"/><rect class="cls-1" x="41.51" y="8.26" width=".56" height=".56"/><polygon class="cls-1" points="40.39 11.06 40.95 11.06 40.95 11.62 40.39 11.62 39.83 11.62 35.9 11.62 35.9 11.06 39.83 11.06 40.39 11.06"/><polygon class="cls-1" points="45.44 8.82 45.44 8.26 45.44 7.69 46 7.69 46 8.26 46 8.82 46 9.38 46 9.94 45.44 9.94 45.44 9.38 45.44 8.82"/></g><rect class="cls-1" x="44.32" y="8.26" width=".56" height="2.81" transform="translate(89.19 19.32) rotate(180)"/><rect class="cls-1" x="42.63" y="8.82" width=".56" height="1.68" transform="translate(85.83 19.32) rotate(180)"/><rect class="cls-3" x="38.7" y="8.26" width=".56" height="1.12" transform="translate(77.97 17.63) rotate(180)"/><rect class="cls-3" x="39.27" y="8.26" width=".56" height="1.12" transform="translate(79.09 17.63) rotate(180)"/><g><rect class="cls-1" x="44.88" y="7.69" width=".56" height="2.24"/><polygon class="cls-1" points="44.32 8.82 44.32 11.06 43.76 11.06 43.19 11.06 43.19 8.82 43.76 8.82 44.32 8.82"/><polygon class="cls-1" points="35.9 9.38 36.46 9.38 37.02 9.38 37.02 8.82 37.58 8.82 38.14 8.82 38.14 9.38 38.7 9.38 38.7 9.94 39.27 9.94 39.83 9.94 40.39 9.94 40.39 9.38 40.95 9.38 41.51 9.38 41.51 8.82 42.07 8.82 42.07 8.26 42.63 8.26 42.63 10.5 42.07 10.5 41.51 10.5 40.95 10.5 40.95 11.06 40.39 11.06 39.83 11.06 39.27 11.06 38.7 11.06 38.14 11.06 37.58 11.06 37.02 11.06 36.46 11.06 35.9 11.06 35.9 10.5 35.34 10.5 35.34 9.38 35.9 9.38"/></g><polygon class="cls-5" points="40.39 7.69 40.39 7.13 40.95 7.13 40.95 6.57 41.51 6.57 41.51 6.01 42.07 6.01 42.63 6.01 42.63 7.13 42.07 7.13 42.07 8.26 41.51 8.26 41.51 8.82 40.95 8.82 40.39 8.82 40.39 8.26 39.83 8.26 39.83 7.69 40.39 7.69"/><rect class="cls-3" x="39.83" y="8.82" width=".56" height=".56" transform="translate(80.21 18.19) rotate(180)"/><rect class="cls-3" x="38.14" y="8.26" width=".56" height=".56" transform="translate(76.85 17.07) rotate(180)"/><polygon class="cls-5" points="39.83 8.26 39.83 8.82 40.39 8.82 40.39 9.38 38.7 9.38 38.7 8.82 38.14 8.82 38.14 8.26 39.83 8.26"/><rect class="cls-5" x="43.19" y="11.06" width="2.24" height=".56" transform="translate(88.63 22.68) rotate(180)"/><rect class="cls-5" x="35.9" y="11.06" width="5.05" height=".56" transform="translate(76.85 22.68) rotate(180)"/><rect class="cls-5" x="42.63" y="10.5" width=".56" height=".56" transform="translate(85.83 21.56) rotate(180)"/><rect class="cls-5" x="42.07" y="10.5" width=".56" height=".56" transform="translate(84.7 21.56) rotate(180)"/><rect class="cls-5" x="41.51" y="10.5" width=".56" height=".56" transform="translate(83.58 21.56) rotate(180)"/><rect class="cls-5" x="40.95" y="10.5" width=".56" height=".56" transform="translate(82.46 21.56) rotate(180)"/><rect class="cls-5" x="42.07" y="7.69" width=".56" height=".56" transform="translate(84.7 15.95) rotate(180)"/><rect class="cls-5" x="42.07" y="7.13" width=".56" height=".56" transform="translate(84.7 14.83) rotate(180)"/><rect class="cls-5" x="42.63" y="6.57" width=".56" height=".56" transform="translate(85.83 13.7) rotate(180)"/><rect class="cls-5" x="42.63" y="6.01" width=".56" height=".56" transform="translate(85.83 12.58) rotate(180)"/><rect class="cls-5" x="42.07" y="5.45" width=".56" height=".56" transform="translate(84.7 11.46) rotate(180)"/><rect class="cls-5" x="41.51" y="5.45" width=".56" height=".56" transform="translate(83.58 11.46) rotate(180)"/><rect class="cls-4" x="39.83" y="8.26" width=".56" height=".56" transform="translate(80.21 17.07) rotate(180)"/><rect class="cls-4" x="40.39" y="8.82" width=".56" height=".56" transform="translate(81.34 18.19) rotate(180)"/><rect class="cls-4" x="39.83" y="9.38" width=".56" height=".56" transform="translate(80.21 19.32) rotate(180)"/><rect class="cls-4" x="39.27" y="9.38" width=".56" height=".56" transform="translate(79.09 19.32) rotate(180)"/><rect class="cls-4" x="38.7" y="9.38" width=".56" height=".56" transform="translate(77.97 19.32) rotate(180)"/><rect class="cls-4" x="38.14" y="8.82" width=".56" height=".56" transform="translate(76.85 18.19) rotate(180)"/></g><g><rect class="cls-1" x="13.61" y="8.04" width=".51" height="1.17" transform="translate(27.72 17.25) rotate(180)"/><rect class="cls-5" x="11.07" y="10.38" width=".51" height="1.17" transform="translate(22.64 21.94) rotate(180)"/><rect class="cls-5" x="10.56" y="9.8" width=".51" height="1.17" transform="translate(21.63 20.77) rotate(180)"/><rect class="cls-5" x="10.05" y="8.62" width=".51" height="1.76" transform="translate(20.61 19.01) rotate(180)"/><rect class="cls-5" x="9.55" y="8.04" width=".51" height="1.17" transform="translate(19.6 17.25) rotate(180)"/><rect class="cls-5" x="9.04" y="7.45" width=".51" height="1.17" transform="translate(18.58 16.08) rotate(180)"/><rect class="cls-5" x="8.02" y="6.87" width=".51" height="1.17" transform="translate(16.55 14.91) rotate(180)"/><rect class="cls-5" x="7.52" y="6.28" width=".51" height="1.17" transform="translate(15.54 13.73) rotate(180)"/><rect class="cls-5" x="7.01" y="5.69" width=".51" height="1.17" transform="translate(14.52 12.56) rotate(180)"/><rect class="cls-5" x="6.5" y="5.11" width=".51" height="1.17" transform="translate(13.51 11.39) rotate(180)"/><rect class="cls-5" x="5.99" y="4.52" width=".51" height="1.17" transform="translate(12.49 10.22) rotate(180)"/><rect class="cls-5" x="5.49" y="3.94" width=".51" height="1.17" transform="translate(11.48 9.04) rotate(180)"/><rect class="cls-5" x="8.53" y="7.45" width=".51" height=".59" transform="translate(17.57 15.49) rotate(180)"/><rect class="cls-1" x="13.1" y="8.04" width=".51" height="1.76" transform="translate(26.7 17.84) rotate(180)"/><polygon class="cls-1" points="5.49 2.18 5.99 2.18 5.99 1.59 6.5 1.59 7.01 1.59 7.01 2.18 7.52 2.18 7.52 2.76 8.02 2.76 8.02 5.69 8.53 5.69 8.53 6.28 9.04 6.28 9.55 6.28 10.05 6.28 10.56 6.28 11.07 6.28 11.07 6.87 11.58 6.87 12.08 6.87 12.08 7.45 12.59 7.45 12.59 8.04 13.1 8.04 13.1 10.38 12.59 10.38 12.08 10.38 12.08 10.97 11.58 10.97 11.58 10.38 11.07 10.38 11.07 9.8 10.56 9.8 10.56 8.62 10.05 8.62 10.05 8.04 9.55 8.04 9.55 7.45 9.04 7.45 8.53 7.45 8.53 6.87 8.02 6.87 8.02 6.28 7.52 6.28 7.52 5.69 7.01 5.69 7.01 5.11 6.5 5.11 6.5 4.52 5.99 4.52 5.99 3.94 5.49 3.94 4.98 3.94 4.98 2.18 5.49 2.18"/><rect class="cls-1" x="5.49" y="1.59" width=".51" height=".59" transform="translate(11.48 3.77) rotate(180)"/><rect class="cls-5" x="4.98" y="3.94" width=".51" height=".59" transform="translate(10.46 8.46) rotate(180)"/><rect class="cls-5" x="13.1" y="5.11" width=".51" height="1.17" transform="translate(26.7 11.39) rotate(180)"/><rect class="cls-5" x="12.59" y="4.52" width=".51" height="1.76" transform="translate(25.69 10.8) rotate(180)"/><rect class="cls-5" x="12.08" y="4.52" width=".51" height="1.76" transform="translate(24.67 10.8) rotate(180)"/><rect class="cls-5" x="11.58" y="4.52" width=".51" height="1.76" transform="translate(23.66 10.8) rotate(180)"/><rect class="cls-5" x="11.07" y="3.94" width=".51" height="2.34" transform="translate(22.64 10.22) rotate(180)"/><rect class="cls-5" x="10.56" y="3.94" width=".51" height="2.34" transform="translate(21.63 10.22) rotate(180)"/><rect class="cls-5" x="10.05" y="3.94" width=".51" height="2.34" transform="translate(20.61 10.22) rotate(180)"/><rect class="cls-1" x="9.55" y="3.35" width=".51" height=".59" transform="translate(19.6 7.28) rotate(180)"/><rect class="cls-1" x="9.04" y="3.35" width=".51" height=".59" transform="translate(18.58 7.28) rotate(180)"/><rect class="cls-1" x="8.53" y="3.35" width=".51" height=".59" transform="translate(17.57 7.28) rotate(180)"/><rect class="cls-1" x="8.02" y="3.35" width=".51" height=".59" transform="translate(16.55 7.28) rotate(180)"/><rect class="cls-1" x="8.02" y="2.76" width=".51" height=".59" transform="translate(16.55 6.11) rotate(180)"/><rect class="cls-2" x="9.55" y="3.94" width=".51" height=".59" transform="translate(19.6 8.46) rotate(180)"/><rect class="cls-2" x="9.04" y="3.94" width=".51" height="1.76" transform="translate(18.58 9.63) rotate(180)"/><rect class="cls-2" x="8.53" y="4.52" width=".51" height=".59" transform="translate(17.57 9.63) rotate(180)"/><rect class="cls-4" x="9.55" y="4.52" width=".51" height=".59" transform="translate(19.6 9.63) rotate(180)"/><rect class="cls-4" x="9.55" y="3.94" width=".51" height=".59" transform="translate(19.6 8.46) rotate(180)"/><rect class="cls-4" x="9.55" y="3.35" width=".51" height=".59" transform="translate(19.6 7.28) rotate(180)"/><rect class="cls-4" x="9.04" y="3.35" width=".51" height=".59" transform="translate(18.58 7.28) rotate(180)"/><rect class="cls-4" x="9.55" y="3.94" width=".51" height=".59" transform="translate(19.6 8.46) rotate(180)"/><rect class="cls-4" x="9.55" y="5.11" width=".51" height=".59" transform="translate(19.6 10.8) rotate(180)"/><rect class="cls-4" x="9.55" y="5.69" width=".51" height=".59" transform="translate(19.6 11.97) rotate(180)"/><rect class="cls-4" x="9.04" y="5.69" width=".51" height=".59" transform="translate(18.58 11.97) rotate(180)"/><rect class="cls-4" x="8.53" y="5.69" width=".51" height=".59" transform="translate(17.57 11.97) rotate(180)"/><rect class="cls-4" x="8.53" y="5.11" width=".51" height=".59" transform="translate(17.57 10.8) rotate(180)"/><rect class="cls-4" x="8.02" y="5.11" width=".51" height=".59" transform="translate(16.55 10.8) rotate(180)"/><rect class="cls-4" x="8.02" y="4.52" width=".51" height=".59" transform="translate(16.55 9.63) rotate(180)"/><rect class="cls-4" x="8.02" y="3.94" width=".51" height=".59" transform="translate(16.55 8.46) rotate(180)"/><rect class="cls-4" x="8.53" y="3.94" width=".51" height=".59" transform="translate(17.57 8.46) rotate(180)"/><rect class="cls-5" x="9.04" y="4.52" width=".51" height="1.17" transform="translate(18.58 10.22) rotate(180)"/><rect class="cls-5" x="8.53" y="4.52" width=".51" height=".59" transform="translate(17.57 9.63) rotate(180)"/><rect class="cls-5" x="9.04" y="3.94" width=".51" height=".59" transform="translate(18.58 8.46) rotate(180)"/><rect class="cls-4" x="9.55" y="3.94" width=".51" height=".59" transform="translate(19.6 8.46) rotate(180)"/></g></svg>