<?xml version="1.0" encoding="UTF-8"?><svg xmlns="http://www.w3.org/2000/svg" viewBox="0 0 192 16"><defs><style>.cls-1{fill:#68ace5;}.cls-2{fill:#007fc6;}.cls-3{fill:#fff;}.cls-4{fill:#224256;}.cls-5{fill:#38749e;}</style></defs><g id="Calque_1"><path class="cls-1" d="M173,11h-2v1h2v-1Z"/><path class="cls-1" d="M164,10h-2v1h2v-1Z"/><path class="cls-1" d="M163,8v-1h1v1h1v1h-1v-1h-1Z"/><path class="cls-1" d="M168,15v-1h1v1h1v1h-1v-1h-1Z"/><path class="cls-1" d="M168,8v-1h1v-1h1v1h-1v1h-1Z"/><path class="cls-1" d="M163,14v-1h1v-1h1v1h-1v1h-1Z"/><path class="cls-1" d="M165,16v-1h1v-1h1v1h-1v1h-1Z"/><path class="cls-1" d="M170,10v-1h1v-1h1v1h-1v1h-1Z"/><path class="cls-1" d="M165,7v-1h1v1h1v1h-1v-1h-1Z"/><path class="cls-1" d="M170,14v-1h1v1h1v1h-1v-1h-1Z"/></g><g id="Calque_2"><g><g><g><polygon class="cls-2" points="8.36 9.91 8.36 10.44 7.82 10.44 7.29 10.44 7.29 10.98 7.82 10.98 8.36 10.98 8.89 10.98 8.89 10.44 8.89 9.91 8.89 9.37 8.89 8.84 8.36 8.84 8.36 9.37 8.36 9.91"/><polygon class="cls-2" points="7.82 7.23 7.82 7.76 7.82 8.3 7.82 8.84 8.36 8.84 8.36 8.3 8.36 7.76 8.36 7.23 8.36 6.69 7.82 6.69 7.82 7.23"/><rect class="cls-2" x="7.82" y="1.34" width=".54" height=".54"/><polygon class="cls-2" points="6.75 1.34 7.29 1.34 7.82 1.34 7.82 .8 7.29 .8 6.75 .8 6.75 1.34"/><polygon class="cls-2" points="6.75 2.41 6.75 1.87 6.75 1.34 6.21 1.34 6.21 1.87 6.21 2.41 6.21 2.94 6.75 2.94 6.75 2.41"/><polygon class="cls-2" points="6.21 3.48 6.21 2.94 5.68 2.94 5.68 3.48 5.68 4.01 6.21 4.01 6.21 3.48"/><rect class="cls-2" x="6.21" y="4.01" width=".54" height=".54"/><polygon class="cls-2" points="6.75 5.62 6.75 6.16 7.29 6.16 7.29 5.62 7.29 5.09 7.29 4.55 6.75 4.55 6.75 5.09 6.75 5.62"/><polygon class="cls-2" points="6.21 6.69 6.21 7.23 6.75 7.23 6.75 6.69 6.75 6.16 6.21 6.16 6.21 6.69"/><rect class="cls-2" x="5.68" y="5.62" width=".54" height=".54"/><polygon class="cls-2" points="5.68 5.09 5.68 4.55 5.68 4.01 5.14 4.01 5.14 4.55 5.14 5.09 5.14 5.62 5.68 5.62 5.68 5.09"/><rect class="cls-2" x="4.61" y="5.62" width=".54" height=".54"/><rect class="cls-2" x="4.07" y="6.16" width=".54" height=".54"/><polygon class="cls-2" points="3.54 7.23 3 7.23 3 7.76 3 8.3 3.54 8.3 3.54 7.76 3.54 7.23"/><polygon class="cls-2" points="3.54 8.3 3.54 8.84 4.07 8.84 4.61 8.84 4.61 8.3 4.07 8.3 3.54 8.3"/><rect class="cls-2" x="4.61" y="10.44" width=".54" height=".54"/><rect class="cls-2" x="5.14" y="9.91" width=".54" height=".54"/><polygon class="cls-2" points="6.21 9.37 6.21 8.84 6.21 8.3 5.68 8.3 5.68 8.84 5.68 9.37 5.68 9.91 6.21 9.91 6.21 9.37"/><polygon class="cls-2" points="5.14 7.76 4.61 7.76 4.61 8.3 5.14 8.3 5.68 8.3 5.68 7.76 5.14 7.76"/><rect class="cls-2" x="3.54" y="6.69" width=".54" height=".54"/><rect class="cls-2" x="5.68" y="7.23" width=".54" height=".54"/><polygon class="cls-2" points="8.36 6.16 8.36 6.69 8.89 6.69 8.89 6.16 8.89 5.62 8.89 1.87 8.36 1.87 8.36 5.62 8.36 6.16"/><polygon class="cls-2" points="6.21 10.98 5.68 10.98 5.14 10.98 5.14 11.51 5.68 11.51 6.21 11.51 6.75 11.51 7.29 11.51 7.29 10.98 6.75 10.98 6.21 10.98"/></g><rect class="cls-2" x="6.75" y="8.84" width=".54" height="2.68" transform="translate(-3.16 17.19) rotate(-90)"/><rect class="cls-2" x="6.75" y="7.76" width=".54" height="1.61" transform="translate(-1.55 15.59) rotate(-90)"/><rect class="cls-2" x="5.95" y="4.28" width=".54" height="1.07" transform="translate(1.4 11.03) rotate(-90)"/><rect class="cls-2" x="5.95" y="4.82" width=".54" height="1.07" transform="translate(.86 11.57) rotate(-90)"/><g><rect class="cls-2" x="5.14" y="10.44" width="2.14" height=".54"/><polygon class="cls-2" points="6.21 9.91 8.36 9.91 8.36 9.37 8.36 8.84 6.21 8.84 6.21 9.37 6.21 9.91"/><polygon class="cls-2" points="6.75 1.87 6.75 2.41 6.75 2.94 6.21 2.94 6.21 3.48 6.21 4.01 6.75 4.01 6.75 4.55 7.29 4.55 7.29 5.09 7.29 5.62 7.29 6.16 6.75 6.16 6.75 6.69 6.75 7.23 6.21 7.23 6.21 7.76 5.68 7.76 5.68 8.3 7.82 8.3 7.82 7.76 7.82 7.23 7.82 6.69 8.36 6.69 8.36 6.16 8.36 5.62 8.36 5.09 8.36 4.55 8.36 4.01 8.36 3.48 8.36 2.94 8.36 2.41 8.36 1.87 7.82 1.87 7.82 1.34 6.75 1.34 6.75 1.87"/></g><polygon class="cls-2" points="5.14 6.16 4.61 6.16 4.61 6.69 4.07 6.69 4.07 7.23 3.54 7.23 3.54 7.76 3.54 8.3 4.61 8.3 4.61 7.76 5.68 7.76 5.68 7.23 6.21 7.23 6.21 6.69 6.21 6.16 5.68 6.16 5.68 5.62 5.14 5.62 5.14 6.16"/><rect class="cls-2" x="6.21" y="5.62" width=".54" height=".54" transform="translate(.59 12.37) rotate(-90)"/><rect class="cls-2" x="5.68" y="4.01" width=".54" height=".54" transform="translate(1.66 10.23) rotate(-90)"/><polygon class="cls-2" points="5.68 5.62 6.21 5.62 6.21 6.16 6.75 6.16 6.75 4.55 6.21 4.55 6.21 4.01 5.68 4.01 5.68 5.62"/><rect class="cls-2" x="7.29" y="9.37" width="1.61" height=".54" transform="translate(-1.55 17.73) rotate(-90)"/><rect class="cls-2" x="5.68" y="4.01" width="4.82" height=".54" transform="translate(3.81 12.37) rotate(-90)"/></g><g><g><polygon class="cls-1" points="8.96 12.05 8.96 12.61 8.4 12.61 7.84 12.61 7.84 13.17 8.4 13.17 8.96 13.17 9.52 13.17 9.52 12.61 9.52 12.05 9.52 11.49 9.52 10.93 8.96 10.93 8.96 11.49 8.96 12.05"/><polygon class="cls-1" points="8.4 9.24 8.4 9.8 8.4 10.37 8.4 10.93 8.96 10.93 8.96 10.37 8.96 9.8 8.96 9.24 8.96 8.68 8.4 8.68 8.4 9.24"/><rect class="cls-1" x="8.4" y="3.07" width=".56" height=".56"/><polygon class="cls-1" points="7.28 3.07 7.84 3.07 8.4 3.07 8.4 2.51 7.84 2.51 7.28 2.51 7.28 3.07"/><polygon class="cls-1" points="7.28 4.19 7.28 3.63 7.28 3.07 6.71 3.07 6.71 3.63 6.71 4.19 6.71 4.75 7.28 4.75 7.28 4.19"/><polygon class="cls-1" points="6.71 5.31 6.71 4.75 6.15 4.75 6.15 5.31 6.15 5.88 6.71 5.88 6.71 5.31"/><rect class="cls-1" x="6.71" y="5.88" width=".56" height=".56"/><polygon class="cls-1" points="7.28 7.56 7.28 8.12 7.84 8.12 7.84 7.56 7.84 7 7.84 6.44 7.28 6.44 7.28 7 7.28 7.56"/><polygon class="cls-1" points="6.71 8.68 6.71 9.24 7.28 9.24 7.28 8.68 7.28 8.12 6.71 8.12 6.71 8.68"/><rect class="cls-1" x="6.15" y="7.56" width=".56" height=".56"/><polygon class="cls-1" points="6.15 7 6.15 6.44 6.15 5.88 5.59 5.88 5.59 6.44 5.59 7 5.59 7.56 6.15 7.56 6.15 7"/><rect class="cls-1" x="5.03" y="7.56" width=".56" height=".56"/><rect class="cls-1" x="4.47" y="8.12" width=".56" height=".56"/><polygon class="cls-1" points="3.91 9.24 3.35 9.24 3.35 9.8 3.35 10.37 3.91 10.37 3.91 9.8 3.91 9.24"/><polygon class="cls-1" points="3.91 10.37 3.91 10.93 4.47 10.93 5.03 10.93 5.03 10.37 4.47 10.37 3.91 10.37"/><rect class="cls-1" x="5.03" y="12.61" width=".56" height=".56"/><rect class="cls-1" x="5.59" y="12.05" width=".56" height=".56"/><polygon class="cls-1" points="6.71 11.49 6.71 10.93 6.71 10.37 6.15 10.37 6.15 10.93 6.15 11.49 6.15 12.05 6.71 12.05 6.71 11.49"/><polygon class="cls-1" points="5.59 9.8 5.03 9.8 5.03 10.37 5.59 10.37 6.15 10.37 6.15 9.8 5.59 9.8"/><rect class="cls-1" x="3.91" y="8.68" width=".56" height=".56"/><rect class="cls-1" x="6.15" y="9.24" width=".56" height=".56"/><polygon class="cls-1" points="8.96 8.12 8.96 8.68 9.52 8.68 9.52 8.12 9.52 7.56 9.52 3.63 8.96 3.63 8.96 7.56 8.96 8.12"/><polygon class="cls-1" points="6.71 13.17 6.15 13.17 5.59 13.17 5.59 13.73 6.15 13.73 6.71 13.73 7.28 13.73 7.84 13.73 7.84 13.17 7.28 13.17 6.71 13.17"/></g><rect class="cls-1" x="7.28" y="10.93" width=".56" height="2.81" transform="translate(-4.77 19.89) rotate(-90)"/><rect class="cls-1" x="7.28" y="9.8" width=".56" height="1.68" transform="translate(-3.09 18.2) rotate(-90)"/><rect class="cls-3" x="6.43" y="6.16" width=".56" height="1.12" transform="translate(0 13.43) rotate(-90)"/><rect class="cls-3" x="6.43" y="6.72" width=".56" height="1.12" transform="translate(-.56 13.99) rotate(-90)"/><g><rect class="cls-1" x="5.59" y="12.61" width="2.24" height=".56"/><polygon class="cls-1" points="6.71 12.05 8.96 12.05 8.96 11.49 8.96 10.93 6.71 10.93 6.71 11.49 6.71 12.05"/><polygon class="cls-1" points="7.28 3.63 7.28 4.19 7.28 4.75 6.71 4.75 6.71 5.31 6.71 5.88 7.28 5.88 7.28 6.44 7.84 6.44 7.84 7 7.84 7.56 7.84 8.12 7.28 8.12 7.28 8.68 7.28 9.24 6.71 9.24 6.71 9.8 6.15 9.8 6.15 10.37 8.4 10.37 8.4 9.8 8.4 9.24 8.4 8.68 8.96 8.68 8.96 8.12 8.96 7.56 8.96 7 8.96 6.44 8.96 5.88 8.96 5.31 8.96 4.75 8.96 4.19 8.96 3.63 8.4 3.63 8.4 3.07 7.28 3.07 7.28 3.63"/></g><polygon class="cls-5" points="5.59 8.12 5.03 8.12 5.03 8.68 4.47 8.68 4.47 9.24 3.91 9.24 3.91 9.8 3.91 10.37 5.03 10.37 5.03 9.8 6.15 9.8 6.15 9.24 6.71 9.24 6.71 8.68 6.71 8.12 6.15 8.12 6.15 7.56 5.59 7.56 5.59 8.12"/><rect class="cls-3" x="6.71" y="7.56" width=".56" height=".56" transform="translate(-.85 14.84) rotate(-90)"/><rect class="cls-3" x="6.15" y="5.88" width=".56" height=".56" transform="translate(.28 12.59) rotate(-90)"/><polygon class="cls-5" points="6.15 7.56 6.71 7.56 6.71 8.12 7.28 8.12 7.28 6.44 6.71 6.44 6.71 5.88 6.15 5.88 6.15 7.56"/><rect class="cls-5" x="8.12" y="11.77" width="2.24" height=".56" transform="translate(-2.81 21.29) rotate(-90)"/><rect class="cls-5" x="6.71" y="5.88" width="5.05" height=".56" transform="translate(3.08 15.4) rotate(-90)"/><rect class="cls-5" x="8.4" y="10.37" width=".56" height=".56" transform="translate(-1.97 19.32) rotate(-90)"/><rect class="cls-5" x="8.4" y="9.8" width=".56" height=".56" transform="translate(-1.41 18.76) rotate(-90)"/><rect class="cls-5" x="8.4" y="9.24" width=".56" height=".56" transform="translate(-.85 18.2) rotate(-90)"/><rect class="cls-5" x="8.4" y="8.68" width=".56" height=".56" transform="translate(-.28 17.64) rotate(-90)"/><rect class="cls-5" x="5.59" y="9.8" width=".56" height=".56" transform="translate(-4.21 15.96) rotate(-90)"/><rect class="cls-5" x="5.03" y="9.8" width=".56" height=".56" transform="translate(-4.77 15.4) rotate(-90)"/><rect class="cls-5" x="4.47" y="10.37" width=".56" height=".56" transform="translate(-5.9 15.4) rotate(-90)"/><rect class="cls-5" x="3.91" y="10.37" width=".56" height=".56" transform="translate(-6.46 14.84) rotate(-90)"/><rect class="cls-5" x="3.35" y="9.8" width=".56" height=".56" transform="translate(-6.46 13.71) rotate(-90)"/><rect class="cls-5" x="3.35" y="9.24" width=".56" height=".56" transform="translate(-5.9 13.15) rotate(-90)"/><rect class="cls-4" x="6.15" y="7.56" width=".56" height=".56" transform="translate(-1.41 14.27) rotate(-90)"/><rect class="cls-4" x="6.71" y="8.12" width=".56" height=".56" transform="translate(-1.41 15.4) rotate(-90)"/><rect class="cls-4" x="7.28" y="7.56" width=".56" height=".56" transform="translate(-.28 15.4) rotate(-90)"/><rect class="cls-4" x="7.28" y="7" width=".56" height=".56" transform="translate(.28 14.84) rotate(-90)"/><rect class="cls-4" x="7.28" y="6.44" width=".56" height=".56" transform="translate(.84 14.27) rotate(-90)"/><rect class="cls-4" x="6.71" y="5.88" width=".56" height=".56" transform="translate(.84 13.15) rotate(-90)"/></g></g><g><g><g><polygon class="cls-2" points="24.92 9.91 24.92 10.44 24.38 10.44 23.85 10.44 23.85 10.98 24.38 10.98 24.92 10.98 25.45 10.98 25.45 10.44 25.45 9.91 25.45 9.37 25.45 8.84 24.92 8.84 24.92 9.37 24.92 9.91"/><polygon class="cls-2" points="24.38 7.23 24.38 7.76 24.38 8.3 24.38 8.84 24.92 8.84 24.92 8.3 24.92 7.76 24.92 7.23 24.92 6.69 24.38 6.69 24.38 7.23"/><rect class="cls-2" x="22.24" y="2.94" width=".54" height="1.07"/><rect class="cls-2" x="22.78" y="4.01" width=".53" height=".54"/><polygon class="cls-2" points="23.31 5.62 23.31 6.16 23.85 6.16 23.85 5.62 23.85 5.09 23.85 4.55 23.31 4.55 23.31 5.09 23.31 5.62"/><polygon class="cls-2" points="22.78 6.69 22.78 7.23 23.31 7.23 23.31 6.69 23.31 6.16 22.78 6.16 22.78 6.69"/><rect class="cls-2" x="22.24" y="5.62" width=".54" height=".54"/><polygon class="cls-2" points="22.24 5.09 22.24 4.55 22.24 4.01 21.7 4.01 21.7 4.55 21.7 5.09 21.7 5.62 22.24 5.62 22.24 5.09"/><rect class="cls-2" x="21.17" y="5.62" width=".54" height=".54"/><rect class="cls-2" x="20.63" y="6.16" width=".54" height=".54"/><polygon class="cls-2" points="20.1 7.23 19.56 7.23 19.56 7.76 19.56 8.3 20.1 8.3 20.1 7.76 20.1 7.23"/><polygon class="cls-2" points="20.1 8.3 20.1 8.84 20.63 8.84 21.17 8.84 21.17 8.3 20.63 8.3 20.1 8.3"/><rect class="cls-2" x="21.17" y="10.44" width=".54" height=".54"/><rect class="cls-2" x="21.7" y="9.91" width=".54" height=".54"/><polygon class="cls-2" points="22.78 9.37 22.78 8.84 22.78 8.3 22.24 8.3 22.24 8.84 22.24 9.37 22.24 9.91 22.78 9.91 22.78 9.37"/><polygon class="cls-2" points="21.7 7.76 21.17 7.76 21.17 8.3 21.7 8.3 22.24 8.3 22.24 7.76 21.7 7.76"/><rect class="cls-2" x="20.1" y="6.69" width=".54" height=".54"/><rect class="cls-2" x="22.24" y="7.23" width=".54" height=".54"/><polygon class="cls-2" points="25.45 3.07 25.45 6.69 24.92 6.69 24.92 2.51 24.96 2.51 24.96 3.07 25.45 3.07"/><polygon class="cls-2" points="22.78 10.98 22.24 10.98 21.7 10.98 21.7 11.51 22.24 11.51 22.78 11.51 23.31 11.51 23.85 11.51 23.85 10.98 23.31 10.98 22.78 10.98"/></g><rect class="cls-2" x="23.31" y="8.84" width=".54" height="2.68" transform="translate(13.41 33.75) rotate(-90)"/><rect class="cls-2" x="23.31" y="7.76" width=".54" height="1.61" transform="translate(15.01 32.15) rotate(-90)"/><rect class="cls-2" x="22.51" y="4.28" width=".54" height="1.07" transform="translate(17.96 27.59) rotate(-90)"/><rect class="cls-2" x="22.51" y="4.82" width=".54" height="1.07" transform="translate(17.42 28.13) rotate(-90)"/><g><rect class="cls-2" x="21.7" y="10.44" width="2.14" height=".54"/><polygon class="cls-2" points="22.78 9.91 24.92 9.91 24.92 9.37 24.92 8.84 22.78 8.84 22.78 9.37 22.78 9.91"/><polygon class="cls-2" points="24.92 2.51 24.92 6.69 24.38 6.69 24.38 8.3 22.24 8.3 22.24 7.76 22.78 7.76 22.78 7.23 23.31 7.23 23.31 6.16 23.85 6.16 23.85 4.55 23.31 4.55 23.31 4.01 23.28 4.01 23.28 3.07 23.84 3.07 23.84 2.51 24.92 2.51"/></g><polygon class="cls-2" points="21.7 6.16 21.17 6.16 21.17 6.69 20.63 6.69 20.63 7.23 20.1 7.23 20.1 7.76 20.1 8.3 21.17 8.3 21.17 7.76 22.24 7.76 22.24 7.23 22.78 7.23 22.78 6.69 22.78 6.16 22.24 6.16 22.24 5.62 21.7 5.62 21.7 6.16"/><rect class="cls-2" x="22.78" y="5.62" width=".54" height=".54" transform="translate(17.16 28.93) rotate(-90)"/><rect class="cls-2" x="22.24" y="4.01" width=".54" height=".54" transform="translate(18.23 26.79) rotate(-90)"/><polygon class="cls-2" points="22.24 5.62 22.78 5.62 22.78 6.16 23.31 6.16 23.31 4.55 22.78 4.55 22.78 4.01 22.24 4.01 22.24 5.62"/><rect class="cls-2" x="23.85" y="9.37" width="1.61" height=".54" transform="translate(15.01 34.29) rotate(-90)"/><rect class="cls-2" x="24.38" y="2.51" width=".54" height="4.18"/></g><g><g><polygon class="cls-1" points="25.52 12.05 25.52 12.61 24.96 12.61 24.4 12.61 24.4 13.17 24.96 13.17 25.52 13.17 26.08 13.17 26.08 12.61 26.08 12.05 26.08 11.49 26.08 10.93 25.52 10.93 25.52 11.49 25.52 12.05"/><polygon class="cls-1" points="24.96 9.24 24.96 9.8 24.96 10.37 24.96 10.93 25.52 10.93 25.52 10.37 25.52 9.8 25.52 9.24 25.52 8.68 24.96 8.68 24.96 9.24"/><rect class="cls-1" x="24.96" y="3.07" width=".56" height=".56"/><rect class="cls-1" x="23.84" y="2.51" width="1.12" height=".56"/><rect class="cls-1" x="23.28" y="3.07" width=".56" height="1.68"/><polygon class="cls-1" points="23.28 5.31 23.28 4.75 22.71 4.75 22.71 5.31 22.71 5.88 23.28 5.88 23.28 5.31"/><rect class="cls-1" x="23.28" y="5.88" width=".56" height=".56"/><polygon class="cls-1" points="23.84 7.56 23.84 8.12 24.4 8.12 24.4 7.56 24.4 7 24.4 6.44 23.84 6.44 23.84 7 23.84 7.56"/><polygon class="cls-1" points="23.28 8.68 23.28 9.24 23.84 9.24 23.84 8.68 23.84 8.12 23.28 8.12 23.28 8.68"/><rect class="cls-1" x="22.71" y="7.56" width=".56" height=".56"/><polygon class="cls-1" points="22.71 7 22.71 6.44 22.71 5.88 22.15 5.88 22.15 6.44 22.15 7 22.15 7.56 22.71 7.56 22.71 7"/><rect class="cls-1" x="21.59" y="7.56" width=".56" height=".56"/><rect class="cls-1" x="21.03" y="8.12" width=".56" height=".56"/><polygon class="cls-1" points="20.47 9.24 19.91 9.24 19.91 9.8 19.91 10.37 20.47 10.37 20.47 9.8 20.47 9.24"/><polygon class="cls-1" points="20.47 10.37 20.47 10.93 21.03 10.93 21.59 10.93 21.59 10.37 21.03 10.37 20.47 10.37"/><rect class="cls-1" x="21.59" y="12.61" width=".56" height=".56"/><rect class="cls-1" x="22.15" y="12.05" width=".56" height=".56"/><polygon class="cls-1" points="23.28 11.49 23.28 10.93 23.28 10.37 22.71 10.37 22.71 10.93 22.71 11.49 22.71 12.05 23.28 12.05 23.28 11.49"/><polygon class="cls-1" points="22.15 9.8 21.59 9.8 21.59 10.37 22.15 10.37 22.71 10.37 22.71 9.8 22.15 9.8"/><rect class="cls-1" x="20.47" y="8.68" width=".56" height=".56"/><rect class="cls-1" x="22.71" y="9.24" width=".56" height=".56"/><polygon class="cls-1" points="25.52 8.12 25.52 8.68 26.08 8.68 26.08 8.12 26.08 7.56 26.08 3.63 25.52 3.63 25.52 7.56 25.52 8.12"/><polygon class="cls-1" points="23.28 13.17 22.71 13.17 22.15 13.17 22.15 13.73 22.71 13.73 23.28 13.73 23.84 13.73 24.4 13.73 24.4 13.17 23.84 13.17 23.28 13.17"/></g><rect class="cls-1" x="23.84" y="10.93" width=".56" height="2.81" transform="translate(11.79 36.45) rotate(-90)"/><rect class="cls-1" x="23.84" y="9.8" width=".56" height="1.68" transform="translate(13.47 34.76) rotate(-90)"/><rect class="cls-3" x="23" y="6.16" width=".56" height="1.12" transform="translate(16.56 29.99) rotate(-90)"/><rect class="cls-3" x="23" y="6.72" width=".56" height="1.12" transform="translate(16 30.56) rotate(-90)"/><g><rect class="cls-1" x="22.15" y="12.61" width="2.24" height=".56"/><polygon class="cls-1" points="23.28 12.05 25.52 12.05 25.52 11.49 25.52 10.93 23.28 10.93 23.28 11.49 23.28 12.05"/><polygon class="cls-1" points="23.84 3.63 23.84 4.19 23.84 4.75 23.28 4.75 23.28 5.31 23.28 5.88 23.84 5.88 23.84 6.44 24.4 6.44 24.4 7 24.4 7.56 24.4 8.12 23.84 8.12 23.84 8.68 23.84 9.24 23.28 9.24 23.28 9.8 22.71 9.8 22.71 10.37 24.96 10.37 24.96 9.8 24.96 9.24 24.96 8.68 25.52 8.68 25.52 8.12 25.52 7.56 25.52 7 25.52 6.44 25.52 5.88 25.52 5.31 25.52 4.75 25.52 4.19 25.52 3.63 24.96 3.63 24.96 3.07 23.84 3.07 23.84 3.63"/></g><polygon class="cls-5" points="22.15 8.12 21.59 8.12 21.59 8.68 21.03 8.68 21.03 9.24 20.47 9.24 20.47 9.8 20.47 10.37 21.59 10.37 21.59 9.8 22.71 9.8 22.71 9.24 23.28 9.24 23.28 8.68 23.28 8.12 22.71 8.12 22.71 7.56 22.15 7.56 22.15 8.12"/><rect class="cls-3" x="23.28" y="7.56" width=".56" height=".56" transform="translate(15.72 31.4) rotate(-90)"/><rect class="cls-3" x="22.71" y="5.88" width=".56" height=".56" transform="translate(16.84 29.15) rotate(-90)"/><polygon class="cls-5" points="22.71 7.56 23.28 7.56 23.28 8.12 23.84 8.12 23.84 6.44 23.28 6.44 23.28 5.88 22.71 5.88 22.71 7.56"/><rect class="cls-5" x="24.68" y="11.77" width="2.24" height=".56" transform="translate(13.75 37.85) rotate(-90)"/><rect class="cls-5" x="23.28" y="5.88" width="5.05" height=".56" transform="translate(19.65 31.96) rotate(-90)"/><rect class="cls-5" x="24.96" y="10.37" width=".56" height=".56" transform="translate(14.59 35.89) rotate(-90)"/><rect class="cls-5" x="24.96" y="9.8" width=".56" height=".56" transform="translate(15.16 35.33) rotate(-90)"/><rect class="cls-5" x="24.96" y="9.24" width=".56" height=".56" transform="translate(15.72 34.76) rotate(-90)"/><rect class="cls-5" x="24.96" y="8.68" width=".56" height=".56" transform="translate(16.28 34.2) rotate(-90)"/><rect class="cls-5" x="22.15" y="9.8" width=".56" height=".56" transform="translate(12.35 32.52) rotate(-90)"/><rect class="cls-5" x="21.59" y="9.8" width=".56" height=".56" transform="translate(11.79 31.96) rotate(-90)"/><rect class="cls-5" x="21.03" y="10.37" width=".56" height=".56" transform="translate(10.67 31.96) rotate(-90)"/><rect class="cls-5" x="20.47" y="10.37" width=".56" height=".56" transform="translate(10.1 31.4) rotate(-90)"/><rect class="cls-5" x="19.91" y="9.8" width=".56" height=".56" transform="translate(10.1 30.27) rotate(-90)"/><rect class="cls-5" x="19.91" y="9.24" width=".56" height=".56" transform="translate(10.67 29.71) rotate(-90)"/><rect class="cls-4" x="22.71" y="7.56" width=".56" height=".56" transform="translate(15.16 30.84) rotate(-90)"/><rect class="cls-4" x="23.28" y="8.12" width=".56" height=".56" transform="translate(15.16 31.96) rotate(-90)"/><rect class="cls-4" x="23.84" y="7.56" width=".56" height=".56" transform="translate(16.28 31.96) rotate(-90)"/><rect class="cls-4" x="23.84" y="7" width=".56" height=".56" transform="translate(16.84 31.4) rotate(-90)"/><rect class="cls-4" x="23.84" y="6.44" width=".56" height=".56" transform="translate(17.4 30.84) rotate(-90)"/><rect class="cls-4" x="23.28" y="5.88" width=".56" height=".56" transform="translate(17.4 29.71) rotate(-90)"/></g></g><g><g><g><polygon class="cls-2" points="40.71 9.91 40.71 10.44 40.17 10.44 39.64 10.44 39.64 10.98 40.17 10.98 40.71 10.98 41.24 10.98 41.24 10.44 41.24 9.91 41.24 9.37 41.24 8.84 40.71 8.84 40.71 9.37 40.71 9.91"/><rect class="cls-2" x="40.17" y="6.69" width=".54" height="2.15"/><rect class="cls-2" x="38.57" y="4.01" width=".53" height=".54"/><rect class="cls-2" x="39.1" y="4.55" width=".54" height="1.61"/><polygon class="cls-2" points="38.57 6.69 38.57 7.23 39.1 7.23 39.1 6.69 39.1 6.16 38.57 6.16 38.57 6.69"/><rect class="cls-2" x="38.03" y="5.62" width=".54" height=".54"/><rect class="cls-2" x="36.96" y="5.62" width=".54" height=".54"/><rect class="cls-2" x="36.42" y="6.16" width=".54" height=".54"/><polygon class="cls-2" points="35.89 7.23 35.35 7.23 35.35 7.76 35.35 8.3 35.89 8.3 35.89 7.76 35.89 7.23"/><polygon class="cls-2" points="35.89 8.3 35.89 8.84 36.42 8.84 36.96 8.84 36.96 8.3 36.42 8.3 35.89 8.3"/><rect class="cls-2" x="36.96" y="10.44" width=".54" height=".54"/><rect class="cls-2" x="37.49" y="9.91" width=".54" height=".54"/><polygon class="cls-2" points="38.57 9.37 38.57 8.84 38.57 8.3 38.03 8.3 38.03 8.84 38.03 9.37 38.03 9.91 38.57 9.91 38.57 9.37"/><polygon class="cls-2" points="37.49 7.76 36.96 7.76 36.96 8.3 37.49 8.3 38.03 8.3 38.03 7.76 37.49 7.76"/><rect class="cls-2" x="35.89" y="6.69" width=".54" height=".54"/><rect class="cls-2" x="38.03" y="7.23" width=".54" height=".54"/><polygon class="cls-2" points="38.57 10.98 38.03 10.98 37.49 10.98 37.49 11.51 38.03 11.51 38.57 11.51 39.1 11.51 39.64 11.51 39.64 10.98 39.1 10.98 38.57 10.98"/></g><rect class="cls-2" x="39.1" y="8.84" width=".54" height="2.68" transform="translate(29.2 49.54) rotate(-90)"/><rect class="cls-2" x="39.1" y="7.76" width=".54" height="1.61" transform="translate(30.8 47.94) rotate(-90)"/><rect class="cls-2" x="38.03" y="4.55" width="1.07" height=".54"/><rect class="cls-2" x="38.03" y="5.09" width="1.07" height=".53"/><g><rect class="cls-2" x="37.49" y="10.44" width="2.14" height=".54"/><polygon class="cls-2" points="38.57 9.91 40.71 9.91 40.71 9.37 40.71 8.84 38.57 8.84 38.57 9.37 38.57 9.91"/><polygon class="cls-2" points="40.19 6.44 40.19 6.69 40.17 6.69 40.17 8.3 38.03 8.3 38.03 7.76 38.57 7.76 38.57 7.23 39.1 7.23 39.1 6.16 39.63 6.16 39.63 6.44 40.19 6.44"/></g><polygon class="cls-2" points="38.57 6.16 38.57 7.23 38.03 7.23 38.03 7.76 36.96 7.76 36.96 8.3 35.89 8.3 35.89 7.23 36.42 7.23 36.42 6.69 36.96 6.69 36.96 6.16 37.49 6.16 37.49 5.62 38.03 5.62 38.03 6.16 38.57 6.16"/><rect class="cls-2" x="38.57" y="5.62" width=".54" height=".54" transform="translate(32.95 44.72) rotate(-90)"/><rect class="cls-2" x="38.03" y="4.01" width=".54" height=".54"/><polygon class="cls-2" points="39.1 4.55 39.1 6.16 38.57 6.16 38.57 5.62 38.03 5.62 38.03 4.01 38.57 4.01 38.57 4.55 39.1 4.55"/><rect class="cls-2" x="39.64" y="9.37" width="1.61" height=".54" transform="translate(30.8 50.08) rotate(-90)"/><rect class="cls-2" x="40.17" y="6.44" width=".02" height=".25"/></g><g><g><polygon class="cls-1" points="41.31 12.05 41.31 12.61 40.75 12.61 40.19 12.61 40.19 13.17 40.75 13.17 41.31 13.17 41.87 13.17 41.87 12.61 41.87 12.05 41.87 11.49 41.87 10.93 41.31 10.93 41.31 11.49 41.31 12.05"/><polygon class="cls-1" points="40.75 9.24 40.75 9.8 40.75 10.37 40.75 10.93 41.31 10.93 41.31 10.37 41.31 9.8 41.31 9.24 41.31 8.68 40.75 8.68 40.75 9.24"/><polygon class="cls-1" points="39.63 4.55 39.63 4.75 39.07 4.75 39.07 4.01 39.1 4.01 39.1 4.55 39.63 4.55"/><polygon class="cls-1" points="39.07 5.31 39.07 4.75 38.51 4.75 38.51 5.31 38.51 5.88 39.07 5.88 39.07 5.31"/><rect class="cls-1" x="39.07" y="5.88" width=".56" height=".56"/><rect class="cls-1" x="39.63" y="6.44" width=".56" height="1.68"/><polygon class="cls-1" points="39.07 8.68 39.07 9.24 39.63 9.24 39.63 8.68 39.63 8.12 39.07 8.12 39.07 8.68"/><rect class="cls-1" x="38.51" y="7.56" width=".56" height=".56"/><polygon class="cls-1" points="38.51 7 38.51 6.44 38.51 5.88 37.94 5.88 37.94 6.44 37.94 7 37.94 7.56 38.51 7.56 38.51 7"/><rect class="cls-1" x="37.38" y="7.56" width=".56" height=".56"/><rect class="cls-1" x="36.82" y="8.12" width=".56" height=".56"/><polygon class="cls-1" points="36.26 9.24 35.7 9.24 35.7 9.8 35.7 10.37 36.26 10.37 36.26 9.8 36.26 9.24"/><polygon class="cls-1" points="36.26 10.37 36.26 10.93 36.82 10.93 37.38 10.93 37.38 10.37 36.82 10.37 36.26 10.37"/><rect class="cls-1" x="37.38" y="12.61" width=".56" height=".56"/><rect class="cls-1" x="37.94" y="12.05" width=".56" height=".56"/><polygon class="cls-1" points="39.07 11.49 39.07 10.93 39.07 10.37 38.51 10.37 38.51 10.93 38.51 11.49 38.51 12.05 39.07 12.05 39.07 11.49"/><polygon class="cls-1" points="37.94 9.8 37.38 9.8 37.38 10.37 37.94 10.37 38.51 10.37 38.51 9.8 37.94 9.8"/><rect class="cls-1" x="36.26" y="8.68" width=".56" height=".56"/><rect class="cls-1" x="38.51" y="9.24" width=".56" height=".56"/><polygon class="cls-1" points="41.31 8.12 41.31 8.68 41.87 8.68 41.87 8.12 41.87 7.56 41.87 3.63 41.31 3.63 41.31 7.56 41.31 8.12"/><polygon class="cls-1" points="39.07 13.17 38.51 13.17 37.94 13.17 37.94 13.73 38.51 13.73 39.07 13.73 39.63 13.73 40.19 13.73 40.19 13.17 39.63 13.17 39.07 13.17"/></g><rect class="cls-1" x="39.63" y="10.93" width=".56" height="2.81" transform="translate(27.58 52.24) rotate(-90)"/><rect class="cls-1" x="39.63" y="9.8" width=".56" height="1.68" transform="translate(29.26 50.55) rotate(-90)"/><rect class="cls-3" x="38.79" y="6.16" width=".56" height="1.12" transform="translate(32.35 45.78) rotate(-90)"/><rect class="cls-3" x="38.79" y="6.72" width=".56" height="1.12" transform="translate(31.79 46.35) rotate(-90)"/><g><rect class="cls-1" x="37.94" y="12.61" width="2.24" height=".56"/><polygon class="cls-1" points="39.07 12.05 41.31 12.05 41.31 11.49 41.31 10.93 39.07 10.93 39.07 11.49 39.07 12.05"/><polygon class="cls-1" points="39.64 4.55 39.64 6.16 39.63 6.16 39.63 5.88 39.07 5.88 39.07 4.75 39.63 4.75 39.63 4.55 39.64 4.55"/><polygon class="cls-1" points="41.31 3.63 41.31 8.68 40.75 8.68 40.75 10.37 38.51 10.37 38.51 9.8 39.07 9.8 39.07 9.24 39.63 9.24 39.63 8.12 40.19 8.12 40.19 6.69 41.24 6.69 41.24 3.63 41.31 3.63"/></g><polygon class="cls-5" points="37.94 8.12 37.38 8.12 37.38 8.68 36.82 8.68 36.82 9.24 36.26 9.24 36.26 9.8 36.26 10.37 37.38 10.37 37.38 9.8 38.51 9.8 38.51 9.24 39.07 9.24 39.07 8.68 39.07 8.12 38.51 8.12 38.51 7.56 37.94 7.56 37.94 8.12"/><rect class="cls-3" x="39.07" y="7.56" width=".56" height=".56" transform="translate(31.51 47.19) rotate(-90)"/><rect class="cls-3" x="38.51" y="5.88" width=".56" height=".56" transform="translate(32.63 44.94) rotate(-90)"/><polygon class="cls-5" points="38.51 7.56 39.07 7.56 39.07 8.12 39.63 8.12 39.63 6.44 39.07 6.44 39.07 5.88 38.51 5.88 38.51 7.56"/><rect class="cls-5" x="40.47" y="11.77" width="2.24" height=".56" transform="translate(29.54 53.64) rotate(-90)"/><rect class="cls-5" x="39.07" y="5.88" width="5.05" height=".56" transform="translate(35.44 47.75) rotate(-90)"/><rect class="cls-5" x="40.75" y="10.37" width=".56" height=".56" transform="translate(30.38 51.68) rotate(-90)"/><rect class="cls-5" x="40.75" y="9.8" width=".56" height=".56" transform="translate(30.95 51.12) rotate(-90)"/><rect class="cls-5" x="40.75" y="9.24" width=".56" height=".56" transform="translate(31.51 50.55) rotate(-90)"/><rect class="cls-5" x="40.75" y="8.68" width=".56" height=".56" transform="translate(32.07 49.99) rotate(-90)"/><rect class="cls-5" x="37.94" y="9.8" width=".56" height=".56" transform="translate(28.14 48.31) rotate(-90)"/><rect class="cls-5" x="37.38" y="9.8" width=".56" height=".56" transform="translate(27.58 47.75) rotate(-90)"/><rect class="cls-5" x="36.82" y="10.37" width=".56" height=".56" transform="translate(26.46 47.75) rotate(-90)"/><rect class="cls-5" x="36.26" y="10.37" width=".56" height=".56" transform="translate(25.89 47.19) rotate(-90)"/><rect class="cls-5" x="35.7" y="9.8" width=".56" height=".56" transform="translate(25.89 46.06) rotate(-90)"/><rect class="cls-5" x="35.7" y="9.24" width=".56" height=".56" transform="translate(26.46 45.5) rotate(-90)"/><rect class="cls-4" x="38.51" y="7.56" width=".56" height=".56" transform="translate(30.95 46.63) rotate(-90)"/><rect class="cls-4" x="39.07" y="8.12" width=".56" height=".56" transform="translate(30.95 47.75) rotate(-90)"/><rect class="cls-4" x="39.63" y="7.56" width=".56" height=".56" transform="translate(32.07 47.75) rotate(-90)"/><rect class="cls-4" x="39.63" y="7" width=".56" height=".56" transform="translate(32.63 47.19) rotate(-90)"/><rect class="cls-4" x="39.63" y="6.44" width=".56" height=".56"/><rect class="cls-1" x="38.03" y="2.94" width=".54" height="1.07"/><rect class="cls-1" x="37.49" y="4.01" width=".54" height="1.61"/><rect class="cls-4" x="39.07" y="5.88" width=".56" height=".56"/></g></g><g><g><g><polygon class="cls-2" points="57.35 8.84 57.35 10.98 55.74 10.98 55.74 10.44 56.81 10.44 56.81 8.84 57.35 8.84"/><rect class="cls-2" x="56.27" y="6.69" width=".54" height="2.15"/><polygon class="cls-2" points="55.21 5.88 55.73 5.88 55.73 6.16 55.2 6.16 55.2 5.62 55.21 5.62 55.21 5.88"/><polygon class="cls-2" points="54.67 6.69 54.67 7.23 55.21 7.23 55.21 6.69 55.21 6.16 54.67 6.16 54.67 6.69"/><rect class="cls-2" x="54.13" y="5.62" width=".54" height=".54"/><rect class="cls-2" x="53.06" y="5.62" width=".54" height=".54"/><rect class="cls-2" x="52.53" y="6.16" width=".54" height=".54"/><polygon class="cls-2" points="51.99 7.23 51.46 7.23 51.46 7.76 51.46 8.3 51.99 8.3 51.99 7.76 51.99 7.23"/><polygon class="cls-2" points="51.99 8.3 51.99 8.84 52.53 8.84 53.06 8.84 53.06 8.3 52.53 8.3 51.99 8.3"/><rect class="cls-2" x="53.06" y="10.44" width=".54" height=".54"/><rect class="cls-2" x="53.6" y="9.91" width=".54" height=".54"/><polygon class="cls-2" points="54.67 9.37 54.67 8.84 54.67 8.3 54.13 8.3 54.13 8.84 54.13 9.37 54.13 9.91 54.67 9.91 54.67 9.37"/><polygon class="cls-2" points="53.6 7.76 53.06 7.76 53.06 8.3 53.6 8.3 54.13 8.3 54.13 7.76 53.6 7.76"/><rect class="cls-2" x="51.99" y="6.69" width=".54" height=".54"/><rect class="cls-2" x="54.13" y="7.23" width=".54" height=".54"/><polygon class="cls-2" points="54.67 10.98 54.13 10.98 53.6 10.98 53.6 11.51 54.13 11.51 54.67 11.51 55.21 11.51 55.74 11.51 55.74 10.98 55.21 10.98 54.67 10.98"/></g><rect class="cls-2" x="55.21" y="8.84" width=".54" height="2.68" transform="translate(45.3 65.65) rotate(-90)"/><rect class="cls-2" x="55.21" y="7.76" width=".54" height="1.61" transform="translate(46.91 64.04) rotate(-90)"/><g><rect class="cls-2" x="53.6" y="10.44" width="2.14" height=".54"/><polygon class="cls-2" points="54.67 9.91 56.81 9.91 56.81 9.37 56.81 8.84 54.67 8.84 54.67 9.37 54.67 9.91"/><polygon class="cls-2" points="56.29 6.44 56.29 6.69 56.27 6.69 56.27 8.3 54.13 8.3 54.13 7.76 54.67 7.76 54.67 7.23 55.2 7.23 55.2 6.16 55.73 6.16 55.73 6.44 56.29 6.44"/></g><polygon class="cls-2" points="54.67 6.16 54.67 7.23 54.13 7.23 54.13 7.76 53.06 7.76 53.06 8.3 51.99 8.3 51.99 7.23 52.52 7.23 52.52 6.69 53.06 6.69 53.06 6.16 53.59 6.16 53.59 5.62 54.13 5.62 54.13 6.16 54.67 6.16"/><rect class="cls-2" x="54.67" y="5.62" width=".54" height=".54"/><rect class="cls-2" x="54.67" y="5.62" width=".53" height=".54"/><rect class="cls-2" x="55.74" y="9.37" width="1.61" height=".54" transform="translate(46.91 66.18) rotate(-90)"/><rect class="cls-2" x="56.27" y="6.44" width=".02" height=".25"/></g><g><g><polygon class="cls-1" points="57.41 12.05 57.41 12.61 56.85 12.61 56.29 12.61 56.29 13.17 56.85 13.17 57.41 13.17 57.98 13.17 57.98 12.61 57.98 12.05 57.98 11.49 57.98 10.93 57.41 10.93 57.41 11.49 57.41 12.05"/><rect class="cls-1" x="56.85" y="8.68" width=".56" height="2.25"/><rect class="cls-1" x="54.61" y="5.62" width=".56" height=".26"/><rect class="cls-1" x="55.17" y="5.88" width=".56" height=".56"/><rect class="cls-1" x="55.73" y="6.44" width=".56" height="1.68"/><polygon class="cls-1" points="55.17 8.68 55.17 9.24 55.73 9.24 55.73 8.68 55.73 8.12 55.17 8.12 55.17 8.68"/><rect class="cls-1" x="54.61" y="7.56" width=".56" height=".56"/><polygon class="cls-1" points="54.61 7 54.61 6.44 54.61 5.88 54.05 5.88 54.05 6.44 54.05 7 54.05 7.56 54.61 7.56 54.61 7"/><rect class="cls-1" x="53.49" y="7.56" width=".56" height=".56"/><rect class="cls-1" x="52.93" y="8.12" width=".56" height=".56"/><polygon class="cls-1" points="52.36 9.24 51.8 9.24 51.8 9.8 51.8 10.37 52.36 10.37 52.36 9.8 52.36 9.24"/><polygon class="cls-1" points="52.36 10.37 52.36 10.93 52.93 10.93 53.49 10.93 53.49 10.37 52.93 10.37 52.36 10.37"/><rect class="cls-1" x="53.49" y="12.61" width=".56" height=".56"/><rect class="cls-1" x="54.05" y="12.05" width=".56" height=".56"/><polygon class="cls-1" points="55.17 11.49 55.17 10.93 55.17 10.37 54.61 10.37 54.61 10.93 54.61 11.49 54.61 12.05 55.17 12.05 55.17 11.49"/><polygon class="cls-1" points="54.05 9.8 53.49 9.8 53.49 10.37 54.05 10.37 54.61 10.37 54.61 9.8 54.05 9.8"/><rect class="cls-1" x="52.36" y="8.68" width=".56" height=".56"/><rect class="cls-1" x="54.61" y="9.24" width=".56" height=".56"/><polygon class="cls-1" points="55.17 13.17 54.61 13.17 54.05 13.17 54.05 13.73 54.61 13.73 55.17 13.73 55.73 13.73 56.29 13.73 56.29 13.17 55.73 13.17 55.17 13.17"/></g><rect class="cls-1" x="55.73" y="10.93" width=".56" height="2.81" transform="translate(43.68 68.34) rotate(-90)"/><rect class="cls-1" x="55.73" y="9.8" width=".56" height="1.68" transform="translate(45.37 66.66) rotate(-90)"/><rect class="cls-3" x="54.89" y="6.16" width=".56" height="1.12" transform="translate(48.45 61.89) rotate(-90)"/><rect class="cls-3" x="54.89" y="6.72" width=".56" height="1.12" transform="translate(47.89 62.45) rotate(-90)"/><g><rect class="cls-1" x="54.05" y="12.61" width="2.24" height=".56"/><polygon class="cls-1" points="55.17 12.05 57.41 12.05 57.41 11.49 57.41 10.93 55.17 10.93 55.17 11.49 55.17 12.05"/><rect class="cls-1" x="55.17" y="5.62" width=".04" height=".26"/><polygon class="cls-1" points="56.85 8.84 56.85 10.37 54.61 10.37 54.61 9.8 55.17 9.8 55.17 9.24 55.73 9.24 55.73 8.12 56.29 8.12 56.29 6.69 56.81 6.69 56.81 8.84 56.85 8.84"/></g><polygon class="cls-5" points="54.05 8.12 53.49 8.12 53.49 8.68 52.93 8.68 52.93 9.24 52.36 9.24 52.36 9.8 52.36 10.37 53.49 10.37 53.49 9.8 54.61 9.8 54.61 9.24 55.17 9.24 55.17 8.68 55.17 8.12 54.61 8.12 54.61 7.56 54.05 7.56 54.05 8.12"/><rect class="cls-3" x="55.17" y="7.56" width=".56" height=".56" transform="translate(47.61 63.29) rotate(-90)"/><rect class="cls-3" x="54.61" y="5.88" width=".56" height=".56" transform="translate(48.73 61.05) rotate(-90)"/><polygon class="cls-5" points="54.61 7.56 55.17 7.56 55.17 8.12 55.73 8.12 55.73 6.44 55.17 6.44 55.17 5.88 54.61 5.88 54.61 7.56"/><rect class="cls-5" x="56.57" y="11.77" width="2.24" height=".56" transform="translate(45.65 69.74) rotate(-90)"/><rect class="cls-5" x="56.85" y="10.37" width=".56" height=".56" transform="translate(46.49 67.78) rotate(-90)"/><rect class="cls-5" x="56.85" y="9.8" width=".56" height=".56" transform="translate(47.05 67.22) rotate(-90)"/><rect class="cls-5" x="56.85" y="9.24" width=".56" height=".56" transform="translate(47.61 66.66) rotate(-90)"/><rect class="cls-5" x="56.85" y="8.68" width=".56" height=".56"/><rect class="cls-5" x="54.05" y="9.8" width=".56" height=".56" transform="translate(44.24 64.41) rotate(-90)"/><rect class="cls-5" x="53.49" y="9.8" width=".56" height=".56" transform="translate(43.68 63.85) rotate(-90)"/><rect class="cls-5" x="52.93" y="10.37" width=".56" height=".56" transform="translate(42.56 63.85) rotate(-90)"/><rect class="cls-5" x="52.36" y="10.37" width=".56" height=".56" transform="translate(42 63.29) rotate(-90)"/><rect class="cls-5" x="51.8" y="9.8" width=".56" height=".56" transform="translate(42 62.17) rotate(-90)"/><rect class="cls-5" x="51.8" y="9.24" width=".56" height=".56" transform="translate(42.56 61.61) rotate(-90)"/><rect class="cls-4" x="54.61" y="7.56" width=".56" height=".56" transform="translate(47.05 62.73) rotate(-90)"/><rect class="cls-4" x="55.17" y="8.12" width=".56" height=".56" transform="translate(47.05 63.85) rotate(-90)"/><rect class="cls-4" x="55.73" y="7.56" width=".56" height=".56" transform="translate(48.17 63.85) rotate(-90)"/><rect class="cls-4" x="55.73" y="7" width=".56" height=".56" transform="translate(48.73 63.29) rotate(-90)"/><rect class="cls-4" x="55.73" y="6.44" width=".56" height=".56"/><rect class="cls-4" x="55.17" y="5.88" width=".56" height=".56"/></g></g><g><g><g><polygon class="cls-2" points="74.13 8.84 74.13 10.98 72.52 10.98 72.52 10.44 73.59 10.44 73.59 8.84 74.13 8.84"/><polygon class="cls-2" points="73.08 7 73.08 8.12 73.06 8.12 73.06 8.84 73.05 8.84 73.05 7 73.08 7"/><rect class="cls-2" x="71.45" y="7" width=".54" height=".23"/><rect class="cls-2" x="68.78" y="8.3" width="1.07" height=".54"/><rect class="cls-2" x="69.85" y="10.44" width=".54" height=".54"/><rect class="cls-2" x="70.38" y="9.91" width=".54" height=".54"/><polygon class="cls-2" points="71.45 9.37 71.45 8.84 71.45 8.3 70.92 8.3 70.92 8.84 70.92 9.37 70.92 9.91 71.45 9.91 71.45 9.37"/><rect class="cls-2" x="69.85" y="7.76" width="1.07" height=".54"/><rect class="cls-2" x="70.92" y="7.23" width=".53" height=".53"/><polygon class="cls-2" points="71.45 10.98 70.92 10.98 70.38 10.98 70.38 11.51 70.92 11.51 71.45 11.51 71.99 11.51 72.53 11.51 72.53 10.98 71.99 10.98 71.45 10.98"/></g><rect class="cls-2" x="71.99" y="8.84" width=".54" height="2.68" transform="translate(62.08 82.43) rotate(-90)"/><rect class="cls-2" x="71.45" y="8.3" width="1.61" height=".54"/><g><rect class="cls-2" x="70.38" y="10.44" width="2.14" height=".54"/><rect class="cls-2" x="71.45" y="8.84" width="2.15" height="1.07"/><polygon class="cls-2" points="73.06 7 73.06 8.3 70.92 8.3 70.92 7.76 71.46 7.76 71.46 7.23 71.99 7.23 71.99 7 73.06 7"/></g><rect class="cls-2" x="69.71" y="8.12" width=".13" height=".18"/><rect class="cls-2" x="70.27" y="7.56" width=".64" height=".2"/><rect class="cls-2" x="71.39" y="7" width=".06" height=".23"/><rect class="cls-2" x="73.06" y="8.84" width=".54" height="1.6"/></g><g><g><polygon class="cls-1" points="74.2 12.05 74.2 12.61 73.64 12.61 73.08 12.61 73.08 13.17 73.64 13.17 74.2 13.17 74.76 13.17 74.76 12.61 74.76 12.05 74.76 11.49 74.76 10.93 74.2 10.93 74.2 11.49 74.2 12.05"/><rect class="cls-1" x="73.63" y="8.68" width=".56" height="2.25"/><rect class="cls-1" x="72.52" y="7" width=".56" height="1.12"/><polygon class="cls-1" points="71.95 8.68 71.95 9.24 72.52 9.24 72.52 8.68 72.52 8.12 71.95 8.12 71.95 8.68"/><rect class="cls-1" x="71.39" y="7.56" width=".56" height=".56"/><rect class="cls-1" x="70.91" y="7.23" width=".48" height=".33"/><rect class="cls-1" x="70.27" y="7.56" width=".56" height=".56"/><rect class="cls-1" x="69.71" y="8.12" width=".56" height=".56"/><polygon class="cls-1" points="69.15 9.24 68.59 9.24 68.59 9.8 68.59 10.37 69.15 10.37 69.15 9.8 69.15 9.24"/><polygon class="cls-1" points="69.15 10.37 69.15 10.93 69.71 10.93 70.27 10.93 70.27 10.37 69.71 10.37 69.15 10.37"/><rect class="cls-1" x="70.27" y="12.61" width=".56" height=".56"/><rect class="cls-1" x="70.83" y="12.05" width=".56" height=".56"/><polygon class="cls-1" points="71.95 11.49 71.95 10.93 71.95 10.37 71.39 10.37 71.39 10.93 71.39 11.49 71.39 12.05 71.95 12.05 71.95 11.49"/><polygon class="cls-1" points="70.83 9.8 70.27 9.8 70.27 10.37 70.83 10.37 71.39 10.37 71.39 9.8 70.83 9.8"/><rect class="cls-1" x="69.15" y="8.68" width=".56" height=".56"/><rect class="cls-1" x="71.39" y="9.24" width=".56" height=".56"/><polygon class="cls-1" points="71.95 13.17 71.39 13.17 70.83 13.17 70.83 13.73 71.39 13.73 71.95 13.73 72.52 13.73 73.08 13.73 73.08 13.17 72.52 13.17 71.95 13.17"/></g><rect class="cls-1" x="72.52" y="10.93" width=".56" height="2.81" transform="translate(60.47 85.13) rotate(-90)"/><rect class="cls-1" x="72.52" y="9.8" width=".56" height="1.68" transform="translate(62.15 83.44) rotate(-90)"/><rect class="cls-3" x="71.39" y="7" width="1.13" height=".56"/><g><rect class="cls-1" x="70.83" y="12.61" width="2.24" height=".56"/><polygon class="cls-1" points="71.95 12.05 74.2 12.05 74.2 11.49 74.2 10.93 71.95 10.93 71.95 11.49 71.95 12.05"/><rect class="cls-1" x="73.07" y="7" width=".01" height="1.12"/><polygon class="cls-1" points="73.63 8.84 73.63 10.37 71.39 10.37 71.39 9.8 71.95 9.8 71.95 9.24 72.51 9.24 72.51 8.12 73.06 8.12 73.06 8.84 73.63 8.84"/></g><polygon class="cls-5" points="71.95 8.12 71.95 9.24 71.39 9.24 71.39 9.8 70.27 9.8 70.27 10.37 69.15 10.37 69.15 9.24 69.71 9.24 69.71 8.68 70.27 8.68 70.27 8.12 70.83 8.12 70.83 7.56 71.39 7.56 71.39 8.12 71.95 8.12"/><rect class="cls-3" x="71.95" y="7.56" width=".56" height=".56" transform="translate(64.39 80.07) rotate(-90)"/><polygon class="cls-5" points="72.52 7 72.52 8.12 71.95 8.12 71.95 7.56 71.39 7.56 71.39 7 72.52 7"/><rect class="cls-5" x="73.36" y="11.77" width="2.24" height=".56" transform="translate(62.43 86.53) rotate(-90)"/><rect class="cls-5" x="73.64" y="10.37" width=".56" height=".56" transform="translate(63.27 84.56) rotate(-90)"/><rect class="cls-5" x="73.64" y="9.8" width=".56" height=".56" transform="translate(63.83 84) rotate(-90)"/><rect class="cls-5" x="73.64" y="9.24" width=".56" height=".56" transform="translate(64.39 83.44) rotate(-90)"/><rect class="cls-5" x="73.63" y="8.68" width=".56" height=".56"/><rect class="cls-5" x="70.83" y="9.8" width=".56" height=".56" transform="translate(61.03 81.2) rotate(-90)"/><rect class="cls-5" x="70.27" y="9.8" width=".56" height=".56" transform="translate(60.47 80.64) rotate(-90)"/><rect class="cls-5" x="69.71" y="10.37" width=".56" height=".56" transform="translate(59.34 80.64) rotate(-90)"/><rect class="cls-5" x="69.15" y="10.37" width=".56" height=".56" transform="translate(58.78 80.07) rotate(-90)"/><rect class="cls-5" x="68.59" y="9.8" width=".56" height=".56" transform="translate(58.78 78.95) rotate(-90)"/><rect class="cls-5" x="68.59" y="9.24" width=".56" height=".56" transform="translate(59.34 78.39) rotate(-90)"/><rect class="cls-4" x="71.39" y="7.56" width=".56" height=".56" transform="translate(63.83 79.51) rotate(-90)"/><rect class="cls-4" x="71.95" y="8.12" width=".56" height=".56" transform="translate(63.83 80.64) rotate(-90)"/><rect class="cls-4" x="72.52" y="7.56" width=".56" height=".56"/><rect class="cls-4" x="72.52" y="7" width=".56" height=".56"/></g></g><g><g><g><polygon class="cls-2" points="89.29 9.24 89.29 10.98 87.68 10.98 87.68 10.44 88.75 10.44 88.75 10.37 88.79 10.37 88.79 9.24 89.29 9.24"/><rect class="cls-2" x="85" y="10.44" width=".54" height=".54"/><rect class="cls-2" x="85.53" y="9.91" width=".54" height=".54"/><polygon class="cls-2" points="86.6 9.24 86.6 9.91 86.07 9.91 86.07 9.8 86.54 9.8 86.54 9.24 86.6 9.24"/><polygon class="cls-2" points="86.6 10.98 86.07 10.98 85.53 10.98 85.53 11.51 86.07 11.51 86.6 11.51 87.14 11.51 87.68 11.51 87.68 10.98 87.14 10.98 86.6 10.98"/></g><rect class="cls-2" x="86.07" y="9.91" width="2.68" height=".53"/><g><rect class="cls-2" x="85.53" y="10.44" width="2.14" height=".54"/><rect class="cls-2" x="86.6" y="9.24" width=".51" height=".56"/></g><rect class="cls-2" x="88.21" y="9.91" width=".54" height=".53"/></g><g><g><polygon class="cls-1" points="89.35 12.05 89.35 12.61 88.79 12.61 88.23 12.61 88.23 13.17 88.79 13.17 89.35 13.17 89.91 13.17 89.91 12.61 89.91 12.05 89.91 11.49 89.91 10.93 89.35 10.93 89.35 11.49 89.35 12.05"/><rect class="cls-1" x="88.79" y="9.24" width=".56" height="1.69"/><rect class="cls-1" x="83.74" y="9.8" width=".56" height=".57"/><rect class="cls-1" x="84.3" y="10.37" width="1.12" height=".56"/><rect class="cls-1" x="85.42" y="12.61" width=".56" height=".56"/><rect class="cls-1" x="85.98" y="12.05" width=".56" height=".56"/><polygon class="cls-1" points="87.11 11.49 87.11 10.93 87.11 10.37 86.54 10.37 86.54 10.93 86.54 11.49 86.54 12.05 87.11 12.05 87.11 11.49"/><rect class="cls-1" x="85.42" y="9.8" width="1.12" height=".57"/><rect class="cls-1" x="86.54" y="9.24" width=".57" height=".56"/><polygon class="cls-1" points="87.11 13.17 86.54 13.17 85.98 13.17 85.98 13.73 86.54 13.73 87.11 13.73 87.67 13.73 88.23 13.73 88.23 13.17 87.67 13.17 87.11 13.17"/></g><rect class="cls-1" x="87.67" y="10.93" width=".56" height="2.81" transform="translate(75.62 100.28) rotate(-90)"/><rect class="cls-1" x="87.11" y="10.37" width="1.68" height=".56"/><g><rect class="cls-1" x="85.98" y="12.61" width="2.24" height=".56"/><polygon class="cls-1" points="87.11 12.05 89.35 12.05 89.35 11.49 89.35 10.93 87.11 10.93 87.11 11.49 87.11 12.05"/><rect class="cls-1" x="87.1" y="9.24" width=".01" height=".56"/><polygon class="cls-1" points="88.75 9.91 88.75 10.37 86.54 10.37 86.54 9.8 86.6 9.8 86.6 9.91 88.75 9.91"/></g><rect class="cls-5" x="88.51" y="11.77" width="2.24" height=".56" transform="translate(77.58 101.68) rotate(-90)"/><rect class="cls-5" x="88.79" y="10.37" width=".56" height=".56" transform="translate(78.42 99.72) rotate(-90)"/><rect class="cls-5" x="88.79" y="9.8" width=".56" height=".57"/><rect class="cls-5" x="88.79" y="9.24" width=".56" height=".56"/><rect class="cls-5" x="85.98" y="9.8" width=".56" height=".57"/><rect class="cls-5" x="85.42" y="9.8" width=".56" height=".57"/><rect class="cls-5" x="84.86" y="10.37" width=".56" height=".56"/><rect class="cls-5" x="84.3" y="10.37" width=".56" height=".56"/><rect class="cls-5" x="83.74" y="9.8" width=".56" height=".57"/></g></g><g><g><g><polygon class="cls-2" points="104.92 10.93 104.92 10.98 103.31 10.98 103.31 10.44 104.38 10.44 104.38 10.37 104.42 10.37 104.42 10.93 104.92 10.93"/><rect class="cls-2" x="102.17" y="10.98" width="1.14" height=".53"/></g><rect class="cls-2" x="102.74" y="10.37" width="1.64" height=".07"/><rect class="cls-2" x="102.74" y="10.44" width=".57" height=".54"/><rect class="cls-2" x="103.84" y="10.37" width=".54" height=".07"/></g><g><g><polygon class="cls-1" points="104.98 12.05 104.98 12.61 104.42 12.61 103.86 12.61 103.86 13.17 104.42 13.17 104.98 13.17 105.54 13.17 105.54 12.61 105.54 12.05 105.54 11.49 105.54 10.93 104.98 10.93 104.98 11.49 104.98 12.05"/><rect class="cls-1" x="101.05" y="12.61" width=".56" height=".56"/><rect class="cls-1" x="101.61" y="12.05" width=".56" height=".56"/><rect class="cls-1" x="102.17" y="10.98" width=".57" height="1.07"/><polygon class="cls-1" points="102.74 13.17 102.17 13.17 101.61 13.17 101.61 13.73 102.17 13.73 102.74 13.73 103.3 13.73 103.86 13.73 103.86 13.17 103.3 13.17 102.74 13.17"/></g><rect class="cls-1" x="103.3" y="10.93" width=".56" height="2.81" transform="translate(91.25 115.91) rotate(-90)"/><rect class="cls-1" x="102.74" y="10.37" width="1.68" height=".56"/><g><rect class="cls-1" x="101.61" y="12.61" width="2.24" height=".56"/><rect class="cls-1" x="102.74" y="10.93" width="2.24" height="1.12"/></g><rect class="cls-5" x="104.14" y="11.77" width="2.24" height=".56" transform="translate(93.21 117.31) rotate(-90)"/></g></g><g><g><rect class="cls-2" x="119.81" y="10.37" width=".54" height=".07"/><rect class="cls-2" x="118.71" y="10.44" width=".57" height=".54"/><rect class="cls-2" x="119.81" y="10.37" width=".54" height=".07"/></g><g><g><rect class="cls-1" x="119.83" y="12.61" width="1.12" height=".56"/><rect class="cls-1" x="117.03" y="12.61" width=".56" height=".56"/><rect class="cls-1" x="118.14" y="11.51" width=".57" height=".54"/><polygon class="cls-1" points="118.71 13.17 118.15 13.17 117.59 13.17 117.59 13.73 118.15 13.73 118.71 13.73 119.27 13.73 119.83 13.73 119.83 13.17 119.27 13.17 118.71 13.17"/></g><rect class="cls-1" x="118.15" y="12.05" width="2.8" height=".56"/><rect class="cls-1" x="118.71" y="10.44" width=".57" height=".49"/><rect class="cls-1" x="119.81" y="10.37" width=".54" height=".07"/><g><rect class="cls-1" x="117.59" y="12.61" width="2.24" height=".56"/><rect class="cls-1" x="118.71" y="10.93" width=".57" height=".05"/></g></g></g><g><g><rect class="cls-1" x="136.34" y="12.61" width="1.12" height=".56"/><rect class="cls-1" x="133.54" y="12.61" width=".56" height=".56"/><polygon class="cls-1" points="135.22 13.17 134.66 13.17 134.1 13.17 134.1 13.73 134.66 13.73 135.22 13.73 135.78 13.73 136.34 13.73 136.34 13.17 135.78 13.17 135.22 13.17"/></g><rect class="cls-1" x="134.1" y="12.61" width="2.24" height=".56"/></g><rect class="cls-1" x="150.1" y="13.17" width="2.24" height=".56"/></g></svg>