<?xml version="1.0" encoding="UTF-8"?><svg id="Calque_2" xmlns="http://www.w3.org/2000/svg" viewBox="0 0 64 16"><defs><style>.cls-1{fill:#68ace5;}.cls-2{fill:#007fc6;}.cls-3{fill:#fff;}.cls-4{fill:#224256;}.cls-5{fill:#38749e;}</style></defs><g><g><g><polygon class="cls-2" points="56.9 4.9 56.9 4.36 56.37 4.36 55.83 4.36 55.83 3.83 56.37 3.83 56.9 3.83 57.44 3.83 57.44 4.36 57.44 4.9 57.44 5.44 57.44 5.97 56.9 5.97 56.9 5.44 56.9 4.9"/><polygon class="cls-2" points="56.37 7.58 56.37 7.04 56.37 6.51 56.37 5.97 56.9 5.97 56.9 6.51 56.9 7.04 56.9 7.58 56.9 8.11 56.37 8.11 56.37 7.58"/><rect class="cls-2" x="56.37" y="12.94" width=".54" height=".54"/><polygon class="cls-2" points="55.3 13.47 55.83 13.47 56.37 13.47 56.37 14.01 55.83 14.01 55.3 14.01 55.3 13.47"/><polygon class="cls-2" points="55.3 12.4 55.3 12.94 55.3 13.47 54.76 13.47 54.76 12.94 54.76 12.4 54.76 11.86 55.3 11.86 55.3 12.4"/><polygon class="cls-2" points="54.76 11.33 54.76 11.86 54.22 11.86 54.22 11.33 54.22 10.79 54.76 10.79 54.76 11.33"/><rect class="cls-2" x="54.76" y="10.26" width=".54" height=".54"/><polygon class="cls-2" points="55.3 9.19 55.3 8.65 55.83 8.65 55.83 9.19 55.83 9.72 55.83 10.26 55.3 10.26 55.3 9.72 55.3 9.19"/><polygon class="cls-2" points="54.76 8.11 54.76 7.58 55.3 7.58 55.3 8.11 55.3 8.65 54.76 8.65 54.76 8.11"/><rect class="cls-2" x="54.22" y="8.65" width=".54" height=".54"/><polygon class="cls-2" points="54.22 9.72 54.22 10.26 54.22 10.79 53.69 10.79 53.69 10.26 53.69 9.72 53.69 9.19 54.22 9.19 54.22 9.72"/><rect class="cls-2" x="53.15" y="8.65" width=".54" height=".54"/><rect class="cls-2" x="52.62" y="8.11" width=".54" height=".54"/><polygon class="cls-2" points="52.08 7.58 51.55 7.58 51.55 7.04 51.55 6.51 52.08 6.51 52.08 7.04 52.08 7.58"/><polygon class="cls-2" points="52.08 6.51 52.08 5.97 52.62 5.97 53.15 5.97 53.15 6.51 52.62 6.51 52.08 6.51"/><rect class="cls-2" x="53.15" y="3.83" width=".54" height=".54"/><rect class="cls-2" x="53.69" y="4.36" width=".54" height=".54"/><polygon class="cls-2" points="54.76 5.44 54.76 5.97 54.76 6.51 54.22 6.51 54.22 5.97 54.22 5.44 54.22 4.9 54.76 4.9 54.76 5.44"/><polygon class="cls-2" points="53.69 7.04 53.15 7.04 53.15 6.51 53.69 6.51 54.22 6.51 54.22 7.04 53.69 7.04"/><rect class="cls-2" x="52.08" y="7.58" width=".54" height=".54"/><rect class="cls-2" x="54.22" y="7.04" width=".54" height=".54"/><polygon class="cls-2" points="56.9 8.65 56.9 8.11 57.44 8.11 57.44 8.65 57.44 9.19 57.44 12.94 56.9 12.94 56.9 9.19 56.9 8.65"/><polygon class="cls-2" points="54.76 3.83 54.22 3.83 53.69 3.83 53.69 3.29 54.22 3.29 54.76 3.29 55.3 3.29 55.83 3.29 55.83 3.83 55.3 3.83 54.76 3.83"/></g><rect class="cls-2" x="55.3" y="3.29" width=".54" height="2.68" transform="translate(60.2 -50.93) rotate(90)"/><rect class="cls-2" x="55.3" y="5.44" width=".54" height="1.61" transform="translate(61.8 -49.32) rotate(90)"/><rect class="cls-2" x="54.49" y="9.45" width=".54" height="1.07" transform="translate(64.75 -44.77) rotate(90)"/><rect class="cls-2" x="54.49" y="8.92" width=".54" height="1.07" transform="translate(64.21 -45.31) rotate(90)"/><g><rect class="cls-2" x="53.69" y="3.83" width="2.14" height=".54"/><polygon class="cls-2" points="54.76 4.9 56.9 4.9 56.9 5.44 56.9 5.97 54.76 5.97 54.76 5.44 54.76 4.9"/><polygon class="cls-2" points="55.3 12.94 55.3 12.4 55.3 11.86 54.76 11.86 54.76 11.33 54.76 10.79 55.3 10.79 55.3 10.26 55.83 10.26 55.83 9.72 55.83 9.19 55.83 8.65 55.3 8.65 55.3 8.11 55.3 7.58 54.76 7.58 54.76 7.04 54.22 7.04 54.22 6.51 56.37 6.51 56.37 7.04 56.37 7.58 56.37 8.11 56.9 8.11 56.9 8.65 56.9 9.19 56.9 9.72 56.9 10.26 56.9 10.79 56.9 11.33 56.9 11.86 56.9 12.4 56.9 12.94 56.37 12.94 56.37 13.47 55.3 13.47 55.3 12.94"/></g><polygon class="cls-2" points="53.69 8.65 53.15 8.65 53.15 8.11 52.62 8.11 52.62 7.58 52.08 7.58 52.08 7.04 52.08 6.51 53.15 6.51 53.15 7.04 54.22 7.04 54.22 7.58 54.76 7.58 54.76 8.11 54.76 8.65 54.22 8.65 54.22 9.19 53.69 9.19 53.69 8.65"/><rect class="cls-2" x="54.76" y="8.65" width=".54" height=".54" transform="translate(63.95 -46.11) rotate(90)"/><rect class="cls-2" x="54.22" y="10.26" width=".54" height=".54" transform="translate(65.02 -43.97) rotate(90)"/><polygon class="cls-2" points="54.22 9.19 54.76 9.19 54.76 8.65 55.3 8.65 55.3 10.26 54.76 10.26 54.76 10.79 54.22 10.79 54.22 9.19"/><rect class="cls-2" x="55.83" y="4.9" width="1.61" height=".54" transform="translate(61.8 -51.47) rotate(90)"/><rect class="cls-2" x="54.22" y="10.26" width="4.82" height=".54" transform="translate(67.16 -46.11) rotate(90)"/></g><g><g><polygon class="cls-1" points="57.51 2.76 57.51 2.2 56.94 2.2 56.38 2.2 56.38 1.64 56.94 1.64 57.51 1.64 58.07 1.64 58.07 2.2 58.07 2.76 58.07 3.32 58.07 3.88 57.51 3.88 57.51 3.32 57.51 2.76"/><polygon class="cls-1" points="56.94 5.56 56.94 5 56.94 4.44 56.94 3.88 57.51 3.88 57.51 4.44 57.51 5 57.51 5.56 57.51 6.13 56.94 6.13 56.94 5.56"/><rect class="cls-1" x="56.94" y="11.18" width=".56" height=".56"/><polygon class="cls-1" points="55.82 11.74 56.38 11.74 56.94 11.74 56.94 12.3 56.38 12.3 55.82 12.3 55.82 11.74"/><polygon class="cls-1" points="55.82 10.61 55.82 11.18 55.82 11.74 55.26 11.74 55.26 11.18 55.26 10.61 55.26 10.05 55.82 10.05 55.82 10.61"/><polygon class="cls-1" points="55.26 9.49 55.26 10.05 54.7 10.05 54.7 9.49 54.7 8.93 55.26 8.93 55.26 9.49"/><rect class="cls-1" x="55.26" y="8.37" width=".56" height=".56"/><polygon class="cls-1" points="55.82 7.25 55.82 6.69 56.38 6.69 56.38 7.25 56.38 7.81 56.38 8.37 55.82 8.37 55.82 7.81 55.82 7.25"/><polygon class="cls-1" points="55.26 6.13 55.26 5.56 55.82 5.56 55.82 6.13 55.82 6.69 55.26 6.69 55.26 6.13"/><rect class="cls-1" x="54.7" y="6.69" width=".56" height=".56"/><polygon class="cls-1" points="54.7 7.81 54.7 8.37 54.7 8.93 54.14 8.93 54.14 8.37 54.14 7.81 54.14 7.25 54.7 7.25 54.7 7.81"/><rect class="cls-1" x="53.58" y="6.69" width=".56" height=".56"/><rect class="cls-1" x="53.02" y="6.13" width=".56" height=".56"/><polygon class="cls-1" points="52.45 5.56 51.89 5.56 51.89 5 51.89 4.44 52.45 4.44 52.45 5 52.45 5.56"/><polygon class="cls-1" points="52.45 4.44 52.45 3.88 53.02 3.88 53.58 3.88 53.58 4.44 53.02 4.44 52.45 4.44"/><rect class="cls-1" x="53.58" y="1.64" width=".56" height=".56"/><rect class="cls-1" x="54.14" y="2.2" width=".56" height=".56"/><polygon class="cls-1" points="55.26 3.32 55.26 3.88 55.26 4.44 54.7 4.44 54.7 3.88 54.7 3.32 54.7 2.76 55.26 2.76 55.26 3.32"/><polygon class="cls-1" points="54.14 5 53.58 5 53.58 4.44 54.14 4.44 54.7 4.44 54.7 5 54.14 5"/><rect class="cls-1" x="52.45" y="5.56" width=".56" height=".56"/><rect class="cls-1" x="54.7" y="5" width=".56" height=".56"/><polygon class="cls-1" points="57.51 6.69 57.51 6.13 58.07 6.13 58.07 6.69 58.07 7.25 58.07 11.18 57.51 11.18 57.51 7.25 57.51 6.69"/><polygon class="cls-1" points="55.26 1.64 54.7 1.64 54.14 1.64 54.14 1.07 54.7 1.07 55.26 1.07 55.82 1.07 56.38 1.07 56.38 1.64 55.82 1.64 55.26 1.64"/></g><rect class="cls-1" x="55.82" y="1.07" width=".56" height="2.81" transform="translate(58.58 -53.63) rotate(90)"/><rect class="cls-1" x="55.82" y="3.32" width=".56" height="1.68" transform="translate(60.26 -51.94) rotate(90)"/><rect class="cls-3" x="54.98" y="7.53" width=".56" height="1.12" transform="translate(63.35 -47.17) rotate(90)"/><rect class="cls-3" x="54.98" y="6.97" width=".56" height="1.12" transform="translate(62.79 -47.73) rotate(90)"/><g><rect class="cls-1" x="54.14" y="1.64" width="2.24" height=".56"/><polygon class="cls-1" points="55.26 2.76 57.51 2.76 57.51 3.32 57.51 3.88 55.26 3.88 55.26 3.32 55.26 2.76"/><polygon class="cls-1" points="55.82 11.18 55.82 10.61 55.82 10.05 55.26 10.05 55.26 9.49 55.26 8.93 55.82 8.93 55.82 8.37 56.38 8.37 56.38 7.81 56.38 7.25 56.38 6.69 55.82 6.69 55.82 6.13 55.82 5.56 55.26 5.56 55.26 5 54.7 5 54.7 4.44 56.94 4.44 56.94 5 56.94 5.56 56.94 6.13 57.51 6.13 57.51 6.69 57.51 7.25 57.51 7.81 57.51 8.37 57.51 8.93 57.51 9.49 57.51 10.05 57.51 10.61 57.51 11.18 56.94 11.18 56.94 11.74 55.82 11.74 55.82 11.18"/></g><polygon class="cls-5" points="54.14 6.69 53.58 6.69 53.58 6.13 53.02 6.13 53.02 5.56 52.45 5.56 52.45 5 52.45 4.44 53.58 4.44 53.58 5 54.7 5 54.7 5.56 55.26 5.56 55.26 6.13 55.26 6.69 54.7 6.69 54.7 7.25 54.14 7.25 54.14 6.69"/><rect class="cls-3" x="55.26" y="6.69" width=".56" height=".56" transform="translate(62.51 -48.57) rotate(90)"/><rect class="cls-3" x="54.7" y="8.37" width=".56" height=".56" transform="translate(63.63 -46.33) rotate(90)"/><polygon class="cls-5" points="54.7 7.25 55.26 7.25 55.26 6.69 55.82 6.69 55.82 8.37 55.26 8.37 55.26 8.93 54.7 8.93 54.7 7.25"/><rect class="cls-5" x="56.66" y="2.48" width="2.24" height=".56" transform="translate(60.54 -55.03) rotate(90)"/><rect class="cls-5" x="55.26" y="8.37" width="5.05" height=".56" transform="translate(66.44 -49.14) rotate(90)"/><rect class="cls-5" x="56.94" y="3.88" width=".56" height=".56" transform="translate(61.39 -53.06) rotate(90)"/><rect class="cls-5" x="56.94" y="4.44" width=".56" height=".56" transform="translate(61.95 -52.5) rotate(90)"/><rect class="cls-5" x="56.94" y="5" width=".56" height=".56" transform="translate(62.51 -51.94) rotate(90)"/><rect class="cls-5" x="56.94" y="5.56" width=".56" height=".56" transform="translate(63.07 -51.38) rotate(90)"/><rect class="cls-5" x="54.14" y="4.44" width=".56" height=".56" transform="translate(59.14 -49.7) rotate(90)"/><rect class="cls-5" x="53.58" y="4.44" width=".56" height=".56" transform="translate(58.58 -49.14) rotate(90)"/><rect class="cls-5" x="53.02" y="3.88" width=".56" height=".56" transform="translate(57.46 -49.14) rotate(90)"/><rect class="cls-5" x="52.45" y="3.88" width=".56" height=".56" transform="translate(56.9 -48.57) rotate(90)"/><rect class="cls-5" x="51.89" y="4.44" width=".56" height=".56" transform="translate(56.9 -47.45) rotate(90)"/><rect class="cls-5" x="51.89" y="5" width=".56" height=".56" transform="translate(57.46 -46.89) rotate(90)"/><rect class="cls-4" x="54.7" y="6.69" width=".56" height=".56" transform="translate(61.95 -48.01) rotate(90)"/><rect class="cls-4" x="55.26" y="6.13" width=".56" height=".56" transform="translate(61.95 -49.14) rotate(90)"/><rect class="cls-4" x="55.82" y="6.69" width=".56" height=".56" transform="translate(63.07 -49.14) rotate(90)"/><rect class="cls-4" x="55.82" y="7.25" width=".56" height=".56" transform="translate(63.63 -48.57) rotate(90)"/><rect class="cls-4" x="55.82" y="7.81" width=".56" height=".56" transform="translate(64.19 -48.01) rotate(90)"/><rect class="cls-4" x="55.26" y="8.37" width=".56" height=".56" transform="translate(64.19 -46.89) rotate(90)"/></g></g><g><g><g><polygon class="cls-2" points="25.22 4.86 25.22 4.32 24.68 4.32 24.15 4.32 24.15 3.79 24.68 3.79 25.22 3.79 25.75 3.79 25.75 4.32 25.75 4.86 25.75 5.4 25.75 5.93 25.22 5.93 25.22 5.4 25.22 4.86"/><polygon class="cls-2" points="24.68 7.54 24.68 7 24.68 6.47 24.68 5.93 25.22 5.93 25.22 6.47 25.22 7 25.22 7.54 25.22 8.07 24.68 8.07 24.68 7.54"/><rect class="cls-2" x="24.68" y="12.9" width=".54" height=".54"/><polygon class="cls-2" points="23.61 13.43 24.15 13.43 24.68 13.43 24.68 13.97 24.15 13.97 23.61 13.97 23.61 13.43"/><polygon class="cls-2" points="23.61 12.36 23.61 12.9 23.61 13.43 23.07 13.43 23.07 12.9 23.07 12.36 23.07 11.82 23.61 11.82 23.61 12.36"/><polygon class="cls-2" points="23.07 11.29 23.07 11.82 22.54 11.82 22.54 11.29 22.54 10.75 23.07 10.75 23.07 11.29"/><rect class="cls-2" x="23.07" y="10.22" width=".54" height=".54"/><polygon class="cls-2" points="23.61 9.15 23.61 8.61 24.15 8.61 24.15 9.15 24.15 9.68 24.15 10.22 23.61 10.22 23.61 9.68 23.61 9.15"/><polygon class="cls-2" points="23.07 8.07 23.07 7.54 23.61 7.54 23.61 8.07 23.61 8.61 23.07 8.61 23.07 8.07"/><rect class="cls-2" x="22.54" y="8.61" width=".54" height=".54"/><polygon class="cls-2" points="22.54 9.68 22.54 10.22 22.54 10.75 22 10.75 22 10.22 22 9.68 22 9.15 22.54 9.15 22.54 9.68"/><rect class="cls-2" x="21.47" y="8.61" width=".54" height=".54"/><rect class="cls-2" x="20.93" y="8.07" width=".54" height=".54"/><polygon class="cls-2" points="20.4 7.54 19.86 7.54 19.86 7 19.86 6.47 20.4 6.47 20.4 7 20.4 7.54"/><polygon class="cls-2" points="20.4 6.47 20.4 5.93 20.93 5.93 21.47 5.93 21.47 6.47 20.93 6.47 20.4 6.47"/><rect class="cls-2" x="21.47" y="3.79" width=".54" height=".54"/><rect class="cls-2" x="22" y="4.32" width=".54" height=".54"/><polygon class="cls-2" points="23.07 5.4 23.07 5.93 23.07 6.47 22.54 6.47 22.54 5.93 22.54 5.4 22.54 4.86 23.07 4.86 23.07 5.4"/><polygon class="cls-2" points="22 7 21.47 7 21.47 6.47 22 6.47 22.54 6.47 22.54 7 22 7"/><rect class="cls-2" x="20.4" y="7.54" width=".54" height=".54"/><rect class="cls-2" x="22.54" y="7" width=".54" height=".54"/><polygon class="cls-2" points="25.22 8.61 25.22 8.07 25.75 8.07 25.75 8.61 25.75 9.15 25.75 12.9 25.22 12.9 25.22 9.15 25.22 8.61"/><polygon class="cls-2" points="23.07 3.79 22.54 3.79 22 3.79 22 3.25 22.54 3.25 23.07 3.25 23.61 3.25 24.15 3.25 24.15 3.79 23.61 3.79 23.07 3.79"/></g><rect class="cls-2" x="23.61" y="3.25" width=".54" height="2.68" transform="translate(28.47 -19.29) rotate(90)"/><rect class="cls-2" x="23.61" y="5.4" width=".54" height="1.61" transform="translate(30.08 -17.68) rotate(90)"/><rect class="cls-2" x="22.81" y="9.41" width=".54" height="1.07" transform="translate(33.02 -13.13) rotate(90)"/><rect class="cls-2" x="22.81" y="8.88" width=".54" height="1.07" transform="translate(32.49 -13.66) rotate(90)"/><g><rect class="cls-2" x="22" y="3.79" width="2.14" height=".54"/><polygon class="cls-2" points="23.07 4.86 25.22 4.86 25.22 5.4 25.22 5.93 23.07 5.93 23.07 5.4 23.07 4.86"/><polygon class="cls-2" points="23.61 12.9 23.61 12.36 23.61 11.82 23.07 11.82 23.07 11.29 23.07 10.75 23.61 10.75 23.61 10.22 24.15 10.22 24.15 9.68 24.15 9.15 24.15 8.61 23.61 8.61 23.61 8.07 23.61 7.54 23.07 7.54 23.07 7 22.54 7 22.54 6.47 24.68 6.47 24.68 7 24.68 7.54 24.68 8.07 25.22 8.07 25.22 8.61 25.22 9.15 25.22 9.68 25.22 10.22 25.22 10.75 25.22 11.29 25.22 11.82 25.22 12.36 25.22 12.9 24.68 12.9 24.68 13.43 23.61 13.43 23.61 12.9"/></g><polygon class="cls-2" points="22 8.61 21.47 8.61 21.47 8.07 20.93 8.07 20.93 7.54 20.4 7.54 20.4 7 20.4 6.47 21.47 6.47 21.47 7 22.54 7 22.54 7.54 23.07 7.54 23.07 8.07 23.07 8.61 22.54 8.61 22.54 9.15 22 9.15 22 8.61"/><rect class="cls-2" x="23.07" y="8.61" width=".54" height=".54" transform="translate(32.22 -14.46) rotate(90)"/><rect class="cls-2" x="22.54" y="10.22" width=".54" height=".54" transform="translate(33.29 -12.32) rotate(90)"/><polygon class="cls-2" points="22.54 9.15 23.07 9.15 23.07 8.61 23.61 8.61 23.61 10.22 23.07 10.22 23.07 10.75 22.54 10.75 22.54 9.15"/><rect class="cls-2" x="24.15" y="4.86" width="1.61" height=".54" transform="translate(30.08 -19.82) rotate(90)"/><rect class="cls-2" x="22.54" y="10.22" width="4.82" height=".54" transform="translate(35.43 -14.46) rotate(90)"/></g><g><g><polygon class="cls-1" points="25.82 2.72 25.82 2.16 25.26 2.16 24.7 2.16 24.7 1.59 25.26 1.59 25.82 1.59 26.38 1.59 26.38 2.16 26.38 2.72 26.38 3.28 26.38 3.84 25.82 3.84 25.82 3.28 25.82 2.72"/><polygon class="cls-1" points="25.26 5.52 25.26 4.96 25.26 4.4 25.26 3.84 25.82 3.84 25.82 4.4 25.82 4.96 25.82 5.52 25.82 6.08 25.26 6.08 25.26 5.52"/><rect class="cls-1" x="25.26" y="11.14" width=".56" height=".56"/><polygon class="cls-1" points="24.14 11.7 24.7 11.7 25.26 11.7 25.26 12.26 24.7 12.26 24.14 12.26 24.14 11.7"/><polygon class="cls-1" points="24.14 10.57 24.14 11.14 24.14 11.7 23.57 11.7 23.57 11.14 23.57 10.57 23.57 10.01 24.14 10.01 24.14 10.57"/><polygon class="cls-1" points="23.57 9.45 23.57 10.01 23.01 10.01 23.01 9.45 23.01 8.89 23.57 8.89 23.57 9.45"/><rect class="cls-1" x="23.57" y="8.33" width=".56" height=".56"/><polygon class="cls-1" points="24.14 7.21 24.14 6.65 24.7 6.65 24.7 7.21 24.7 7.77 24.7 8.33 24.14 8.33 24.14 7.77 24.14 7.21"/><polygon class="cls-1" points="23.57 6.08 23.57 5.52 24.14 5.52 24.14 6.08 24.14 6.65 23.57 6.65 23.57 6.08"/><rect class="cls-1" x="23.01" y="6.65" width=".56" height=".56"/><polygon class="cls-1" points="23.01 7.77 23.01 8.33 23.01 8.89 22.45 8.89 22.45 8.33 22.45 7.77 22.45 7.21 23.01 7.21 23.01 7.77"/><rect class="cls-1" x="21.89" y="6.65" width=".56" height=".56"/><rect class="cls-1" x="21.33" y="6.08" width=".56" height=".56"/><polygon class="cls-1" points="20.77 5.52 20.21 5.52 20.21 4.96 20.21 4.4 20.77 4.4 20.77 4.96 20.77 5.52"/><polygon class="cls-1" points="20.77 4.4 20.77 3.84 21.33 3.84 21.89 3.84 21.89 4.4 21.33 4.4 20.77 4.4"/><rect class="cls-1" x="21.89" y="1.59" width=".56" height=".56"/><rect class="cls-1" x="22.45" y="2.16" width=".56" height=".56"/><polygon class="cls-1" points="23.57 3.28 23.57 3.84 23.57 4.4 23.01 4.4 23.01 3.84 23.01 3.28 23.01 2.72 23.57 2.72 23.57 3.28"/><polygon class="cls-1" points="22.45 4.96 21.89 4.96 21.89 4.4 22.45 4.4 23.01 4.4 23.01 4.96 22.45 4.96"/><rect class="cls-1" x="20.77" y="5.52" width=".56" height=".56"/><rect class="cls-1" x="23.01" y="4.96" width=".56" height=".56"/><polygon class="cls-1" points="25.82 6.65 25.82 6.08 26.38 6.08 26.38 6.65 26.38 7.21 26.38 11.14 25.82 11.14 25.82 7.21 25.82 6.65"/><polygon class="cls-1" points="23.57 1.59 23.01 1.59 22.45 1.59 22.45 1.03 23.01 1.03 23.57 1.03 24.14 1.03 24.7 1.03 24.7 1.59 24.14 1.59 23.57 1.59"/></g><rect class="cls-1" x="24.14" y="1.03" width=".56" height="2.81" transform="translate(26.85 -21.98) rotate(90)"/><rect class="cls-1" x="24.14" y="3.28" width=".56" height="1.68" transform="translate(28.54 -20.3) rotate(90)"/><rect class="cls-3" x="23.29" y="7.49" width=".56" height="1.12" transform="translate(31.62 -15.53) rotate(90)"/><rect class="cls-3" x="23.29" y="6.93" width=".56" height="1.12" transform="translate(31.06 -16.09) rotate(90)"/><g><rect class="cls-1" x="22.45" y="1.59" width="2.24" height=".56"/><polygon class="cls-1" points="23.57 2.72 25.82 2.72 25.82 3.28 25.82 3.84 23.57 3.84 23.57 3.28 23.57 2.72"/><polygon class="cls-1" points="24.14 11.14 24.14 10.57 24.14 10.01 23.57 10.01 23.57 9.45 23.57 8.89 24.14 8.89 24.14 8.33 24.7 8.33 24.7 7.77 24.7 7.21 24.7 6.65 24.14 6.65 24.14 6.08 24.14 5.52 23.57 5.52 23.57 4.96 23.01 4.96 23.01 4.4 25.26 4.4 25.26 4.96 25.26 5.52 25.26 6.08 25.82 6.08 25.82 6.65 25.82 7.21 25.82 7.77 25.82 8.33 25.82 8.89 25.82 9.45 25.82 10.01 25.82 10.57 25.82 11.14 25.26 11.14 25.26 11.7 24.14 11.7 24.14 11.14"/></g><polygon class="cls-5" points="22.45 6.65 21.89 6.65 21.89 6.08 21.33 6.08 21.33 5.52 20.77 5.52 20.77 4.96 20.77 4.4 21.89 4.4 21.89 4.96 23.01 4.96 23.01 5.52 23.57 5.52 23.57 6.08 23.57 6.65 23.01 6.65 23.01 7.21 22.45 7.21 22.45 6.65"/><rect class="cls-3" x="23.57" y="6.65" width=".56" height=".56" transform="translate(30.78 -16.93) rotate(90)"/><rect class="cls-3" x="23.01" y="8.33" width=".56" height=".56" transform="translate(31.9 -14.68) rotate(90)"/><polygon class="cls-5" points="23.01 7.21 23.57 7.21 23.57 6.65 24.14 6.65 24.14 8.33 23.57 8.33 23.57 8.89 23.01 8.89 23.01 7.21"/><rect class="cls-5" x="24.98" y="2.44" width="2.24" height=".56" transform="translate(28.82 -23.38) rotate(90)"/><rect class="cls-5" x="23.57" y="8.33" width="5.05" height=".56" transform="translate(34.71 -17.49) rotate(90)"/><rect class="cls-5" x="25.26" y="3.84" width=".56" height=".56" transform="translate(29.66 -21.42) rotate(90)"/><rect class="cls-5" x="25.26" y="4.4" width=".56" height=".56" transform="translate(30.22 -20.86) rotate(90)"/><rect class="cls-5" x="25.26" y="4.96" width=".56" height=".56" transform="translate(30.78 -20.3) rotate(90)"/><rect class="cls-5" x="25.26" y="5.52" width=".56" height=".56" transform="translate(31.34 -19.73) rotate(90)"/><rect class="cls-5" x="22.45" y="4.4" width=".56" height=".56" transform="translate(27.41 -18.05) rotate(90)"/><rect class="cls-5" x="21.89" y="4.4" width=".56" height=".56" transform="translate(26.85 -17.49) rotate(90)"/><rect class="cls-5" x="21.33" y="3.84" width=".56" height=".56" transform="translate(25.73 -17.49) rotate(90)"/><rect class="cls-5" x="20.77" y="3.84" width=".56" height=".56" transform="translate(25.17 -16.93) rotate(90)"/><rect class="cls-5" x="20.21" y="4.4" width=".56" height=".56" transform="translate(25.17 -15.81) rotate(90)"/><rect class="cls-5" x="20.21" y="4.96" width=".56" height=".56" transform="translate(25.73 -15.25) rotate(90)"/><rect class="cls-4" x="23.01" y="6.65" width=".56" height=".56" transform="translate(30.22 -16.37) rotate(90)"/><rect class="cls-4" x="23.57" y="6.08" width=".56" height=".56" transform="translate(30.22 -17.49) rotate(90)"/><rect class="cls-4" x="24.14" y="6.65" width=".56" height=".56" transform="translate(31.34 -17.49) rotate(90)"/><rect class="cls-4" x="24.14" y="7.21" width=".56" height=".56" transform="translate(31.9 -16.93) rotate(90)"/><rect class="cls-4" x="24.14" y="7.77" width=".56" height=".56" transform="translate(32.46 -16.37) rotate(90)"/><rect class="cls-4" x="23.57" y="8.33" width=".56" height=".56" transform="translate(32.46 -15.25) rotate(90)"/></g></g><g><g><rect class="cls-2" x="40.46" y=".81" width=".56" height="2.8" transform="translate(42.95 -38.53) rotate(90)"/><rect class="cls-2" x="40.46" y="1.37" width=".56" height="2.8" transform="translate(43.51 -37.97) rotate(90)"/><rect class="cls-2" x="40.46" y="1.93" width=".56" height="2.8" transform="translate(44.07 -37.41) rotate(90)"/><rect class="cls-2" x="40.74" y="2.21" width=".56" height="3.36" transform="translate(44.91 -37.13) rotate(90)"/><rect class="cls-2" x="39.06" y="1.09" width=".56" height="6.72" transform="translate(43.79 -34.89) rotate(90)"/><rect class="cls-2" x="39.06" y="1.65" width=".56" height="6.72" transform="translate(44.35 -34.33) rotate(90)"/><rect class="cls-2" x="39.34" y="2.49" width=".56" height="6.16" transform="translate(45.19 -34.05) rotate(90)"/><rect class="cls-2" x="38.78" y="3.61" width=".56" height="5.04" transform="translate(45.19 -32.93) rotate(90)"/><rect class="cls-2" x="38.5" y="4.45" width=".56" height="4.48" transform="translate(45.47 -32.09) rotate(90)"/><rect class="cls-2" x="37.38" y="5.01" width=".56" height="4.48" transform="translate(44.91 -30.41) rotate(90)"/><rect class="cls-2" x="37.38" y="5.57" width=".56" height="4.48" transform="translate(45.47 -29.85) rotate(90)"/><rect class="cls-2" x="37.38" y="6.13" width=".56" height="4.48" transform="translate(46.03 -29.29) rotate(90)"/><rect class="cls-2" x="37.38" y="6.69" width=".56" height="4.48" transform="translate(46.59 -28.73) rotate(90)"/><rect class="cls-2" x="37.1" y="7.53" width=".56" height="3.92" transform="translate(46.87 -27.89) rotate(90)"/><rect class="cls-2" x="36.82" y="8.37" width=".56" height="3.36" transform="translate(47.15 -27.05) rotate(90)"/><rect class="cls-2" x="36.26" y="8.93" width=".56" height="3.36" transform="translate(47.15 -25.93) rotate(90)"/><rect class="cls-2" x="35.7" y="9.49" width=".56" height="3.36" transform="translate(47.15 -24.81) rotate(90)"/><rect class="cls-2" x="35.42" y="10.33" width=".56" height="2.8" transform="translate(47.43 -23.97) rotate(90)"/><rect class="cls-2" x="35.42" y="11.45" width=".56" height="1.68" transform="translate(47.99 -23.41) rotate(90)"/><rect class="cls-2" x="40.18" y=".53" width=".56" height="2.24" transform="translate(42.11 -38.81) rotate(90)"/><rect class="cls-2" x="36.82" y="2.77" width=".56" height="2.24" transform="translate(40.99 -33.21) rotate(90)"/><rect class="cls-2" x="36.82" y="2.21" width=".56" height="2.24" transform="translate(40.43 -33.77) rotate(90)"/><rect class="cls-2" x="36.82" y="2.21" width=".56" height="1.12" transform="translate(39.87 -34.33) rotate(90)"/></g><g><g><polygon class="cls-1" points="42.15 2.48 42.15 1.92 41.59 1.92 41.02 1.92 41.02 1.36 41.59 1.36 42.15 1.36 42.71 1.36 42.71 1.92 42.71 2.48 42.71 3.04 42.71 3.61 42.15 3.61 42.15 3.04 42.15 2.48"/><polygon class="cls-1" points="41.59 5.29 41.59 4.73 41.59 4.17 41.59 3.61 42.15 3.61 42.15 4.17 42.15 4.73 42.15 5.29 42.15 5.85 41.59 5.85 41.59 5.29"/><rect class="cls-1" x="41.59" y="10.9" width=".56" height=".56"/><polygon class="cls-1" points="40.46 11.46 41.02 11.46 41.59 11.46 41.59 12.02 41.02 12.02 40.46 12.02 40.46 11.46"/><polygon class="cls-1" points="40.46 10.34 40.46 10.9 40.46 11.46 39.9 11.46 39.9 10.9 39.9 10.34 39.9 9.78 40.46 9.78 40.46 10.34"/><polygon class="cls-1" points="39.9 9.22 39.9 9.78 39.34 9.78 39.34 9.22 39.34 8.66 39.9 8.66 39.9 9.22"/><rect class="cls-1" x="39.9" y="8.1" width=".56" height=".56"/><polygon class="cls-1" points="40.46 6.97 40.46 6.41 41.02 6.41 41.02 6.97 41.02 7.53 41.02 8.1 40.46 8.1 40.46 7.53 40.46 6.97"/><polygon class="cls-1" points="39.9 5.85 39.9 5.29 40.46 5.29 40.46 5.85 40.46 6.41 39.9 6.41 39.9 5.85"/><rect class="cls-1" x="39.34" y="6.41" width=".56" height=".56"/><polygon class="cls-1" points="39.34 7.53 39.34 8.1 39.34 8.66 38.78 8.66 38.78 8.1 38.78 7.53 38.78 6.97 39.34 6.97 39.34 7.53"/><rect class="cls-1" x="38.22" y="6.41" width=".56" height=".56"/><rect class="cls-1" x="37.66" y="5.85" width=".56" height=".56"/><polygon class="cls-1" points="37.1 5.29 36.54 5.29 36.54 4.73 36.54 4.17 37.1 4.17 37.1 4.73 37.1 5.29"/><polygon class="cls-1" points="37.1 4.17 37.1 3.61 37.66 3.61 38.22 3.61 38.22 4.17 37.66 4.17 37.1 4.17"/><rect class="cls-1" x="38.22" y="1.36" width=".56" height=".56"/><rect class="cls-1" x="38.78" y="1.92" width=".56" height=".56"/><polygon class="cls-1" points="39.9 3.04 39.9 3.61 39.9 4.17 39.34 4.17 39.34 3.61 39.34 3.04 39.34 2.48 39.9 2.48 39.9 3.04"/><polygon class="cls-1" points="38.78 4.73 38.22 4.73 38.22 4.17 38.78 4.17 39.34 4.17 39.34 4.73 38.78 4.73"/><rect class="cls-1" x="37.1" y="5.29" width=".56" height=".56"/><rect class="cls-1" x="39.34" y="4.73" width=".56" height=".56"/><polygon class="cls-1" points="42.15 6.41 42.15 5.85 42.71 5.85 42.71 6.41 42.71 6.97 42.71 10.9 42.15 10.9 42.15 6.97 42.15 6.41"/><polygon class="cls-1" points="39.9 1.36 39.34 1.36 38.78 1.36 38.78 .8 39.34 .8 39.9 .8 40.46 .8 41.02 .8 41.02 1.36 40.46 1.36 39.9 1.36"/></g><rect class="cls-1" x="40.46" y=".8" width=".56" height="2.81" transform="translate(42.95 -38.54) rotate(90)"/><rect class="cls-1" x="40.46" y="3.04" width=".56" height="1.68" transform="translate(44.63 -36.86) rotate(90)"/><rect class="cls-3" x="39.62" y="7.25" width=".56" height="1.12" transform="translate(47.72 -32.09) rotate(90)"/><rect class="cls-3" x="39.62" y="6.69" width=".56" height="1.12" transform="translate(47.16 -32.65) rotate(90)"/><g><rect class="cls-1" x="38.78" y="1.36" width="2.24" height=".56"/><polygon class="cls-1" points="39.9 2.48 42.15 2.48 42.15 3.04 42.15 3.61 39.9 3.61 39.9 3.04 39.9 2.48"/><polygon class="cls-1" points="40.46 10.9 40.46 10.34 40.46 9.78 39.9 9.78 39.9 9.22 39.9 8.66 40.46 8.66 40.46 8.1 41.02 8.1 41.02 7.53 41.02 6.97 41.02 6.41 40.46 6.41 40.46 5.85 40.46 5.29 39.9 5.29 39.9 4.73 39.34 4.73 39.34 4.17 41.59 4.17 41.59 4.73 41.59 5.29 41.59 5.85 42.15 5.85 42.15 6.41 42.15 6.97 42.15 7.53 42.15 8.1 42.15 8.66 42.15 9.22 42.15 9.78 42.15 10.34 42.15 10.9 41.59 10.9 41.59 11.46 40.46 11.46 40.46 10.9"/></g><polygon class="cls-5" points="38.78 6.41 38.22 6.41 38.22 5.85 37.66 5.85 37.66 5.29 37.1 5.29 37.1 4.73 37.1 4.17 38.22 4.17 38.22 4.73 39.34 4.73 39.34 5.29 39.9 5.29 39.9 5.85 39.9 6.41 39.34 6.41 39.34 6.97 38.78 6.97 38.78 6.41"/><rect class="cls-3" x="39.9" y="6.41" width=".56" height=".56" transform="translate(46.88 -33.49) rotate(90)"/><rect class="cls-3" x="39.34" y="8.1" width=".56" height=".56" transform="translate(48 -31.25) rotate(90)"/><polygon class="cls-5" points="39.34 6.97 39.9 6.97 39.9 6.41 40.46 6.41 40.46 8.1 39.9 8.1 39.9 8.66 39.34 8.66 39.34 6.97"/><rect class="cls-5" x="41.31" y="2.2" width="2.24" height=".56" transform="translate(44.91 -39.94) rotate(90)"/><rect class="cls-5" x="39.9" y="8.1" width="5.05" height=".56" transform="translate(50.8 -34.05) rotate(90)"/><rect class="cls-5" x="41.59" y="3.61" width=".56" height=".56" transform="translate(45.75 -37.98) rotate(90)"/><rect class="cls-5" x="41.59" y="4.17" width=".56" height=".56" transform="translate(46.31 -37.42) rotate(90)"/><rect class="cls-5" x="41.59" y="4.73" width=".56" height=".56" transform="translate(46.88 -36.86) rotate(90)"/><rect class="cls-5" x="41.59" y="5.29" width=".56" height=".56" transform="translate(47.44 -36.3) rotate(90)"/><rect class="cls-5" x="38.78" y="4.17" width=".56" height=".56" transform="translate(43.51 -34.61) rotate(90)"/><rect class="cls-5" x="38.22" y="4.17" width=".56" height=".56" transform="translate(42.95 -34.05) rotate(90)"/><rect class="cls-5" x="37.66" y="3.61" width=".56" height=".56" transform="translate(41.82 -34.05) rotate(90)"/><rect class="cls-5" x="37.1" y="3.61" width=".56" height=".56" transform="translate(41.26 -33.49) rotate(90)"/><rect class="cls-5" x="36.54" y="4.17" width=".56" height=".56" transform="translate(41.26 -32.37) rotate(90)"/><rect class="cls-5" x="36.54" y="4.73" width=".56" height=".56" transform="translate(41.82 -31.81) rotate(90)"/><rect class="cls-4" x="39.34" y="6.41" width=".56" height=".56" transform="translate(46.31 -32.93) rotate(90)"/><rect class="cls-4" x="39.9" y="5.85" width=".56" height=".56" transform="translate(46.31 -34.05) rotate(90)"/><rect class="cls-4" x="40.46" y="6.41" width=".56" height=".56" transform="translate(47.44 -34.05) rotate(90)"/><rect class="cls-4" x="40.46" y="6.97" width=".56" height=".56" transform="translate(48 -33.49) rotate(90)"/><rect class="cls-4" x="40.46" y="7.53" width=".56" height=".56" transform="translate(48.56 -32.93) rotate(90)"/><rect class="cls-4" x="39.9" y="8.1" width=".56" height=".56" transform="translate(48.56 -31.81) rotate(90)"/></g></g><g><g><g><polygon class="cls-2" points="10.84 3.97 10.84 3.43 10.3 3.43 9.77 3.43 9.77 2.9 10.3 2.9 10.84 2.9 11.38 2.9 11.38 3.43 11.38 3.97 11.38 4.51 11.38 5.04 10.84 5.04 10.84 4.51 10.84 3.97"/><polygon class="cls-2" points="10.3 6.65 10.3 6.11 10.3 5.58 10.3 5.04 10.84 5.04 10.84 5.58 10.84 6.11 10.84 6.65 10.84 7.18 10.3 7.18 10.3 6.65"/><rect class="cls-2" x="10.3" y="12.01" width=".54" height=".54"/><polygon class="cls-2" points="9.23 12.54 9.77 12.54 10.3 12.54 10.3 13.08 9.77 13.08 9.23 13.08 9.23 12.54"/><polygon class="cls-2" points="9.23 11.47 9.23 12.01 9.23 12.54 8.7 12.54 8.7 12.01 8.7 11.47 8.7 10.93 9.23 10.93 9.23 11.47"/><polygon class="cls-2" points="8.7 10.4 8.7 10.93 8.16 10.93 8.16 10.4 8.16 9.86 8.7 9.86 8.7 10.4"/><rect class="cls-2" x="8.7" y="9.33" width=".54" height=".54"/><polygon class="cls-2" points="9.23 8.26 9.23 7.72 9.77 7.72 9.77 8.26 9.77 8.79 9.77 9.33 9.23 9.33 9.23 8.79 9.23 8.26"/><polygon class="cls-2" points="8.7 7.18 8.7 6.65 9.23 6.65 9.23 7.18 9.23 7.72 8.7 7.72 8.7 7.18"/><rect class="cls-2" x="8.16" y="7.72" width=".54" height=".54"/><polygon class="cls-2" points="8.16 8.79 8.16 9.33 8.16 9.86 7.63 9.86 7.63 9.33 7.63 8.79 7.63 8.26 8.16 8.26 8.16 8.79"/><rect class="cls-2" x="7.09" y="7.72" width=".54" height=".54"/><rect class="cls-2" x="6.56" y="7.18" width=".54" height=".54"/><polygon class="cls-2" points="6.02 6.65 5.48 6.65 5.48 6.11 5.48 5.58 6.02 5.58 6.02 6.11 6.02 6.65"/><polygon class="cls-2" points="6.02 5.58 6.02 5.04 6.56 5.04 7.09 5.04 7.09 5.58 6.56 5.58 6.02 5.58"/><rect class="cls-2" x="7.09" y="2.9" width=".54" height=".54"/><rect class="cls-2" x="7.63" y="3.43" width=".54" height=".54"/><polygon class="cls-2" points="8.7 4.51 8.7 5.04 8.7 5.58 8.16 5.58 8.16 5.04 8.16 4.51 8.16 3.97 8.7 3.97 8.7 4.51"/><polygon class="cls-2" points="7.63 6.11 7.09 6.11 7.09 5.58 7.63 5.58 8.16 5.58 8.16 6.11 7.63 6.11"/><rect class="cls-2" x="6.02" y="6.65" width=".54" height=".54"/><rect class="cls-2" x="8.16" y="6.11" width=".54" height=".54"/><polygon class="cls-2" points="10.84 7.72 10.84 7.18 11.38 7.18 11.38 7.72 11.38 8.26 11.38 12.01 10.84 12.01 10.84 8.26 10.84 7.72"/><polygon class="cls-2" points="8.7 2.9 8.16 2.9 7.63 2.9 7.63 2.36 8.16 2.36 8.7 2.36 9.23 2.36 9.77 2.36 9.77 2.9 9.23 2.9 8.7 2.9"/></g><rect class="cls-2" x="9.23" y="2.36" width=".54" height="2.68" transform="translate(13.2 -5.8) rotate(90)"/><rect class="cls-2" x="9.23" y="4.51" width=".54" height="1.61" transform="translate(14.81 -4.19) rotate(90)"/><rect class="cls-2" x="8.43" y="8.52" width=".54" height="1.07" transform="translate(17.76 .36) rotate(90)"/><rect class="cls-2" x="8.43" y="7.99" width=".54" height="1.07" transform="translate(17.22 -.17) rotate(90)"/><g><rect class="cls-2" x="7.63" y="2.9" width="2.14" height=".54"/><polygon class="cls-2" points="8.7 3.97 10.84 3.97 10.84 4.51 10.84 5.04 8.7 5.04 8.7 4.51 8.7 3.97"/><polygon class="cls-2" points="9.23 12.01 9.23 11.47 9.23 10.93 8.7 10.93 8.7 10.4 8.7 9.86 9.23 9.86 9.23 9.33 9.77 9.33 9.77 8.79 9.77 8.26 9.77 7.72 9.23 7.72 9.23 7.18 9.23 6.65 8.7 6.65 8.7 6.11 8.16 6.11 8.16 5.58 10.3 5.58 10.3 6.11 10.3 6.65 10.3 7.18 10.84 7.18 10.84 7.72 10.84 8.26 10.84 8.79 10.84 9.33 10.84 9.86 10.84 10.4 10.84 10.93 10.84 11.47 10.84 12.01 10.3 12.01 10.3 12.54 9.23 12.54 9.23 12.01"/></g><polygon class="cls-2" points="7.63 7.72 7.09 7.72 7.09 7.18 6.56 7.18 6.56 6.65 6.02 6.65 6.02 6.11 6.02 5.58 7.09 5.58 7.09 6.11 8.16 6.11 8.16 6.65 8.7 6.65 8.7 7.18 8.7 7.72 8.16 7.72 8.16 8.26 7.63 8.26 7.63 7.72"/><rect class="cls-2" x="8.7" y="7.72" width=".54" height=".54" transform="translate(16.95 -.98) rotate(90)"/><rect class="cls-2" x="8.16" y="9.33" width=".54" height=".54" transform="translate(18.02 1.16) rotate(90)"/><polygon class="cls-2" points="8.16 8.26 8.7 8.26 8.7 7.72 9.23 7.72 9.23 9.33 8.7 9.33 8.7 9.86 8.16 9.86 8.16 8.26"/><rect class="cls-2" x="9.77" y="3.97" width="1.61" height=".54" transform="translate(14.81 -6.33) rotate(90)"/><rect class="cls-2" x="8.16" y="9.33" width="4.82" height=".54" transform="translate(20.17 -.98) rotate(90)"/></g><g><rect class="cls-1" x="8.85" y=".68" width=".51" height="1.17" transform="translate(10.36 -7.84) rotate(90)"/><rect class="cls-5" x="11.19" y="3.21" width=".51" height="1.17" transform="translate(15.25 -7.64) rotate(90)"/><rect class="cls-5" x="10.61" y="3.72" width=".51" height="1.17" transform="translate(15.17 -6.55) rotate(90)"/><rect class="cls-5" x="9.73" y="3.94" width=".51" height="1.76" transform="translate(14.8 -5.16) rotate(90)"/><rect class="cls-5" x="8.85" y="4.74" width=".51" height="1.17" transform="translate(14.42 -3.78) rotate(90)"/><rect class="cls-5" x="8.26" y="5.24" width=".51" height="1.17" transform="translate(14.35 -2.68) rotate(90)"/><rect class="cls-5" x="7.67" y="6.26" width=".51" height="1.17" transform="translate(14.77 -1.08) rotate(90)"/><rect class="cls-5" x="7.09" y="6.77" width=".51" height="1.17" transform="translate(14.7 .01) rotate(90)"/><rect class="cls-5" x="6.5" y="7.27" width=".51" height="1.17" transform="translate(14.62 1.1) rotate(90)"/><rect class="cls-5" x="5.92" y="7.78" width=".51" height="1.17" transform="translate(14.54 2.2) rotate(90)"/><rect class="cls-5" x="5.33" y="8.29" width=".51" height="1.17" transform="translate(14.46 3.29) rotate(90)"/><rect class="cls-5" x="4.74" y="8.8" width=".51" height="1.17" transform="translate(14.38 4.39) rotate(90)"/><rect class="cls-5" x="7.97" y="6.05" width=".51" height=".59" transform="translate(14.56 -1.88) rotate(90)"/><rect class="cls-1" x="9.14" y=".89" width=".51" height="1.76" transform="translate(11.17 -7.62) rotate(90)"/><polygon class="cls-1" points="2.65 9.64 2.65 9.13 2.07 9.13 2.07 8.62 2.07 8.11 2.65 8.11 2.65 7.61 3.24 7.61 3.24 7.1 6.17 7.1 6.17 6.59 6.76 6.59 6.76 6.08 6.76 5.58 6.76 5.07 6.76 4.56 6.76 4.05 7.34 4.05 7.34 3.55 7.34 3.04 7.93 3.04 7.93 2.53 8.51 2.53 8.51 2.02 10.86 2.02 10.86 2.53 10.86 3.04 11.45 3.04 11.45 3.55 10.86 3.55 10.86 4.05 10.27 4.05 10.27 4.56 9.1 4.56 9.1 5.07 8.51 5.07 8.51 5.58 7.93 5.58 7.93 6.08 7.93 6.59 7.34 6.59 7.34 7.1 6.76 7.1 6.76 7.61 6.17 7.61 6.17 8.11 5.58 8.11 5.58 8.62 5 8.62 5 9.13 4.41 9.13 4.41 9.64 4.41 10.14 2.65 10.14 2.65 9.64"/><rect class="cls-1" x="2.11" y="9.09" width=".51" height=".59" transform="translate(11.74 7.02) rotate(90)"/><rect class="cls-5" x="4.45" y="9.6" width=".51" height=".59" transform="translate(14.6 5.19) rotate(90)"/><rect class="cls-5" x="5.92" y="1.18" width=".51" height="1.17" transform="translate(7.94 -4.4) rotate(90)"/><rect class="cls-5" x="5.62" y="1.4" width=".51" height="1.76" transform="translate(8.16 -3.6) rotate(90)"/><rect class="cls-5" x="5.62" y="1.91" width=".51" height="1.76" transform="translate(8.66 -3.09) rotate(90)"/><rect class="cls-5" x="5.62" y="2.41" width=".51" height="1.76" transform="translate(9.17 -2.58) rotate(90)"/><rect class="cls-5" x="5.33" y="2.63" width=".51" height="2.34" transform="translate(9.38 -1.78) rotate(90)"/><rect class="cls-5" x="5.33" y="3.14" width=".51" height="2.34" transform="translate(9.89 -1.28) rotate(90)"/><rect class="cls-5" x="5.33" y="3.64" width=".51" height="2.34" transform="translate(10.4 -.77) rotate(90)"/><rect class="cls-1" x="3.86" y="5.03" width=".51" height=".59" transform="translate(9.44 1.21) rotate(90)"/><rect class="cls-1" x="3.86" y="5.54" width=".51" height=".59" transform="translate(9.95 1.71) rotate(90)"/><rect class="cls-1" x="3.86" y="6.05" width=".51" height=".59" transform="translate(10.46 2.22) rotate(90)"/><rect class="cls-1" x="3.86" y="6.55" width=".51" height=".59" transform="translate(10.96 2.73) rotate(90)"/><rect class="cls-1" x="3.28" y="6.55" width=".51" height=".59" transform="translate(10.38 3.31) rotate(90)"/><rect class="cls-2" x="4.45" y="5.03" width=".51" height=".59" transform="translate(10.03 .62) rotate(90)"/><rect class="cls-2" x="5.04" y="4.95" width=".51" height="1.76" transform="translate(11.12 .54) rotate(90)"/><rect class="cls-2" x="5.04" y="6.05" width=".51" height=".59" transform="translate(11.63 1.05) rotate(90)"/><rect class="cls-4" x="5.04" y="5.03" width=".51" height=".59" transform="translate(10.61 .03) rotate(90)"/><rect class="cls-4" x="4.45" y="5.03" width=".51" height=".59" transform="translate(10.03 .62) rotate(90)"/><rect class="cls-4" x="3.86" y="5.03" width=".51" height=".59" transform="translate(9.44 1.21) rotate(90)"/><rect class="cls-4" x="3.86" y="5.54" width=".51" height=".59" transform="translate(9.95 1.71) rotate(90)"/><rect class="cls-4" x="4.45" y="5.03" width=".51" height=".59" transform="translate(10.03 .62) rotate(90)"/><rect class="cls-4" x="5.62" y="5.03" width=".51" height=".59" transform="translate(11.2 -.55) rotate(90)"/><rect class="cls-4" x="6.21" y="5.03" width=".51" height=".59" transform="translate(11.79 -1.14) rotate(90)"/><rect class="cls-4" x="6.21" y="5.54" width=".51" height=".59" transform="translate(12.29 -.63) rotate(90)"/><rect class="cls-4" x="6.21" y="6.05" width=".51" height=".59" transform="translate(12.8 -.12) rotate(90)"/><rect class="cls-4" x="5.62" y="6.05" width=".51" height=".59" transform="translate(12.22 .46) rotate(90)"/><rect class="cls-4" x="5.62" y="6.55" width=".51" height=".59" transform="translate(12.72 .97) rotate(90)"/><rect class="cls-4" x="5.04" y="6.55" width=".51" height=".59" transform="translate(12.14 1.56) rotate(90)"/><rect class="cls-4" x="4.45" y="6.55" width=".51" height=".59" transform="translate(11.55 2.14) rotate(90)"/><rect class="cls-4" x="4.45" y="6.05" width=".51" height=".59" transform="translate(11.04 1.63) rotate(90)"/><rect class="cls-5" x="5.33" y="5.24" width=".51" height="1.17" transform="translate(11.41 .25) rotate(90)"/><rect class="cls-5" x="5.04" y="6.05" width=".51" height=".59" transform="translate(11.63 1.05) rotate(90)"/><rect class="cls-5" x="4.45" y="5.54" width=".51" height=".59" transform="translate(10.54 1.13) rotate(90)"/><rect class="cls-4" x="4.45" y="5.03" width=".51" height=".59" transform="translate(10.03 .62) rotate(90)"/></g></g></svg>