<?xml version="1.0" encoding="UTF-8"?><svg id="Calque_2" xmlns="http://www.w3.org/2000/svg" viewBox="0 0 64 16"><defs><style>.cls-1{fill:#68ace5;}.cls-2{fill:#007fc6;}.cls-3{fill:#fff;}.cls-4{fill:#224256;}.cls-5{fill:#38749e;}</style></defs><g><rect class="cls-2" x="18.13" y="8.25" width=".56" height="2.8"/><rect class="cls-2" x="18.69" y="8.25" width=".56" height="2.8"/><rect class="cls-2" x="19.25" y="8.25" width=".56" height="2.8"/><rect class="cls-2" x="19.81" y="8.25" width=".56" height="3.36"/><rect class="cls-2" x="20.37" y="4.89" width=".56" height="6.72"/><rect class="cls-2" x="20.93" y="4.89" width=".56" height="6.72"/><rect class="cls-2" x="21.49" y="5.45" width=".56" height="6.16"/><rect class="cls-2" x="22.05" y="5.45" width=".56" height="5.04"/><rect class="cls-2" x="22.61" y="5.45" width=".56" height="4.48"/><rect class="cls-2" x="23.17" y="4.33" width=".56" height="4.48"/><rect class="cls-2" x="23.73" y="4.33" width=".56" height="4.48"/><rect class="cls-2" x="24.29" y="4.33" width=".56" height="4.48"/><rect class="cls-2" x="24.85" y="4.33" width=".56" height="4.48"/><rect class="cls-2" x="25.41" y="4.33" width=".56" height="3.92"/><rect class="cls-2" x="25.97" y="4.33" width=".56" height="3.36"/><rect class="cls-2" x="26.53" y="3.77" width=".56" height="3.36"/><rect class="cls-2" x="27.09" y="3.21" width=".56" height="3.36"/><rect class="cls-2" x="27.65" y="3.21" width=".56" height="2.8"/><rect class="cls-2" x="28.21" y="3.77" width=".56" height="1.68"/><rect class="cls-2" x="17.57" y="8.25" width=".56" height="2.24"/><rect class="cls-2" x="19.81" y="4.89" width=".56" height="2.24"/><rect class="cls-2" x="19.25" y="4.89" width=".56" height="2.24"/><rect class="cls-2" x="18.69" y="5.45" width=".56" height="1.12"/></g><g><g><polygon class="cls-2" points="4.83 10.41 4.29 10.41 4.29 9.87 4.29 9.34 3.76 9.34 3.76 9.87 3.76 10.41 3.76 10.95 4.29 10.95 4.83 10.95 5.36 10.95 5.9 10.95 5.9 10.41 5.36 10.41 4.83 10.41"/><polygon class="cls-2" points="7.5 9.87 6.97 9.87 6.43 9.87 5.9 9.87 5.9 10.41 6.43 10.41 6.97 10.41 7.5 10.41 8.04 10.41 8.04 9.87 7.5 9.87"/><rect class="cls-2" x="12.86" y="9.87" width=".54" height=".54"/><polygon class="cls-2" points="13.4 8.8 13.4 9.34 13.4 9.87 13.93 9.87 13.93 9.34 13.93 8.8 13.4 8.8"/><polygon class="cls-2" points="12.33 8.8 12.86 8.8 13.4 8.8 13.4 8.27 12.86 8.27 12.33 8.27 11.79 8.27 11.79 8.8 12.33 8.8"/><polygon class="cls-2" points="11.25 8.27 11.79 8.27 11.79 7.73 11.25 7.73 10.72 7.73 10.72 8.27 11.25 8.27"/><rect class="cls-2" x="10.18" y="8.27" width=".54" height=".54"/><polygon class="cls-2" points="9.11 8.8 8.58 8.8 8.58 9.34 9.11 9.34 9.65 9.34 10.18 9.34 10.18 8.8 9.65 8.8 9.11 8.8"/><polygon class="cls-2" points="8.04 8.27 7.5 8.27 7.5 8.8 8.04 8.8 8.58 8.8 8.58 8.27 8.04 8.27"/><rect class="cls-2" x="8.58" y="7.73" width=".54" height=".54"/><polygon class="cls-2" points="9.65 7.73 10.18 7.73 10.72 7.73 10.72 7.2 10.18 7.2 9.65 7.2 9.11 7.2 9.11 7.73 9.65 7.73"/><rect class="cls-2" x="8.58" y="6.66" width=".54" height=".54"/><rect class="cls-2" x="8.04" y="6.13" width=".54" height=".54"/><polygon class="cls-2" points="7.5 5.59 7.5 5.05 6.97 5.05 6.43 5.05 6.43 5.59 6.97 5.59 7.5 5.59"/><polygon class="cls-2" points="6.43 5.59 5.9 5.59 5.9 6.13 5.9 6.66 6.43 6.66 6.43 6.13 6.43 5.59"/><rect class="cls-2" x="3.76" y="6.66" width=".54" height=".54"/><rect class="cls-2" x="4.29" y="7.2" width=".54" height=".54"/><polygon class="cls-2" points="5.36 8.27 5.9 8.27 6.43 8.27 6.43 7.73 5.9 7.73 5.36 7.73 4.83 7.73 4.83 8.27 5.36 8.27"/><polygon class="cls-2" points="6.97 7.2 6.97 6.66 6.43 6.66 6.43 7.2 6.43 7.73 6.97 7.73 6.97 7.2"/><rect class="cls-2" x="7.5" y="5.59" width=".54" height=".54"/><rect class="cls-2" x="6.97" y="7.73" width=".54" height=".54"/><polygon class="cls-2" points="8.58 10.41 8.04 10.41 8.04 10.95 8.58 10.95 9.11 10.95 12.86 10.95 12.86 10.41 9.11 10.41 8.58 10.41"/><polygon class="cls-2" points="3.76 8.27 3.76 7.73 3.76 7.2 3.22 7.2 3.22 7.73 3.22 8.27 3.22 8.8 3.22 9.34 3.76 9.34 3.76 8.8 3.76 8.27"/></g><rect class="cls-2" x="4.29" y="7.73" width=".54" height="2.68"/><rect class="cls-2" x="5.9" y="8.27" width=".54" height="1.61"/><rect class="cls-2" x="9.65" y="7.73" width=".54" height="1.07"/><rect class="cls-2" x="9.11" y="7.73" width=".54" height="1.07"/><g><rect class="cls-2" x="3.76" y="7.2" width=".54" height="2.14"/><polygon class="cls-2" points="4.83 8.27 4.83 10.41 5.36 10.41 5.9 10.41 5.9 8.27 5.36 8.27 4.83 8.27"/><polygon class="cls-2" points="12.86 8.8 12.33 8.8 11.79 8.8 11.79 8.27 11.25 8.27 10.72 8.27 10.72 8.8 10.18 8.8 10.18 9.34 9.65 9.34 9.11 9.34 8.58 9.34 8.58 8.8 8.04 8.8 7.5 8.8 7.5 8.27 6.97 8.27 6.97 7.73 6.43 7.73 6.43 9.87 6.97 9.87 7.5 9.87 8.04 9.87 8.04 10.41 8.58 10.41 9.11 10.41 9.65 10.41 10.18 10.41 10.72 10.41 11.25 10.41 11.79 10.41 12.33 10.41 12.86 10.41 12.86 9.87 13.4 9.87 13.4 8.8 12.86 8.8"/></g><polygon class="cls-2" points="8.58 7.2 8.58 6.66 8.04 6.66 8.04 6.13 7.5 6.13 7.5 5.59 6.97 5.59 6.43 5.59 6.43 6.66 6.97 6.66 6.97 7.73 7.5 7.73 7.5 8.27 8.04 8.27 8.58 8.27 8.58 7.73 9.11 7.73 9.11 7.2 8.58 7.2"/><rect class="cls-2" x="8.58" y="8.27" width=".54" height=".54"/><rect class="cls-2" x="10.18" y="7.73" width=".54" height=".54"/><polygon class="cls-2" points="9.11 7.73 9.11 8.27 8.58 8.27 8.58 8.8 10.18 8.8 10.18 8.27 10.72 8.27 10.72 7.73 9.11 7.73"/><rect class="cls-2" x="4.29" y="9.87" width="1.61" height=".54"/><rect class="cls-2" x="8.04" y="9.87" width="4.82" height=".54"/></g><g><g><polygon class="cls-1" points="2.68 11.01 2.12 11.01 2.12 10.45 2.12 9.89 1.56 9.89 1.56 10.45 1.56 11.01 1.56 11.57 2.12 11.57 2.68 11.57 3.24 11.57 3.81 11.57 3.81 11.01 3.24 11.01 2.68 11.01"/><polygon class="cls-1" points="5.49 10.45 4.93 10.45 4.37 10.45 3.81 10.45 3.81 11.01 4.37 11.01 4.93 11.01 5.49 11.01 6.05 11.01 6.05 10.45 5.49 10.45"/><rect class="cls-1" x="11.1" y="10.45" width=".56" height=".56"/><polygon class="cls-1" points="11.66 9.33 11.66 9.89 11.66 10.45 12.22 10.45 12.22 9.89 12.22 9.33 11.66 9.33"/><polygon class="cls-1" points="10.54 9.33 11.1 9.33 11.66 9.33 11.66 8.77 11.1 8.77 10.54 8.77 9.98 8.77 9.98 9.33 10.54 9.33"/><polygon class="cls-1" points="9.42 8.77 9.98 8.77 9.98 8.21 9.42 8.21 8.86 8.21 8.86 8.77 9.42 8.77"/><rect class="cls-1" x="8.3" y="8.77" width=".56" height=".56"/><polygon class="cls-1" points="7.17 9.33 6.61 9.33 6.61 9.89 7.17 9.89 7.73 9.89 8.3 9.89 8.3 9.33 7.73 9.33 7.17 9.33"/><polygon class="cls-1" points="6.05 8.77 5.49 8.77 5.49 9.33 6.05 9.33 6.61 9.33 6.61 8.77 6.05 8.77"/><rect class="cls-1" x="6.61" y="8.21" width=".56" height=".56"/><polygon class="cls-1" points="7.73 8.21 8.3 8.21 8.86 8.21 8.86 7.65 8.3 7.65 7.73 7.65 7.17 7.65 7.17 8.21 7.73 8.21"/><rect class="cls-1" x="6.61" y="7.08" width=".56" height=".56"/><rect class="cls-1" x="6.05" y="6.52" width=".56" height=".56"/><polygon class="cls-1" points="5.49 5.96 5.49 5.4 4.93 5.4 4.37 5.4 4.37 5.96 4.93 5.96 5.49 5.96"/><polygon class="cls-1" points="4.37 5.96 3.81 5.96 3.81 6.52 3.81 7.08 4.37 7.08 4.37 6.52 4.37 5.96"/><rect class="cls-1" x="1.56" y="7.08" width=".56" height=".56"/><rect class="cls-1" x="2.12" y="7.65" width=".56" height=".56"/><polygon class="cls-1" points="3.24 8.77 3.81 8.77 4.37 8.77 4.37 8.21 3.81 8.21 3.24 8.21 2.68 8.21 2.68 8.77 3.24 8.77"/><polygon class="cls-1" points="4.93 7.65 4.93 7.08 4.37 7.08 4.37 7.65 4.37 8.21 4.93 8.21 4.93 7.65"/><rect class="cls-1" x="5.49" y="5.96" width=".56" height=".56"/><rect class="cls-1" x="4.93" y="8.21" width=".56" height=".56"/><polygon class="cls-1" points="6.61 11.01 6.05 11.01 6.05 11.57 6.61 11.57 7.17 11.57 11.1 11.57 11.1 11.01 7.17 11.01 6.61 11.01"/><polygon class="cls-1" points="1.56 8.77 1.56 8.21 1.56 7.65 1 7.65 1 8.21 1 8.77 1 9.33 1 9.89 1.56 9.89 1.56 9.33 1.56 8.77"/></g><rect class="cls-1" x="2.12" y="8.21" width=".56" height="2.81"/><rect class="cls-1" x="3.81" y="8.77" width=".56" height="1.68"/><rect class="cls-3" x="7.73" y="8.21" width=".56" height="1.12"/><rect class="cls-3" x="7.17" y="8.21" width=".56" height="1.12"/><g><rect class="cls-1" x="1.56" y="7.65" width=".56" height="2.24"/><polygon class="cls-1" points="2.68 8.77 2.68 11.01 3.24 11.01 3.81 11.01 3.81 8.77 3.24 8.77 2.68 8.77"/><polygon class="cls-1" points="11.1 9.33 10.54 9.33 9.98 9.33 9.98 8.77 9.42 8.77 8.86 8.77 8.86 9.33 8.3 9.33 8.3 9.89 7.73 9.89 7.17 9.89 6.61 9.89 6.61 9.33 6.05 9.33 5.49 9.33 5.49 8.77 4.93 8.77 4.93 8.21 4.37 8.21 4.37 10.45 4.93 10.45 5.49 10.45 6.05 10.45 6.05 11.01 6.61 11.01 7.17 11.01 7.73 11.01 8.3 11.01 8.86 11.01 9.42 11.01 9.98 11.01 10.54 11.01 11.1 11.01 11.1 10.45 11.66 10.45 11.66 9.33 11.1 9.33"/></g><polygon class="cls-5" points="6.61 7.65 6.61 7.08 6.05 7.08 6.05 6.52 5.49 6.52 5.49 5.96 4.93 5.96 4.37 5.96 4.37 7.08 4.93 7.08 4.93 8.21 5.49 8.21 5.49 8.77 6.05 8.77 6.61 8.77 6.61 8.21 7.17 8.21 7.17 7.65 6.61 7.65"/><rect class="cls-3" x="6.61" y="8.77" width=".56" height=".56"/><rect class="cls-3" x="8.3" y="8.21" width=".56" height=".56"/><polygon class="cls-5" points="7.17 8.21 7.17 8.77 6.61 8.77 6.61 9.33 8.3 9.33 8.3 8.77 8.86 8.77 8.86 8.21 7.17 8.21"/><rect class="cls-5" x="1.56" y="11.01" width="2.24" height=".56"/><rect class="cls-5" x="6.05" y="11.01" width="5.05" height=".56"/><rect class="cls-5" x="3.81" y="10.45" width=".56" height=".56"/><rect class="cls-5" x="4.37" y="10.45" width=".56" height=".56"/><rect class="cls-5" x="4.93" y="10.45" width=".56" height=".56"/><rect class="cls-5" x="5.49" y="10.45" width=".56" height=".56"/><rect class="cls-5" x="4.37" y="7.65" width=".56" height=".56"/><rect class="cls-5" x="4.37" y="7.08" width=".56" height=".56"/><rect class="cls-5" x="3.81" y="6.52" width=".56" height=".56"/><rect class="cls-5" x="3.81" y="5.96" width=".56" height=".56"/><rect class="cls-5" x="4.37" y="5.4" width=".56" height=".56"/><rect class="cls-5" x="4.93" y="5.4" width=".56" height=".56"/><rect class="cls-4" x="6.61" y="8.21" width=".56" height=".56"/><rect class="cls-4" x="6.05" y="8.77" width=".56" height=".56"/><rect class="cls-4" x="6.61" y="9.33" width=".56" height=".56"/><rect class="cls-4" x="7.17" y="9.33" width=".56" height=".56"/><rect class="cls-4" x="7.73" y="9.33" width=".56" height=".56"/><rect class="cls-4" x="8.3" y="8.77" width=".56" height=".56"/></g><g><g><polygon class="cls-2" points="36.85 10.36 36.32 10.36 36.32 9.83 36.32 9.29 35.78 9.29 35.78 9.83 35.78 10.36 35.78 10.9 36.32 10.9 36.85 10.9 37.39 10.9 37.92 10.9 37.92 10.36 37.39 10.36 36.85 10.36"/><polygon class="cls-2" points="39.53 9.83 38.99 9.83 38.46 9.83 37.92 9.83 37.92 10.36 38.46 10.36 38.99 10.36 39.53 10.36 40.07 10.36 40.07 9.83 39.53 9.83"/><rect class="cls-2" x="44.89" y="9.83" width=".54" height=".54"/><polygon class="cls-2" points="45.42 8.76 45.42 9.29 45.42 9.83 45.96 9.83 45.96 9.29 45.96 8.76 45.42 8.76"/><polygon class="cls-2" points="44.35 8.76 44.89 8.76 45.42 8.76 45.42 8.22 44.89 8.22 44.35 8.22 43.82 8.22 43.82 8.76 44.35 8.76"/><polygon class="cls-2" points="43.28 8.22 43.82 8.22 43.82 7.69 43.28 7.69 42.74 7.69 42.74 8.22 43.28 8.22"/><rect class="cls-2" x="42.21" y="8.22" width=".54" height=".54"/><polygon class="cls-2" points="41.14 8.76 40.6 8.76 40.6 9.29 41.14 9.29 41.67 9.29 42.21 9.29 42.21 8.76 41.67 8.76 41.14 8.76"/><polygon class="cls-2" points="40.07 8.22 39.53 8.22 39.53 8.76 40.07 8.76 40.6 8.76 40.6 8.22 40.07 8.22"/><rect class="cls-2" x="40.6" y="7.69" width=".54" height=".54"/><polygon class="cls-2" points="41.67 7.69 42.21 7.69 42.74 7.69 42.74 7.15 42.21 7.15 41.67 7.15 41.14 7.15 41.14 7.69 41.67 7.69"/><rect class="cls-2" x="40.6" y="6.61" width=".54" height=".54"/><rect class="cls-2" x="40.07" y="6.08" width=".54" height=".54"/><polygon class="cls-2" points="39.53 5.54 39.53 5.01 38.99 5.01 38.46 5.01 38.46 5.54 38.99 5.54 39.53 5.54"/><polygon class="cls-2" points="38.46 5.54 37.92 5.54 37.92 6.08 37.92 6.61 38.46 6.61 38.46 6.08 38.46 5.54"/><rect class="cls-2" x="35.78" y="6.61" width=".54" height=".54"/><rect class="cls-2" x="36.32" y="7.15" width=".54" height=".54"/><polygon class="cls-2" points="37.39 8.22 37.92 8.22 38.46 8.22 38.46 7.69 37.92 7.69 37.39 7.69 36.85 7.69 36.85 8.22 37.39 8.22"/><polygon class="cls-2" points="38.99 7.15 38.99 6.61 38.46 6.61 38.46 7.15 38.46 7.69 38.99 7.69 38.99 7.15"/><rect class="cls-2" x="39.53" y="5.54" width=".54" height=".54"/><rect class="cls-2" x="38.99" y="7.69" width=".54" height=".54"/><polygon class="cls-2" points="40.6 10.36 40.07 10.36 40.07 10.9 40.6 10.9 41.14 10.9 44.89 10.9 44.89 10.36 41.14 10.36 40.6 10.36"/><polygon class="cls-2" points="35.78 8.22 35.78 7.69 35.78 7.15 35.24 7.15 35.24 7.69 35.24 8.22 35.24 8.76 35.24 9.29 35.78 9.29 35.78 8.76 35.78 8.22"/></g><rect class="cls-2" x="36.32" y="7.69" width=".54" height="2.68"/><rect class="cls-2" x="37.92" y="8.22" width=".54" height="1.61"/><rect class="cls-2" x="41.67" y="7.69" width=".54" height="1.07"/><rect class="cls-2" x="41.14" y="7.69" width=".54" height="1.07"/><g><rect class="cls-2" x="35.78" y="7.15" width=".54" height="2.14"/><polygon class="cls-2" points="36.85 8.22 36.85 10.36 37.39 10.36 37.92 10.36 37.92 8.22 37.39 8.22 36.85 8.22"/><polygon class="cls-2" points="44.89 8.76 44.35 8.76 43.82 8.76 43.82 8.22 43.28 8.22 42.74 8.22 42.74 8.76 42.21 8.76 42.21 9.29 41.67 9.29 41.14 9.29 40.6 9.29 40.6 8.76 40.07 8.76 39.53 8.76 39.53 8.22 38.99 8.22 38.99 7.69 38.46 7.69 38.46 9.83 38.99 9.83 39.53 9.83 40.07 9.83 40.07 10.36 40.6 10.36 41.14 10.36 41.67 10.36 42.21 10.36 42.74 10.36 43.28 10.36 43.82 10.36 44.35 10.36 44.89 10.36 44.89 9.83 45.42 9.83 45.42 8.76 44.89 8.76"/></g><polygon class="cls-2" points="40.6 7.15 40.6 6.61 40.07 6.61 40.07 6.08 39.53 6.08 39.53 5.54 38.99 5.54 38.46 5.54 38.46 6.61 38.99 6.61 38.99 7.69 39.53 7.69 39.53 8.22 40.07 8.22 40.6 8.22 40.6 7.69 41.14 7.69 41.14 7.15 40.6 7.15"/><rect class="cls-2" x="40.6" y="8.22" width=".54" height=".54"/><rect class="cls-2" x="42.21" y="7.69" width=".54" height=".54"/><polygon class="cls-2" points="41.14 7.69 41.14 8.22 40.6 8.22 40.6 8.76 42.21 8.76 42.21 8.22 42.74 8.22 42.74 7.69 41.14 7.69"/><rect class="cls-2" x="36.32" y="9.83" width="1.61" height=".54"/><rect class="cls-2" x="40.07" y="9.83" width="4.82" height=".54"/></g><g><g><polygon class="cls-2" points="51.85 10.36 51.31 10.36 51.31 9.83 51.31 9.29 50.78 9.29 50.78 9.83 50.78 10.36 50.78 10.9 51.31 10.9 51.85 10.9 52.38 10.9 52.92 10.9 52.92 10.36 52.38 10.36 51.85 10.36"/><polygon class="cls-2" points="54.53 9.83 53.99 9.83 53.45 9.83 52.92 9.83 52.92 10.36 53.45 10.36 53.99 10.36 54.53 10.36 55.06 10.36 55.06 9.83 54.53 9.83"/><rect class="cls-2" x="59.88" y="9.83" width=".54" height=".54"/><polygon class="cls-2" points="60.42 8.76 60.42 9.29 60.42 9.83 60.95 9.83 60.95 9.29 60.95 8.76 60.42 8.76"/><polygon class="cls-2" points="59.35 8.76 59.88 8.76 60.42 8.76 60.42 8.22 59.88 8.22 59.35 8.22 58.81 8.22 58.81 8.76 59.35 8.76"/><polygon class="cls-2" points="58.28 8.22 58.81 8.22 58.81 7.69 58.28 7.69 57.74 7.69 57.74 8.22 58.28 8.22"/><rect class="cls-2" x="57.2" y="8.22" width=".54" height=".54"/><polygon class="cls-2" points="56.13 8.76 55.6 8.76 55.6 9.29 56.13 9.29 56.67 9.29 57.2 9.29 57.2 8.76 56.67 8.76 56.13 8.76"/><polygon class="cls-2" points="55.06 8.22 54.53 8.22 54.53 8.76 55.06 8.76 55.6 8.76 55.6 8.22 55.06 8.22"/><rect class="cls-2" x="55.6" y="7.69" width=".54" height=".54"/><polygon class="cls-2" points="56.67 7.69 57.2 7.69 57.74 7.69 57.74 7.15 57.2 7.15 56.67 7.15 56.13 7.15 56.13 7.69 56.67 7.69"/><rect class="cls-2" x="55.6" y="6.61" width=".54" height=".54"/><rect class="cls-2" x="55.06" y="6.08" width=".54" height=".54"/><polygon class="cls-2" points="54.53 5.54 54.53 5.01 53.99 5.01 53.45 5.01 53.45 5.54 53.99 5.54 54.53 5.54"/><polygon class="cls-2" points="53.45 5.54 52.92 5.54 52.92 6.08 52.92 6.61 53.45 6.61 53.45 6.08 53.45 5.54"/><rect class="cls-2" x="50.78" y="6.61" width=".54" height=".54"/><rect class="cls-2" x="51.31" y="7.15" width=".54" height=".54"/><polygon class="cls-2" points="52.38 8.22 52.92 8.22 53.45 8.22 53.45 7.69 52.92 7.69 52.38 7.69 51.85 7.69 51.85 8.22 52.38 8.22"/><polygon class="cls-2" points="53.99 7.15 53.99 6.61 53.45 6.61 53.45 7.15 53.45 7.69 53.99 7.69 53.99 7.15"/><rect class="cls-2" x="54.53" y="5.54" width=".54" height=".54"/><rect class="cls-2" x="53.99" y="7.69" width=".54" height=".54"/><polygon class="cls-2" points="55.6 10.36 55.06 10.36 55.06 10.9 55.6 10.9 56.13 10.9 59.88 10.9 59.88 10.36 56.13 10.36 55.6 10.36"/><polygon class="cls-2" points="50.78 8.22 50.78 7.69 50.78 7.15 50.24 7.15 50.24 7.69 50.24 8.22 50.24 8.76 50.24 9.29 50.78 9.29 50.78 8.76 50.78 8.22"/></g><rect class="cls-2" x="51.31" y="7.69" width=".54" height="2.68"/><rect class="cls-2" x="52.92" y="8.22" width=".54" height="1.61"/><rect class="cls-2" x="56.67" y="7.69" width=".54" height="1.07"/><rect class="cls-2" x="56.13" y="7.69" width=".54" height="1.07"/><g><rect class="cls-2" x="50.78" y="7.15" width=".54" height="2.14"/><polygon class="cls-2" points="51.85 8.22 51.85 10.36 52.38 10.36 52.92 10.36 52.92 8.22 52.38 8.22 51.85 8.22"/><polygon class="cls-2" points="59.88 8.76 59.35 8.76 58.81 8.76 58.81 8.22 58.28 8.22 57.74 8.22 57.74 8.76 57.2 8.76 57.2 9.29 56.67 9.29 56.13 9.29 55.6 9.29 55.6 8.76 55.06 8.76 54.53 8.76 54.53 8.22 53.99 8.22 53.99 7.69 53.45 7.69 53.45 9.83 53.99 9.83 54.53 9.83 55.06 9.83 55.06 10.36 55.6 10.36 56.13 10.36 56.67 10.36 57.2 10.36 57.74 10.36 58.28 10.36 58.81 10.36 59.35 10.36 59.88 10.36 59.88 9.83 60.42 9.83 60.42 8.76 59.88 8.76"/></g><polygon class="cls-2" points="55.6 7.15 55.6 6.61 55.06 6.61 55.06 6.08 54.53 6.08 54.53 5.54 53.99 5.54 53.45 5.54 53.45 6.61 53.99 6.61 53.99 7.69 54.53 7.69 54.53 8.22 55.06 8.22 55.6 8.22 55.6 7.69 56.13 7.69 56.13 7.15 55.6 7.15"/><rect class="cls-2" x="55.6" y="8.22" width=".54" height=".54"/><rect class="cls-2" x="57.2" y="7.69" width=".54" height=".54"/><polygon class="cls-2" points="56.13 7.69 56.13 8.22 55.6 8.22 55.6 8.76 57.2 8.76 57.2 8.22 57.74 8.22 57.74 7.69 56.13 7.69"/><rect class="cls-2" x="51.31" y="9.83" width="1.61" height=".54"/><rect class="cls-2" x="55.06" y="9.83" width="4.82" height=".54"/></g><g><g><polygon class="cls-1" points="34.71 10.97 34.15 10.97 34.15 10.41 34.15 9.84 33.59 9.84 33.59 10.41 33.59 10.97 33.59 11.53 34.15 11.53 34.71 11.53 35.27 11.53 35.83 11.53 35.83 10.97 35.27 10.97 34.71 10.97"/><polygon class="cls-1" points="37.52 10.41 36.95 10.41 36.39 10.41 35.83 10.41 35.83 10.97 36.39 10.97 36.95 10.97 37.52 10.97 38.08 10.97 38.08 10.41 37.52 10.41"/><rect class="cls-1" x="43.13" y="10.41" width=".56" height=".56"/><polygon class="cls-1" points="43.69 9.28 43.69 9.84 43.69 10.41 44.25 10.41 44.25 9.84 44.25 9.28 43.69 9.28"/><polygon class="cls-1" points="42.57 9.28 43.13 9.28 43.69 9.28 43.69 8.72 43.13 8.72 42.57 8.72 42 8.72 42 9.28 42.57 9.28"/><polygon class="cls-1" points="41.44 8.72 42 8.72 42 8.16 41.44 8.16 40.88 8.16 40.88 8.72 41.44 8.72"/><rect class="cls-1" x="40.32" y="8.72" width=".56" height=".56"/><polygon class="cls-1" points="39.2 9.28 38.64 9.28 38.64 9.84 39.2 9.84 39.76 9.84 40.32 9.84 40.32 9.28 39.76 9.28 39.2 9.28"/><polygon class="cls-1" points="38.08 8.72 37.52 8.72 37.52 9.28 38.08 9.28 38.64 9.28 38.64 8.72 38.08 8.72"/><rect class="cls-1" x="38.64" y="8.16" width=".56" height=".56"/><polygon class="cls-1" points="39.76 8.16 40.32 8.16 40.88 8.16 40.88 7.6 40.32 7.6 39.76 7.6 39.2 7.6 39.2 8.16 39.76 8.16"/><rect class="cls-1" x="38.64" y="7.04" width=".56" height=".56"/><rect class="cls-1" x="38.08" y="6.48" width=".56" height=".56"/><polygon class="cls-1" points="37.52 5.92 37.52 5.35 36.95 5.35 36.39 5.35 36.39 5.92 36.95 5.92 37.52 5.92"/><polygon class="cls-1" points="36.39 5.92 35.83 5.92 35.83 6.48 35.83 7.04 36.39 7.04 36.39 6.48 36.39 5.92"/><rect class="cls-1" x="33.59" y="7.04" width=".56" height=".56"/><rect class="cls-1" x="34.15" y="7.6" width=".56" height=".56"/><polygon class="cls-1" points="35.27 8.72 35.83 8.72 36.39 8.72 36.39 8.16 35.83 8.16 35.27 8.16 34.71 8.16 34.71 8.72 35.27 8.72"/><polygon class="cls-1" points="36.95 7.6 36.95 7.04 36.39 7.04 36.39 7.6 36.39 8.16 36.95 8.16 36.95 7.6"/><rect class="cls-1" x="37.52" y="5.92" width=".56" height=".56"/><rect class="cls-1" x="36.95" y="8.16" width=".56" height=".56"/><polygon class="cls-1" points="38.64 10.97 38.08 10.97 38.08 11.53 38.64 11.53 39.2 11.53 43.13 11.53 43.13 10.97 39.2 10.97 38.64 10.97"/><polygon class="cls-1" points="33.59 8.72 33.59 8.16 33.59 7.6 33.03 7.6 33.03 8.16 33.03 8.72 33.03 9.28 33.03 9.84 33.59 9.84 33.59 9.28 33.59 8.72"/></g><rect class="cls-1" x="34.15" y="8.16" width=".56" height="2.81"/><rect class="cls-1" x="35.83" y="8.72" width=".56" height="1.68"/><rect class="cls-3" x="39.76" y="8.16" width=".56" height="1.12"/><rect class="cls-3" x="39.2" y="8.16" width=".56" height="1.12"/><g><rect class="cls-1" x="33.59" y="7.6" width=".56" height="2.24"/><polygon class="cls-1" points="34.71 8.72 34.71 10.97 35.27 10.97 35.83 10.97 35.83 8.72 35.27 8.72 34.71 8.72"/><polygon class="cls-1" points="43.13 9.28 42.57 9.28 42 9.28 42 8.72 41.44 8.72 40.88 8.72 40.88 9.28 40.32 9.28 40.32 9.84 39.76 9.84 39.2 9.84 38.64 9.84 38.64 9.28 38.08 9.28 37.52 9.28 37.52 8.72 36.95 8.72 36.95 8.16 36.39 8.16 36.39 10.41 36.95 10.41 37.52 10.41 38.08 10.41 38.08 10.97 38.64 10.97 39.2 10.97 39.76 10.97 40.32 10.97 40.88 10.97 41.44 10.97 42 10.97 42.57 10.97 43.13 10.97 43.13 10.41 43.69 10.41 43.69 9.28 43.13 9.28"/></g><polygon class="cls-5" points="38.64 7.6 38.64 7.04 38.08 7.04 38.08 6.48 37.52 6.48 37.52 5.92 36.95 5.92 36.39 5.92 36.39 7.04 36.95 7.04 36.95 8.16 37.52 8.16 37.52 8.72 38.08 8.72 38.64 8.72 38.64 8.16 39.2 8.16 39.2 7.6 38.64 7.6"/><rect class="cls-3" x="38.64" y="8.72" width=".56" height=".56"/><rect class="cls-3" x="40.32" y="8.16" width=".56" height=".56"/><polygon class="cls-5" points="39.2 8.16 39.2 8.72 38.64 8.72 38.64 9.28 40.32 9.28 40.32 8.72 40.88 8.72 40.88 8.16 39.2 8.16"/><rect class="cls-5" x="33.59" y="10.97" width="2.24" height=".56"/><rect class="cls-5" x="38.08" y="10.97" width="5.05" height=".56"/><rect class="cls-5" x="35.83" y="10.41" width=".56" height=".56"/><rect class="cls-5" x="36.39" y="10.41" width=".56" height=".56"/><rect class="cls-5" x="36.95" y="10.41" width=".56" height=".56"/><rect class="cls-5" x="37.52" y="10.41" width=".56" height=".56"/><rect class="cls-5" x="36.39" y="7.6" width=".56" height=".56"/><rect class="cls-5" x="36.39" y="7.04" width=".56" height=".56"/><rect class="cls-5" x="35.83" y="6.48" width=".56" height=".56"/><rect class="cls-5" x="35.83" y="5.92" width=".56" height=".56"/><rect class="cls-5" x="36.39" y="5.35" width=".56" height=".56"/><rect class="cls-5" x="36.95" y="5.35" width=".56" height=".56"/><rect class="cls-4" x="38.64" y="8.16" width=".56" height=".56"/><rect class="cls-4" x="38.08" y="8.72" width=".56" height=".56"/><rect class="cls-4" x="38.64" y="9.28" width=".56" height=".56"/><rect class="cls-4" x="39.2" y="9.28" width=".56" height=".56"/><rect class="cls-4" x="39.76" y="9.28" width=".56" height=".56"/><rect class="cls-4" x="40.32" y="8.72" width=".56" height=".56"/></g><g><g><polygon class="cls-1" points="18.68 11.06 18.12 11.06 18.12 10.5 18.12 9.94 17.56 9.94 17.56 10.5 17.56 11.06 17.56 11.62 18.12 11.62 18.68 11.62 19.24 11.62 19.81 11.62 19.81 11.06 19.24 11.06 18.68 11.06"/><polygon class="cls-1" points="21.49 10.5 20.93 10.5 20.37 10.5 19.81 10.5 19.81 11.06 20.37 11.06 20.93 11.06 21.49 11.06 22.05 11.06 22.05 10.5 21.49 10.5"/><rect class="cls-1" x="27.1" y="10.5" width=".56" height=".56"/><polygon class="cls-1" points="27.66 9.38 27.66 9.94 27.66 10.5 28.22 10.5 28.22 9.94 28.22 9.38 27.66 9.38"/><polygon class="cls-1" points="26.54 9.38 27.1 9.38 27.66 9.38 27.66 8.82 27.1 8.82 26.54 8.82 25.98 8.82 25.98 9.38 26.54 9.38"/><polygon class="cls-1" points="25.42 8.82 25.98 8.82 25.98 8.26 25.42 8.26 24.86 8.26 24.86 8.82 25.42 8.82"/><rect class="cls-1" x="24.3" y="8.82" width=".56" height=".56"/><polygon class="cls-1" points="23.17 9.38 22.61 9.38 22.61 9.94 23.17 9.94 23.73 9.94 24.3 9.94 24.3 9.38 23.73 9.38 23.17 9.38"/><polygon class="cls-1" points="22.05 8.82 21.49 8.82 21.49 9.38 22.05 9.38 22.61 9.38 22.61 8.82 22.05 8.82"/><rect class="cls-1" x="22.61" y="8.26" width=".56" height=".56"/><polygon class="cls-1" points="23.73 8.26 24.3 8.26 24.86 8.26 24.86 7.69 24.3 7.69 23.73 7.69 23.17 7.69 23.17 8.26 23.73 8.26"/><rect class="cls-1" x="22.61" y="7.13" width=".56" height=".56"/><rect class="cls-1" x="22.05" y="6.57" width=".56" height=".56"/><polygon class="cls-1" points="21.49 6.01 21.49 5.45 20.93 5.45 20.37 5.45 20.37 6.01 20.93 6.01 21.49 6.01"/><polygon class="cls-1" points="20.37 6.01 19.81 6.01 19.81 6.57 19.81 7.13 20.37 7.13 20.37 6.57 20.37 6.01"/><rect class="cls-1" x="17.56" y="7.13" width=".56" height=".56"/><rect class="cls-1" x="18.12" y="7.69" width=".56" height=".56"/><polygon class="cls-1" points="19.24 8.82 19.81 8.82 20.37 8.82 20.37 8.26 19.81 8.26 19.24 8.26 18.68 8.26 18.68 8.82 19.24 8.82"/><polygon class="cls-1" points="20.93 7.69 20.93 7.13 20.37 7.13 20.37 7.69 20.37 8.26 20.93 8.26 20.93 7.69"/><rect class="cls-1" x="21.49" y="6.01" width=".56" height=".56"/><rect class="cls-1" x="20.93" y="8.26" width=".56" height=".56"/><polygon class="cls-1" points="22.61 11.06 22.05 11.06 22.05 11.62 22.61 11.62 23.17 11.62 27.1 11.62 27.1 11.06 23.17 11.06 22.61 11.06"/><polygon class="cls-1" points="17.56 8.82 17.56 8.26 17.56 7.69 17 7.69 17 8.26 17 8.82 17 9.38 17 9.94 17.56 9.94 17.56 9.38 17.56 8.82"/></g><rect class="cls-1" x="18.12" y="8.26" width=".56" height="2.81"/><rect class="cls-1" x="19.81" y="8.82" width=".56" height="1.68"/><rect class="cls-3" x="23.73" y="8.26" width=".56" height="1.12"/><rect class="cls-3" x="23.17" y="8.26" width=".56" height="1.12"/><g><rect class="cls-1" x="17.56" y="7.69" width=".56" height="2.24"/><polygon class="cls-1" points="18.68 8.82 18.68 11.06 19.24 11.06 19.81 11.06 19.81 8.82 19.24 8.82 18.68 8.82"/><polygon class="cls-1" points="27.1 9.38 26.54 9.38 25.98 9.38 25.98 8.82 25.42 8.82 24.86 8.82 24.86 9.38 24.3 9.38 24.3 9.94 23.73 9.94 23.17 9.94 22.61 9.94 22.61 9.38 22.05 9.38 21.49 9.38 21.49 8.82 20.93 8.82 20.93 8.26 20.37 8.26 20.37 10.5 20.93 10.5 21.49 10.5 22.05 10.5 22.05 11.06 22.61 11.06 23.17 11.06 23.73 11.06 24.3 11.06 24.86 11.06 25.42 11.06 25.98 11.06 26.54 11.06 27.1 11.06 27.1 10.5 27.66 10.5 27.66 9.38 27.1 9.38"/></g><polygon class="cls-5" points="22.61 7.69 22.61 7.13 22.05 7.13 22.05 6.57 21.49 6.57 21.49 6.01 20.93 6.01 20.37 6.01 20.37 7.13 20.93 7.13 20.93 8.26 21.49 8.26 21.49 8.82 22.05 8.82 22.61 8.82 22.61 8.26 23.17 8.26 23.17 7.69 22.61 7.69"/><rect class="cls-3" x="22.61" y="8.82" width=".56" height=".56"/><rect class="cls-3" x="24.3" y="8.26" width=".56" height=".56"/><polygon class="cls-5" points="23.17 8.26 23.17 8.82 22.61 8.82 22.61 9.38 24.3 9.38 24.3 8.82 24.86 8.82 24.86 8.26 23.17 8.26"/><rect class="cls-5" x="17.56" y="11.06" width="2.24" height=".56"/><rect class="cls-5" x="22.05" y="11.06" width="5.05" height=".56"/><rect class="cls-5" x="19.81" y="10.5" width=".56" height=".56"/><rect class="cls-5" x="20.37" y="10.5" width=".56" height=".56"/><rect class="cls-5" x="20.93" y="10.5" width=".56" height=".56"/><rect class="cls-5" x="21.49" y="10.5" width=".56" height=".56"/><rect class="cls-5" x="20.37" y="7.69" width=".56" height=".56"/><rect class="cls-5" x="20.37" y="7.13" width=".56" height=".56"/><rect class="cls-5" x="19.81" y="6.57" width=".56" height=".56"/><rect class="cls-5" x="19.81" y="6.01" width=".56" height=".56"/><rect class="cls-5" x="20.37" y="5.45" width=".56" height=".56"/><rect class="cls-5" x="20.93" y="5.45" width=".56" height=".56"/><rect class="cls-4" x="22.61" y="8.26" width=".56" height=".56"/><rect class="cls-4" x="22.05" y="8.82" width=".56" height=".56"/><rect class="cls-4" x="22.61" y="9.38" width=".56" height=".56"/><rect class="cls-4" x="23.17" y="9.38" width=".56" height=".56"/><rect class="cls-4" x="23.73" y="9.38" width=".56" height=".56"/><rect class="cls-4" x="24.3" y="8.82" width=".56" height=".56"/></g><g><rect class="cls-1" x="48.89" y="8.04" width=".51" height="1.17"/><rect class="cls-5" x="51.42" y="10.38" width=".51" height="1.17"/><rect class="cls-5" x="51.93" y="9.8" width=".51" height="1.17"/><rect class="cls-5" x="52.44" y="8.62" width=".51" height="1.76"/><rect class="cls-5" x="52.95" y="8.04" width=".51" height="1.17"/><rect class="cls-5" x="53.45" y="7.45" width=".51" height="1.17"/><rect class="cls-5" x="54.47" y="6.87" width=".51" height="1.17"/><rect class="cls-5" x="54.98" y="6.28" width=".51" height="1.17"/><rect class="cls-5" x="55.48" y="5.69" width=".51" height="1.17"/><rect class="cls-5" x="55.99" y="5.11" width=".51" height="1.17"/><rect class="cls-5" x="56.5" y="4.52" width=".51" height="1.17"/><rect class="cls-5" x="57.01" y="3.94" width=".51" height="1.17"/><rect class="cls-5" x="53.96" y="7.45" width=".51" height=".59"/><rect class="cls-1" x="49.39" y="8.04" width=".51" height="1.76"/><polygon class="cls-1" points="57.51 2.18 57.01 2.18 57.01 1.59 56.5 1.59 55.99 1.59 55.99 2.18 55.48 2.18 55.48 2.76 54.98 2.76 54.98 5.69 54.47 5.69 54.47 6.28 53.96 6.28 53.45 6.28 52.95 6.28 52.44 6.28 51.93 6.28 51.93 6.87 51.42 6.87 50.92 6.87 50.92 7.45 50.41 7.45 50.41 8.04 49.9 8.04 49.9 10.38 50.41 10.38 50.92 10.38 50.92 10.97 51.42 10.97 51.42 10.38 51.93 10.38 51.93 9.8 52.44 9.8 52.44 8.62 52.95 8.62 52.95 8.04 53.45 8.04 53.45 7.45 53.96 7.45 54.47 7.45 54.47 6.87 54.98 6.87 54.98 6.28 55.48 6.28 55.48 5.69 55.99 5.69 55.99 5.11 56.5 5.11 56.5 4.52 57.01 4.52 57.01 3.94 57.51 3.94 58.02 3.94 58.02 2.18 57.51 2.18"/><rect class="cls-1" x="57.01" y="1.59" width=".51" height=".59"/><rect class="cls-5" x="57.51" y="3.94" width=".51" height=".59"/><rect class="cls-5" x="49.39" y="5.11" width=".51" height="1.17"/><rect class="cls-5" x="49.9" y="4.52" width=".51" height="1.76"/><rect class="cls-5" x="50.41" y="4.52" width=".51" height="1.76"/><rect class="cls-5" x="50.92" y="4.52" width=".51" height="1.76"/><rect class="cls-5" x="51.42" y="3.94" width=".51" height="2.34"/><rect class="cls-5" x="51.93" y="3.94" width=".51" height="2.34"/><rect class="cls-5" x="52.44" y="3.94" width=".51" height="2.34"/><rect class="cls-1" x="52.95" y="3.35" width=".51" height=".59"/><rect class="cls-1" x="53.45" y="3.35" width=".51" height=".59"/><rect class="cls-1" x="53.96" y="3.35" width=".51" height=".59"/><rect class="cls-1" x="54.47" y="3.35" width=".51" height=".59"/><rect class="cls-1" x="54.47" y="2.76" width=".51" height=".59"/><rect class="cls-2" x="52.95" y="3.94" width=".51" height=".59"/><rect class="cls-2" x="53.45" y="3.94" width=".51" height="1.76"/><rect class="cls-2" x="53.96" y="4.52" width=".51" height=".59"/><rect class="cls-4" x="52.95" y="4.52" width=".51" height=".59"/><rect class="cls-4" x="52.95" y="3.94" width=".51" height=".59"/><rect class="cls-4" x="52.95" y="3.35" width=".51" height=".59"/><rect class="cls-4" x="53.45" y="3.35" width=".51" height=".59"/><rect class="cls-4" x="52.95" y="3.94" width=".51" height=".59"/><rect class="cls-4" x="52.95" y="5.11" width=".51" height=".59"/><rect class="cls-4" x="52.95" y="5.69" width=".51" height=".59"/><rect class="cls-4" x="53.45" y="5.69" width=".51" height=".59"/><rect class="cls-4" x="53.96" y="5.69" width=".51" height=".59"/><rect class="cls-4" x="53.96" y="5.11" width=".51" height=".59"/><rect class="cls-4" x="54.47" y="5.11" width=".51" height=".59"/><rect class="cls-4" x="54.47" y="4.52" width=".51" height=".59"/><rect class="cls-4" x="54.47" y="3.94" width=".51" height=".59"/><rect class="cls-4" x="53.96" y="3.94" width=".51" height=".59"/><rect class="cls-5" x="53.45" y="4.52" width=".51" height="1.17"/><rect class="cls-5" x="53.96" y="4.52" width=".51" height=".59"/><rect class="cls-5" x="53.45" y="3.94" width=".51" height=".59"/><rect class="cls-4" x="52.95" y="3.94" width=".51" height=".59"/></g></svg>