<?xml version="1.0" encoding="UTF-8"?><svg id="Calque_4" xmlns="http://www.w3.org/2000/svg" viewBox="0 0 32 16"><defs><style>.cls-1{fill:#f9f919;}.cls-2{fill:#fff;}.cls-3{fill:#e5c400;}</style></defs><g><rect class="cls-3" x="25.48" y="11.15" width="4.2" height=".7"/><rect class="cls-3" x="18.48" y="11.15" width="4.2" height=".7"/><rect class="cls-3" x="24.78" y="10.45" width=".7" height=".7"/><rect class="cls-3" x="22.68" y="10.45" width=".7" height=".7"/><rect class="cls-1" x="23.38" y="9.75" width="1.4" height=".7"/><rect class="cls-1" x="17.78" y="10.45" width=".7" height=".7"/><rect class="cls-1" x="17.08" y="8.35" width=".7" height="2.1"/><rect class="cls-1" x="17.78" y="7.65" width=".7" height=".7"/><rect class="cls-1" x="18.48" y="6.95" width="2.1" height=".7"/><rect class="cls-1" x="20.58" y="6.25" width=".7" height=".7"/><rect class="cls-1" x="21.28" y="5.55" width=".7" height=".7"/><rect class="cls-1" x="29.68" y="9.75" width=".7" height="1.4"/><rect class="cls-1" x="30.38" y="8.35" width=".7" height="1.4"/><rect class="cls-1" x="28.98" y="7.65" width="1.4" height=".7"/><rect class="cls-3" x="28.98" y="6.25" width=".7" height=".7"/><polygon class="cls-3" points="28.98 4.85 28.98 5.55 29.68 5.55 29.68 6.25 30.38 6.25 30.38 4.85 28.98 4.85"/><rect class="cls-3" x="28.28" y="5.55" width=".7" height=".7"/><polygon class="cls-3" points="25.48 7.65 25.48 8.35 26.18 8.35 26.18 9.05 27.58 9.05 27.58 8.35 26.88 8.35 26.88 7.65 25.48 7.65"/><rect class="cls-1" x="21.28" y="6.25" width=".7" height="1.4"/><polygon class="cls-1" points="18.48 8.35 18.48 7.65 19.18 7.65 19.88 7.65 20.58 7.65 20.58 6.95 21.28 6.95 21.28 8.35 21.98 8.35 21.98 5.55 22.68 5.55 22.68 4.85 23.38 4.85 23.38 5.55 24.08 5.55 24.08 6.95 24.78 6.95 24.78 7.65 25.48 7.65 25.48 8.35 26.18 8.35 26.18 9.05 27.58 9.05 27.58 8.35 28.28 8.35 28.28 7.65 28.98 7.65 28.98 8.35 30.38 8.35 30.38 9.75 29.68 9.75 29.68 10.45 24.78 10.45 24.78 9.75 24.08 9.75 23.38 9.75 23.38 10.45 22.68 10.45 22.68 11.15 21.98 11.15 21.28 11.15 20.58 11.15 19.88 11.15 19.18 11.15 18.48 11.15 18.48 10.45 17.78 10.45 17.78 8.35 18.48 8.35"/><rect class="cls-1" x="24.78" y="9.75" width=".7" height=".7"/><rect class="cls-1" x="22.68" y="9.75" width=".7" height=".7"/><rect class="cls-1" x="25.48" y="10.45" width="4.2" height=".7"/><rect class="cls-1" x="18.48" y="10.45" width=".7" height=".7"/><rect class="cls-1" x="21.28" y="10.45" width=".7" height=".7"/><rect class="cls-1" x="21.98" y="10.45" width=".7" height=".7"/><rect class="cls-1" x="20.58" y="10.45" width=".7" height=".7"/><rect class="cls-1" x="19.88" y="10.45" width=".7" height=".7"/><rect class="cls-3" x="19.88" y="9.05" width=".7" height=".7" transform="translate(40.46 18.8) rotate(180)"/><rect class="cls-3" x="19.18" y="7.65" width=".7" height=".7"/><rect class="cls-3" x="21.28" y="9.05" width=".7" height=".7" transform="translate(43.26 18.8) rotate(180)"/><rect class="cls-3" x="18.48" y="9.05" width=".7" height=".7" transform="translate(37.66 18.8) rotate(180)"/><rect class="cls-1" x="19.18" y="10.45" width=".7" height=".7"/><rect class="cls-3" x="26.88" y="7.65" width=".7" height=".7"/><rect class="cls-3" x="27.58" y="6.95" width=".7" height=".7"/><rect class="cls-3" x="28.28" y="6.25" width=".7" height=".7"/><rect class="cls-3" x="28.98" y="5.55" width=".7" height=".7"/><rect class="cls-3" x="28.28" y="6.95" width=".7" height=".7"/><rect class="cls-3" x="27.58" y="7.65" width=".7" height=".7"/><rect class="cls-1" x="24.78" y="6.95" width=".7" height=".7"/><rect class="cls-1" x="24.08" y="5.55" width=".7" height="1.4"/><rect class="cls-1" x="23.38" y="4.85" width=".7" height=".7"/><rect class="cls-1" x="22.68" y="4.15" width=".7" height=".7"/><rect class="cls-1" x="21.98" y="4.85" width=".7" height=".7"/><rect class="cls-3" x="26.88" y="6.95" width=".7" height=".7"/><rect class="cls-3" x="27.58" y="6.25" width=".7" height=".7"/><polygon class="cls-2" points="21.98 6.95 21.98 6.25 22.68 6.25 23.38 6.25 23.38 6.95 23.38 7.65 22.68 7.65 22.68 8.35 21.98 8.35 21.98 7.65 21.28 7.65 21.28 6.95 21.98 6.95"/><rect x="21.28" y="7.65" width=".7" height=".7"/></g><g><rect class="cls-3" x="9.4" y="11.15" width="4.2" height=".7"/><rect class="cls-3" x="2.4" y="11.15" width="4.2" height=".7"/><rect class="cls-3" x="8.7" y="10.45" width=".7" height=".7"/><rect class="cls-3" x="6.6" y="10.45" width=".7" height=".7"/><rect class="cls-1" x="7.3" y="9.75" width="1.4" height=".7"/><rect class="cls-1" x="1.7" y="10.45" width=".7" height=".7"/><rect class="cls-1" x="1" y="8.35" width=".7" height="2.1"/><rect class="cls-1" x="1.7" y="7.65" width=".7" height=".7"/><rect class="cls-1" x="2.4" y="6.95" width="2.1" height=".7"/><rect class="cls-1" x="4.5" y="6.25" width=".7" height=".7"/><rect class="cls-1" x="5.2" y="5.55" width=".7" height=".7"/><rect class="cls-1" x="13.6" y="9.75" width=".7" height="1.4"/><rect class="cls-1" x="14.3" y="8.35" width=".7" height="1.4"/><rect class="cls-1" x="12.9" y="7.65" width="1.4" height=".7"/><rect class="cls-3" x="12.9" y="6.25" width=".7" height=".7"/><polygon class="cls-3" points="12.9 4.85 12.9 5.55 13.6 5.55 13.6 6.25 14.3 6.25 14.3 4.85 12.9 4.85"/><rect class="cls-3" x="12.2" y="5.55" width=".7" height=".7"/><polygon class="cls-3" points="9.4 7.65 9.4 8.35 10.1 8.35 10.1 9.05 11.5 9.05 11.5 8.35 10.8 8.35 10.8 7.65 9.4 7.65"/><rect class="cls-1" x="5.2" y="6.25" width=".7" height="1.4"/><polygon class="cls-1" points="2.4 8.35 2.4 7.65 3.1 7.65 3.8 7.65 4.5 7.65 4.5 6.95 5.2 6.95 5.2 8.35 5.9 8.35 5.9 5.55 6.6 5.55 6.6 4.85 7.3 4.85 7.3 5.55 8 5.55 8 6.95 8.7 6.95 8.7 7.65 9.4 7.65 9.4 8.35 10.1 8.35 10.1 9.05 11.5 9.05 11.5 8.35 12.2 8.35 12.2 7.65 12.9 7.65 12.9 8.35 14.3 8.35 14.3 9.75 13.6 9.75 13.6 10.45 8.7 10.45 8.7 9.75 8 9.75 7.3 9.75 7.3 10.45 6.6 10.45 6.6 11.15 5.9 11.15 5.2 11.15 4.5 11.15 3.8 11.15 3.1 11.15 2.4 11.15 2.4 10.45 1.7 10.45 1.7 8.35 2.4 8.35"/><rect class="cls-1" x="8.7" y="9.75" width=".7" height=".7"/><rect class="cls-1" x="6.6" y="9.75" width=".7" height=".7"/><rect class="cls-1" x="9.4" y="10.45" width="4.2" height=".7"/><rect class="cls-1" x="2.4" y="10.45" width=".7" height=".7"/><rect class="cls-1" x="5.2" y="10.45" width=".7" height=".7"/><rect class="cls-1" x="5.9" y="10.45" width=".7" height=".7"/><rect class="cls-1" x="4.5" y="10.45" width=".7" height=".7"/><rect class="cls-1" x="3.8" y="10.45" width=".7" height=".7"/><rect class="cls-3" x="3.8" y="9.05" width=".7" height=".7" transform="translate(8.3 18.8) rotate(180)"/><rect class="cls-3" x="3.1" y="7.65" width=".7" height=".7"/><rect class="cls-3" x="5.2" y="9.05" width=".7" height=".7" transform="translate(11.1 18.8) rotate(180)"/><rect class="cls-3" x="2.4" y="9.05" width=".7" height=".7" transform="translate(5.5 18.8) rotate(180)"/><rect class="cls-1" x="3.1" y="10.45" width=".7" height=".7"/><rect class="cls-3" x="10.8" y="7.65" width=".7" height=".7"/><rect class="cls-3" x="11.5" y="6.95" width=".7" height=".7"/><rect class="cls-3" x="12.2" y="6.25" width=".7" height=".7"/><rect class="cls-3" x="12.9" y="5.55" width=".7" height=".7"/><rect class="cls-3" x="12.2" y="6.95" width=".7" height=".7"/><rect class="cls-3" x="11.5" y="7.65" width=".7" height=".7"/><rect class="cls-1" x="8.7" y="6.95" width=".7" height=".7"/><rect class="cls-1" x="8" y="5.55" width=".7" height="1.4"/><rect class="cls-1" x="7.3" y="4.85" width=".7" height=".7"/><rect class="cls-1" x="6.6" y="4.15" width=".7" height=".7"/><rect class="cls-1" x="5.9" y="4.85" width=".7" height=".7"/><rect class="cls-3" x="10.8" y="6.95" width=".7" height=".7"/><rect class="cls-3" x="11.5" y="6.25" width=".7" height=".7"/><polygon class="cls-2" points="5.9 6.95 5.9 6.25 6.6 6.25 7.3 6.25 7.3 6.95 7.3 7.65 6.6 7.65 6.6 8.35 5.9 8.35 5.9 7.65 5.2 7.65 5.2 6.95 5.9 6.95"/><rect x="5.2" y="7.65" width=".7" height=".7"/></g></svg>