<?xml version="1.0" encoding="UTF-8"?><svg id="Calque_1" xmlns="http://www.w3.org/2000/svg" viewBox="0 0 48 16"><defs><style>.cls-1,.cls-2{fill:#68ace5;}.cls-2{fill-rule:evenodd;}</style></defs><path class="cls-1" d="M42,10v1h1v-1h-1Z"/><path class="cls-2" d="M1,11V4H7v1h1v3h-2v1h1v1h1v1h-3v-1h-1v-1h-1v2H1Zm2-3v-3h3v2h-1v1H3Z"/><path class="cls-1" d="M10,11h6v-1h-4v-2h3v-1h-3v-2h4v-1h-6v7Z"/><path class="cls-2" d="M17,11V6h1v-1h1v-1h3v1h1v1h1v5h-2v-2h-3v2h-2Zm2-3v-2h1v-1h1v1h1v2h-3Z"/><path class="cls-2" d="M25,11V4h5v1h1v1h1v3h-1v1h-1v1h-5Zm2-1V5h2v1h1v3h-1v1h-2Z"/><path class="cls-1" d="M36,8v3h2v-3h1v-1h1v-3h-2v3h-2v-3h-2v3h1v1h1Z"/><path class="cls-1" d="M43,6v3h1v-1h1v-1h1v-1h1v-2h-3v2h-1Z"/></svg>