<?xml version="1.0" encoding="UTF-8"?><svg id="Calque_2" xmlns="http://www.w3.org/2000/svg" viewBox="0 0 16 16"><defs><style>.cls-1{fill:#68ace5;}.cls-2{fill:#007fc6;}.cls-3{fill:#fff;}.cls-4{fill:#224256;}.cls-5{fill:#38749e;}</style></defs><g><g><polygon class="cls-2" points="10.14 10.43 10.67 10.43 10.67 9.9 10.67 9.36 11.21 9.36 11.21 9.9 11.21 10.43 11.21 10.97 10.67 10.97 10.14 10.97 9.6 10.97 9.06 10.97 9.06 10.43 9.6 10.43 10.14 10.43"/><polygon class="cls-2" points="7.46 9.9 7.99 9.9 8.53 9.9 9.06 9.9 9.06 10.43 8.53 10.43 7.99 10.43 7.46 10.43 6.92 10.43 6.92 9.9 7.46 9.9"/><rect class="cls-2" x="1.56" y="9.9" width=".54" height=".54"/><polygon class="cls-2" points="1.56 8.82 1.56 9.36 1.56 9.9 1.03 9.9 1.03 9.36 1.03 8.82 1.56 8.82"/><polygon class="cls-2" points="2.64 8.82 2.1 8.82 1.56 8.82 1.56 8.29 2.1 8.29 2.64 8.29 3.17 8.29 3.17 8.82 2.64 8.82"/><polygon class="cls-2" points="3.71 8.29 3.17 8.29 3.17 7.75 3.71 7.75 4.24 7.75 4.24 8.29 3.71 8.29"/><rect class="cls-2" x="4.24" y="8.29" width=".54" height=".54"/><polygon class="cls-2" points="5.85 8.82 6.39 8.82 6.39 9.36 5.85 9.36 5.31 9.36 4.78 9.36 4.78 8.82 5.31 8.82 5.85 8.82"/><polygon class="cls-2" points="6.92 8.29 7.46 8.29 7.46 8.82 6.92 8.82 6.39 8.82 6.39 8.29 6.92 8.29"/><rect class="cls-2" x="5.85" y="7.75" width=".54" height=".54"/><polygon class="cls-2" points="5.31 7.75 4.78 7.75 4.24 7.75 4.24 7.22 4.78 7.22 5.31 7.22 5.85 7.22 5.85 7.75 5.31 7.75"/><rect class="cls-2" x="5.85" y="6.68" width=".54" height=".54"/><rect class="cls-2" x="6.39" y="6.15" width=".54" height=".54"/><polygon class="cls-2" points="7.46 5.61 7.46 5.07 7.99 5.07 8.53 5.07 8.53 5.61 7.99 5.61 7.46 5.61"/><polygon class="cls-2" points="8.53 5.61 9.06 5.61 9.06 6.15 9.06 6.68 8.53 6.68 8.53 6.15 8.53 5.61"/><rect class="cls-2" x="10.67" y="6.68" width=".54" height=".54"/><rect class="cls-2" x="10.14" y="7.22" width=".54" height=".54"/><polygon class="cls-2" points="9.6 8.29 9.06 8.29 8.53 8.29 8.53 7.75 9.06 7.75 9.6 7.75 10.14 7.75 10.14 8.29 9.6 8.29"/><polygon class="cls-2" points="7.99 7.22 7.99 6.68 8.53 6.68 8.53 7.22 8.53 7.75 7.99 7.75 7.99 7.22"/><rect class="cls-2" x="6.92" y="5.61" width=".54" height=".54"/><rect class="cls-2" x="7.46" y="7.75" width=".54" height=".54"/><polygon class="cls-2" points="6.39 10.43 6.92 10.43 6.92 10.97 6.39 10.97 5.85 10.97 2.1 10.97 2.1 10.43 5.85 10.43 6.39 10.43"/><polygon class="cls-2" points="11.21 8.29 11.21 7.75 11.21 7.22 11.74 7.22 11.74 7.75 11.74 8.29 11.74 8.82 11.74 9.36 11.21 9.36 11.21 8.82 11.21 8.29"/></g><rect class="cls-2" x="10.14" y="7.75" width=".54" height="2.68" transform="translate(20.81 18.18) rotate(180)"/><rect class="cls-2" x="8.53" y="8.29" width=".54" height="1.61" transform="translate(17.59 18.18) rotate(180)"/><rect class="cls-2" x="4.78" y="7.75" width=".54" height="1.07" transform="translate(10.09 16.58) rotate(180)"/><rect class="cls-2" x="5.31" y="7.75" width=".54" height="1.07" transform="translate(11.16 16.58) rotate(180)"/><g><rect class="cls-2" x="10.67" y="7.22" width=".54" height="2.14"/><polygon class="cls-2" points="10.14 8.29 10.14 10.43 9.6 10.43 9.06 10.43 9.06 8.29 9.6 8.29 10.14 8.29"/><polygon class="cls-2" points="2.1 8.82 2.64 8.82 3.17 8.82 3.17 8.29 3.71 8.29 4.24 8.29 4.24 8.82 4.78 8.82 4.78 9.36 5.31 9.36 5.85 9.36 6.39 9.36 6.39 8.82 6.92 8.82 7.46 8.82 7.46 8.29 7.99 8.29 7.99 7.75 8.53 7.75 8.53 9.9 7.99 9.9 7.46 9.9 6.92 9.9 6.92 10.43 6.39 10.43 5.85 10.43 5.31 10.43 4.78 10.43 4.24 10.43 3.71 10.43 3.17 10.43 2.64 10.43 2.1 10.43 2.1 9.9 1.56 9.9 1.56 8.82 2.1 8.82"/></g><polygon class="cls-2" points="6.39 7.22 6.39 6.68 6.92 6.68 6.92 6.15 7.46 6.15 7.46 5.61 7.99 5.61 8.53 5.61 8.53 6.68 7.99 6.68 7.99 7.75 7.46 7.75 7.46 8.29 6.92 8.29 6.39 8.29 6.39 7.75 5.85 7.75 5.85 7.22 6.39 7.22"/><rect class="cls-2" x="5.85" y="8.29" width=".54" height=".54" transform="translate(12.24 17.11) rotate(180)"/><rect class="cls-2" x="4.24" y="7.75" width=".54" height=".54" transform="translate(9.02 16.04) rotate(180)"/><polygon class="cls-2" points="5.85 7.75 5.85 8.29 6.39 8.29 6.39 8.82 4.78 8.82 4.78 8.29 4.24 8.29 4.24 7.75 5.85 7.75"/><rect class="cls-2" x="9.06" y="9.9" width="1.61" height=".54" transform="translate(19.73 20.33) rotate(180)"/><rect class="cls-2" x="2.1" y="9.9" width="4.82" height=".54" transform="translate(9.02 20.33) rotate(180)"/></g><g><g><polygon class="cls-1" points="12.28 11.03 12.84 11.03 12.84 10.47 12.84 9.91 13.4 9.91 13.4 10.47 13.4 11.03 13.4 11.59 12.84 11.59 12.28 11.59 11.72 11.59 11.16 11.59 11.16 11.03 11.72 11.03 12.28 11.03"/><polygon class="cls-1" points="9.47 10.47 10.03 10.47 10.59 10.47 11.16 10.47 11.16 11.03 10.59 11.03 10.03 11.03 9.47 11.03 8.91 11.03 8.91 10.47 9.47 10.47"/><rect class="cls-1" x="3.3" y="10.47" width=".56" height=".56"/><polygon class="cls-1" points="3.3 9.35 3.3 9.91 3.3 10.47 2.74 10.47 2.74 9.91 2.74 9.35 3.3 9.35"/><polygon class="cls-1" points="4.42 9.35 3.86 9.35 3.3 9.35 3.3 8.79 3.86 8.79 4.42 8.79 4.98 8.79 4.98 9.35 4.42 9.35"/><polygon class="cls-1" points="5.54 8.79 4.98 8.79 4.98 8.23 5.54 8.23 6.1 8.23 6.1 8.79 5.54 8.79"/><rect class="cls-1" x="6.1" y="8.79" width=".56" height=".56"/><polygon class="cls-1" points="7.79 9.35 8.35 9.35 8.35 9.91 7.79 9.91 7.23 9.91 6.67 9.91 6.67 9.35 7.23 9.35 7.79 9.35"/><polygon class="cls-1" points="8.91 8.79 9.47 8.79 9.47 9.35 8.91 9.35 8.35 9.35 8.35 8.79 8.91 8.79"/><rect class="cls-1" x="7.79" y="8.23" width=".56" height=".56"/><polygon class="cls-1" points="7.23 8.23 6.67 8.23 6.1 8.23 6.1 7.67 6.67 7.67 7.23 7.67 7.79 7.67 7.79 8.23 7.23 8.23"/><rect class="cls-1" x="7.79" y="7.1" width=".56" height=".56"/><rect class="cls-1" x="8.35" y="6.54" width=".56" height=".56"/><polygon class="cls-1" points="9.47 5.98 9.47 5.42 10.03 5.42 10.59 5.42 10.59 5.98 10.03 5.98 9.47 5.98"/><polygon class="cls-1" points="10.59 5.98 11.16 5.98 11.16 6.54 11.16 7.1 10.59 7.1 10.59 6.54 10.59 5.98"/><rect class="cls-1" x="12.84" y="7.1" width=".56" height=".56"/><rect class="cls-1" x="12.28" y="7.67" width=".56" height=".56"/><polygon class="cls-1" points="11.72 8.79 11.16 8.79 10.59 8.79 10.59 8.23 11.16 8.23 11.72 8.23 12.28 8.23 12.28 8.79 11.72 8.79"/><polygon class="cls-1" points="10.03 7.67 10.03 7.1 10.59 7.1 10.59 7.67 10.59 8.23 10.03 8.23 10.03 7.67"/><rect class="cls-1" x="8.91" y="5.98" width=".56" height=".56"/><rect class="cls-1" x="9.47" y="8.23" width=".56" height=".56"/><polygon class="cls-1" points="8.35 11.03 8.91 11.03 8.91 11.59 8.35 11.59 7.79 11.59 3.86 11.59 3.86 11.03 7.79 11.03 8.35 11.03"/><polygon class="cls-1" points="13.4 8.79 13.4 8.23 13.4 7.67 13.96 7.67 13.96 8.23 13.96 8.79 13.96 9.35 13.96 9.91 13.4 9.91 13.4 9.35 13.4 8.79"/></g><rect class="cls-1" x="12.28" y="8.23" width=".56" height="2.81" transform="translate(25.12 19.26) rotate(180)"/><rect class="cls-1" x="10.59" y="8.79" width=".56" height="1.68" transform="translate(21.75 19.26) rotate(180)"/><rect class="cls-3" x="6.67" y="8.23" width=".56" height="1.12" transform="translate(13.89 17.58) rotate(180)"/><rect class="cls-3" x="7.23" y="8.23" width=".56" height="1.12" transform="translate(15.02 17.58) rotate(180)"/><g><rect class="cls-1" x="12.84" y="7.67" width=".56" height="2.24"/><polygon class="cls-1" points="12.28 8.79 12.28 11.03 11.72 11.03 11.16 11.03 11.16 8.79 11.72 8.79 12.28 8.79"/><polygon class="cls-1" points="3.86 9.35 4.42 9.35 4.98 9.35 4.98 8.79 5.54 8.79 6.1 8.79 6.1 9.35 6.67 9.35 6.67 9.91 7.23 9.91 7.79 9.91 8.35 9.91 8.35 9.35 8.91 9.35 9.47 9.35 9.47 8.79 10.03 8.79 10.03 8.23 10.59 8.23 10.59 10.47 10.03 10.47 9.47 10.47 8.91 10.47 8.91 11.03 8.35 11.03 7.79 11.03 7.23 11.03 6.67 11.03 6.1 11.03 5.54 11.03 4.98 11.03 4.42 11.03 3.86 11.03 3.86 10.47 3.3 10.47 3.3 9.35 3.86 9.35"/></g><polygon class="cls-5" points="8.35 7.67 8.35 7.1 8.91 7.1 8.91 6.54 9.47 6.54 9.47 5.98 10.03 5.98 10.59 5.98 10.59 7.1 10.03 7.1 10.03 8.23 9.47 8.23 9.47 8.79 8.91 8.79 8.35 8.79 8.35 8.23 7.79 8.23 7.79 7.67 8.35 7.67"/><rect class="cls-3" x="7.79" y="8.79" width=".56" height=".56" transform="translate(16.14 18.14) rotate(180)"/><rect class="cls-3" x="6.1" y="8.23" width=".56" height=".56" transform="translate(12.77 17.02) rotate(180)"/><polygon class="cls-5" points="7.79 8.23 7.79 8.79 8.35 8.79 8.35 9.35 6.67 9.35 6.67 8.79 6.1 8.79 6.1 8.23 7.79 8.23"/><rect class="cls-5" x="11.16" y="11.03" width="2.24" height=".56" transform="translate(24.56 22.63) rotate(180)"/><rect class="cls-5" x="3.86" y="11.03" width="5.05" height=".56" transform="translate(12.77 22.63) rotate(180)"/><rect class="cls-5" x="10.59" y="10.47" width=".56" height=".56" transform="translate(21.75 21.51) rotate(180)"/><rect class="cls-5" x="10.03" y="10.47" width=".56" height=".56" transform="translate(20.63 21.51) rotate(180)"/><rect class="cls-5" x="9.47" y="10.47" width=".56" height=".56" transform="translate(19.51 21.51) rotate(180)"/><rect class="cls-5" x="8.91" y="10.47" width=".56" height=".56" transform="translate(18.38 21.51) rotate(180)"/><rect class="cls-5" x="10.03" y="7.67" width=".56" height=".56" transform="translate(20.63 15.89) rotate(180)"/><rect class="cls-5" x="10.03" y="7.1" width=".56" height=".56" transform="translate(20.63 14.77) rotate(180)"/><rect class="cls-5" x="10.59" y="6.54" width=".56" height=".56" transform="translate(21.75 13.65) rotate(180)"/><rect class="cls-5" x="10.59" y="5.98" width=".56" height=".56" transform="translate(21.75 12.53) rotate(180)"/><rect class="cls-5" x="10.03" y="5.42" width=".56" height=".56" transform="translate(20.63 11.4) rotate(180)"/><rect class="cls-5" x="9.47" y="5.42" width=".56" height=".56" transform="translate(19.51 11.4) rotate(180)"/><rect class="cls-4" x="7.79" y="8.23" width=".56" height=".56" transform="translate(16.14 17.02) rotate(180)"/><rect class="cls-4" x="8.35" y="8.79" width=".56" height=".56" transform="translate(17.26 18.14) rotate(180)"/><rect class="cls-4" x="7.79" y="9.35" width=".56" height=".56" transform="translate(16.14 19.26) rotate(180)"/><rect class="cls-4" x="7.23" y="9.35" width=".56" height=".56" transform="translate(15.02 19.26) rotate(180)"/><rect class="cls-4" x="6.67" y="9.35" width=".56" height=".56" transform="translate(13.89 19.26) rotate(180)"/><rect class="cls-4" x="6.1" y="8.79" width=".56" height=".56" transform="translate(12.77 18.14) rotate(180)"/></g></svg>