<?xml version="1.0" encoding="UTF-8"?><svg id="Calque_2" xmlns="http://www.w3.org/2000/svg" viewBox="0 0 32 16"><defs><style>.cls-1{fill:#fff;}.cls-2{fill:#cb93e2;}.cls-3{fill:#9553b7;}</style></defs><g><rect class="cls-3" x="25.4" y="11.15" width="4.2" height=".7"/><rect class="cls-3" x="18.4" y="11.15" width="4.2" height=".7"/><rect class="cls-3" x="24.7" y="10.45" width=".7" height=".7"/><rect class="cls-3" x="22.6" y="10.45" width=".7" height=".7"/><rect class="cls-2" x="23.3" y="9.75" width="1.4" height=".7"/><rect class="cls-2" x="17.7" y="10.45" width=".7" height=".7"/><rect class="cls-2" x="17" y="8.35" width=".7" height="2.1"/><rect class="cls-2" x="17.7" y="7.65" width=".7" height=".7"/><rect class="cls-2" x="18.4" y="6.95" width="2.1" height=".7"/><rect class="cls-2" x="20.5" y="6.25" width=".7" height=".7"/><rect class="cls-2" x="21.2" y="5.55" width=".7" height=".7"/><rect class="cls-2" x="29.6" y="9.75" width=".7" height="1.4"/><rect class="cls-2" x="30.3" y="8.35" width=".7" height="1.4"/><rect class="cls-2" x="28.9" y="7.65" width="1.4" height=".7"/><rect class="cls-3" x="28.9" y="6.25" width=".7" height=".7"/><polygon class="cls-3" points="28.9 4.85 28.9 5.55 29.6 5.55 29.6 6.25 30.3 6.25 30.3 4.85 28.9 4.85"/><rect class="cls-3" x="28.2" y="5.55" width=".7" height=".7"/><polygon class="cls-3" points="25.4 7.65 25.4 8.35 26.1 8.35 26.1 9.05 27.5 9.05 27.5 8.35 26.8 8.35 26.8 7.65 25.4 7.65"/><rect class="cls-2" x="21.2" y="6.25" width=".7" height="1.4"/><polygon class="cls-2" points="18.4 8.35 18.4 7.65 19.1 7.65 19.8 7.65 20.5 7.65 20.5 6.95 21.2 6.95 21.2 8.35 21.9 8.35 21.9 5.55 22.6 5.55 22.6 4.85 23.3 4.85 23.3 5.55 24 5.55 24 6.95 24.7 6.95 24.7 7.65 25.4 7.65 25.4 8.35 26.1 8.35 26.1 9.05 27.5 9.05 27.5 8.35 28.2 8.35 28.2 7.65 28.9 7.65 28.9 8.35 30.3 8.35 30.3 9.75 29.6 9.75 29.6 10.45 24.7 10.45 24.7 9.75 24 9.75 23.3 9.75 23.3 10.45 22.6 10.45 22.6 11.15 21.9 11.15 21.2 11.15 20.5 11.15 19.8 11.15 19.1 11.15 18.4 11.15 18.4 10.45 17.7 10.45 17.7 8.35 18.4 8.35"/><rect class="cls-2" x="24.7" y="9.75" width=".7" height=".7"/><rect class="cls-2" x="22.6" y="9.75" width=".7" height=".7"/><rect class="cls-2" x="25.4" y="10.45" width="4.2" height=".7"/><rect class="cls-2" x="18.4" y="10.45" width=".7" height=".7"/><rect class="cls-2" x="21.2" y="10.45" width=".7" height=".7"/><rect class="cls-2" x="21.9" y="10.45" width=".7" height=".7"/><rect class="cls-2" x="20.5" y="10.45" width=".7" height=".7"/><rect class="cls-2" x="19.8" y="10.45" width=".7" height=".7"/><rect class="cls-3" x="19.8" y="9.05" width=".7" height=".7" transform="translate(40.3 18.8) rotate(180)"/><rect class="cls-3" x="19.1" y="7.65" width=".7" height=".7"/><rect class="cls-3" x="21.2" y="9.05" width=".7" height=".7" transform="translate(43.1 18.8) rotate(180)"/><rect class="cls-3" x="18.4" y="9.05" width=".7" height=".7" transform="translate(37.5 18.8) rotate(180)"/><rect class="cls-2" x="19.1" y="10.45" width=".7" height=".7"/><rect class="cls-3" x="26.8" y="7.65" width=".7" height=".7"/><rect class="cls-3" x="27.5" y="6.95" width=".7" height=".7"/><rect class="cls-3" x="28.2" y="6.25" width=".7" height=".7"/><rect class="cls-3" x="28.9" y="5.55" width=".7" height=".7"/><rect class="cls-3" x="28.2" y="6.95" width=".7" height=".7"/><rect class="cls-3" x="27.5" y="7.65" width=".7" height=".7"/><rect class="cls-2" x="24.7" y="6.95" width=".7" height=".7"/><rect class="cls-2" x="24" y="5.55" width=".7" height="1.4"/><rect class="cls-2" x="23.3" y="4.85" width=".7" height=".7"/><rect class="cls-2" x="22.6" y="4.15" width=".7" height=".7"/><rect class="cls-2" x="21.9" y="4.85" width=".7" height=".7"/><rect class="cls-3" x="26.8" y="6.95" width=".7" height=".7"/><rect class="cls-3" x="27.5" y="6.25" width=".7" height=".7"/><polygon class="cls-1" points="21.9 6.95 21.9 6.25 22.6 6.25 23.3 6.25 23.3 6.95 23.3 7.65 22.6 7.65 22.6 8.35 21.9 8.35 21.9 7.65 21.2 7.65 21.2 6.95 21.9 6.95"/><rect x="21.2" y="7.65" width=".7" height=".7"/></g><g><rect class="cls-3" x="9.4" y="11.15" width="4.2" height=".7"/><rect class="cls-3" x="2.4" y="11.15" width="4.2" height=".7"/><rect class="cls-3" x="8.7" y="10.45" width=".7" height=".7"/><rect class="cls-3" x="6.6" y="10.45" width=".7" height=".7"/><rect class="cls-2" x="7.3" y="9.75" width="1.4" height=".7"/><rect class="cls-2" x="1.7" y="10.45" width=".7" height=".7"/><rect class="cls-2" x="1" y="8.35" width=".7" height="2.1"/><rect class="cls-2" x="1.7" y="7.65" width=".7" height=".7"/><rect class="cls-2" x="2.4" y="6.95" width="2.1" height=".7"/><rect class="cls-2" x="4.5" y="6.25" width=".7" height=".7"/><rect class="cls-2" x="5.2" y="5.55" width=".7" height=".7"/><rect class="cls-2" x="13.6" y="9.75" width=".7" height="1.4"/><rect class="cls-2" x="14.3" y="8.35" width=".7" height="1.4"/><rect class="cls-2" x="12.9" y="7.65" width="1.4" height=".7"/><rect class="cls-3" x="12.9" y="6.25" width=".7" height=".7"/><polygon class="cls-3" points="12.9 4.85 12.9 5.55 13.6 5.55 13.6 6.25 14.3 6.25 14.3 4.85 12.9 4.85"/><rect class="cls-3" x="12.2" y="5.55" width=".7" height=".7"/><polygon class="cls-3" points="9.4 7.65 9.4 8.35 10.1 8.35 10.1 9.05 11.5 9.05 11.5 8.35 10.8 8.35 10.8 7.65 9.4 7.65"/><rect class="cls-2" x="5.2" y="6.25" width=".7" height="1.4"/><polygon class="cls-2" points="2.4 8.35 2.4 7.65 3.1 7.65 3.8 7.65 4.5 7.65 4.5 6.95 5.2 6.95 5.2 8.35 5.9 8.35 5.9 5.55 6.6 5.55 6.6 4.85 7.3 4.85 7.3 5.55 8 5.55 8 6.95 8.7 6.95 8.7 7.65 9.4 7.65 9.4 8.35 10.1 8.35 10.1 9.05 11.5 9.05 11.5 8.35 12.2 8.35 12.2 7.65 12.9 7.65 12.9 8.35 14.3 8.35 14.3 9.75 13.6 9.75 13.6 10.45 8.7 10.45 8.7 9.75 8 9.75 7.3 9.75 7.3 10.45 6.6 10.45 6.6 11.15 5.9 11.15 5.2 11.15 4.5 11.15 3.8 11.15 3.1 11.15 2.4 11.15 2.4 10.45 1.7 10.45 1.7 8.35 2.4 8.35"/><rect class="cls-2" x="8.7" y="9.75" width=".7" height=".7"/><rect class="cls-2" x="6.6" y="9.75" width=".7" height=".7"/><rect class="cls-2" x="9.4" y="10.45" width="4.2" height=".7"/><rect class="cls-2" x="2.4" y="10.45" width=".7" height=".7"/><rect class="cls-2" x="5.2" y="10.45" width=".7" height=".7"/><rect class="cls-2" x="5.9" y="10.45" width=".7" height=".7"/><rect class="cls-2" x="4.5" y="10.45" width=".7" height=".7"/><rect class="cls-2" x="3.8" y="10.45" width=".7" height=".7"/><rect class="cls-3" x="3.8" y="9.05" width=".7" height=".7" transform="translate(8.3 18.8) rotate(180)"/><rect class="cls-3" x="3.1" y="7.65" width=".7" height=".7"/><rect class="cls-3" x="5.2" y="9.05" width=".7" height=".7" transform="translate(11.1 18.8) rotate(180)"/><rect class="cls-3" x="2.4" y="9.05" width=".7" height=".7" transform="translate(5.5 18.8) rotate(180)"/><rect class="cls-2" x="3.1" y="10.45" width=".7" height=".7"/><rect class="cls-3" x="10.8" y="7.65" width=".7" height=".7"/><rect class="cls-3" x="11.5" y="6.95" width=".7" height=".7"/><rect class="cls-3" x="12.2" y="6.25" width=".7" height=".7"/><rect class="cls-3" x="12.9" y="5.55" width=".7" height=".7"/><rect class="cls-3" x="12.2" y="6.95" width=".7" height=".7"/><rect class="cls-3" x="11.5" y="7.65" width=".7" height=".7"/><rect class="cls-2" x="8.7" y="6.95" width=".7" height=".7"/><rect class="cls-2" x="8" y="5.55" width=".7" height="1.4"/><rect class="cls-2" x="7.3" y="4.85" width=".7" height=".7"/><rect class="cls-2" x="6.6" y="4.15" width=".7" height=".7"/><rect class="cls-2" x="5.9" y="4.85" width=".7" height=".7"/><rect class="cls-3" x="10.8" y="6.95" width=".7" height=".7"/><rect class="cls-3" x="11.5" y="6.25" width=".7" height=".7"/><polygon class="cls-1" points="5.9 6.95 5.9 6.25 6.6 6.25 7.3 6.25 7.3 6.95 7.3 7.65 6.6 7.65 6.6 8.35 5.9 8.35 5.9 7.65 5.2 7.65 5.2 6.95 5.9 6.95"/><rect x="5.2" y="7.65" width=".7" height=".7"/></g></svg>