<?xml version="1.0" encoding="UTF-8"?><svg id="Calque_2" xmlns="http://www.w3.org/2000/svg" viewBox="0 0 32 16"><defs><style>.cls-1{fill:#fff;}.cls-2{fill:#cb93e2;}.cls-3{fill:#9553b7;}</style></defs><g><rect class="cls-3" x="2.4" y="11.15" width="4.2" height=".7"/><rect class="cls-3" x="9.4" y="11.15" width="4.2" height=".7"/><rect class="cls-3" x="6.6" y="10.45" width=".7" height=".7"/><rect class="cls-3" x="8.7" y="10.45" width=".7" height=".7"/><rect class="cls-2" x="7.3" y="9.75" width="1.4" height=".7"/><rect class="cls-2" x="13.6" y="10.45" width=".7" height=".7"/><rect class="cls-2" x="14.3" y="8.35" width=".7" height="2.1"/><rect class="cls-2" x="13.6" y="7.65" width=".7" height=".7"/><rect class="cls-2" x="11.5" y="6.95" width="2.1" height=".7"/><rect class="cls-2" x="10.8" y="6.25" width=".7" height=".7"/><rect class="cls-2" x="10.1" y="5.55" width=".7" height=".7"/><rect class="cls-2" x="1.7" y="9.75" width=".7" height="1.4"/><rect class="cls-2" x="1" y="8.35" width=".7" height="1.4"/><rect class="cls-2" x="1.7" y="7.65" width="1.4" height=".7"/><rect class="cls-3" x="2.4" y="6.25" width=".7" height=".7"/><polygon class="cls-3" points="3.1 4.85 3.1 5.55 2.4 5.55 2.4 6.25 1.7 6.25 1.7 4.85 3.1 4.85"/><rect class="cls-3" x="3.1" y="5.55" width=".7" height=".7"/><polygon class="cls-3" points="6.6 7.65 6.6 8.35 5.9 8.35 5.9 9.05 4.5 9.05 4.5 8.35 5.2 8.35 5.2 7.65 6.6 7.65"/><rect class="cls-2" x="10.1" y="6.25" width=".7" height="1.4"/><polygon class="cls-2" points="13.6 8.35 13.6 7.65 12.9 7.65 12.2 7.65 11.5 7.65 11.5 6.95 10.8 6.95 10.8 8.35 10.1 8.35 10.1 5.55 9.4 5.55 9.4 4.85 8.7 4.85 8.7 5.55 8 5.55 8 6.95 7.3 6.95 7.3 7.65 6.6 7.65 6.6 8.35 5.9 8.35 5.9 9.05 4.5 9.05 4.5 8.35 3.8 8.35 3.8 7.65 3.1 7.65 3.1 8.35 1.7 8.35 1.7 9.75 2.4 9.75 2.4 10.45 7.3 10.45 7.3 9.75 8 9.75 8.7 9.75 8.7 10.45 9.4 10.45 9.4 11.15 10.1 11.15 10.8 11.15 11.5 11.15 12.2 11.15 12.9 11.15 13.6 11.15 13.6 10.45 14.3 10.45 14.3 8.35 13.6 8.35"/><rect class="cls-2" x="6.6" y="9.75" width=".7" height=".7"/><rect class="cls-2" x="8.7" y="9.75" width=".7" height=".7"/><rect class="cls-2" x="2.4" y="10.45" width="4.2" height=".7"/><rect class="cls-2" x="12.9" y="10.45" width=".7" height=".7"/><rect class="cls-2" x="10.1" y="10.45" width=".7" height=".7"/><rect class="cls-2" x="9.4" y="10.45" width=".7" height=".7"/><rect class="cls-2" x="10.8" y="10.45" width=".7" height=".7"/><rect class="cls-2" x="11.5" y="10.45" width=".7" height=".7"/><rect class="cls-3" x="11.5" y="9.05" width=".7" height=".7"/><rect class="cls-3" x="12.2" y="7.65" width=".7" height=".7"/><rect class="cls-3" x="10.1" y="9.05" width=".7" height=".7"/><rect class="cls-3" x="12.9" y="9.05" width=".7" height=".7"/><rect class="cls-2" x="12.2" y="10.45" width=".7" height=".7"/><rect class="cls-3" x="4.5" y="7.65" width=".7" height=".7"/><rect class="cls-3" x="3.8" y="6.95" width=".7" height=".7"/><rect class="cls-3" x="3.1" y="6.25" width=".7" height=".7"/><rect class="cls-3" x="2.4" y="5.55" width=".7" height=".7"/><rect class="cls-3" x="3.1" y="6.95" width=".7" height=".7"/><rect class="cls-3" x="3.8" y="7.65" width=".7" height=".7"/><rect class="cls-2" x="6.6" y="6.95" width=".7" height=".7"/><rect class="cls-2" x="7.3" y="5.55" width=".7" height="1.4"/><rect class="cls-2" x="8" y="4.85" width=".7" height=".7"/><rect class="cls-2" x="8.7" y="4.15" width=".7" height=".7"/><rect class="cls-2" x="9.4" y="4.85" width=".7" height=".7"/><rect class="cls-3" x="4.5" y="6.95" width=".7" height=".7"/><rect class="cls-3" x="3.8" y="6.25" width=".7" height=".7"/><polygon class="cls-1" points="10.1 6.95 10.1 6.25 9.4 6.25 8.7 6.25 8.7 6.95 8.7 7.65 9.4 7.65 9.4 8.35 10.1 8.35 10.1 7.65 10.8 7.65 10.8 6.95 10.1 6.95"/><rect x="9.4" y="6.25" width=".7" height=".7"/></g><g><rect class="cls-3" x="18.4" y="11.15" width="4.2" height=".7"/><rect class="cls-3" x="25.4" y="11.15" width="4.2" height=".7"/><rect class="cls-3" x="22.6" y="10.45" width=".7" height=".7"/><rect class="cls-3" x="24.7" y="10.45" width=".7" height=".7"/><rect class="cls-2" x="23.3" y="9.75" width="1.4" height=".7"/><rect class="cls-2" x="29.6" y="10.45" width=".7" height=".7"/><rect class="cls-2" x="30.3" y="8.35" width=".7" height="2.1"/><rect class="cls-2" x="29.6" y="7.65" width=".7" height=".7"/><rect class="cls-2" x="27.5" y="6.95" width="2.1" height=".7"/><rect class="cls-2" x="26.8" y="6.25" width=".7" height=".7"/><rect class="cls-2" x="26.1" y="5.55" width=".7" height=".7"/><rect class="cls-2" x="17.7" y="9.75" width=".7" height="1.4"/><rect class="cls-2" x="17" y="8.35" width=".7" height="1.4"/><rect class="cls-2" x="17.7" y="7.65" width="1.4" height=".7"/><rect class="cls-3" x="18.4" y="6.25" width=".7" height=".7"/><polygon class="cls-3" points="19.1 4.85 19.1 5.55 18.4 5.55 18.4 6.25 17.7 6.25 17.7 4.85 19.1 4.85"/><rect class="cls-3" x="19.1" y="5.55" width=".7" height=".7"/><polygon class="cls-3" points="22.6 7.65 22.6 8.35 21.9 8.35 21.9 9.05 20.5 9.05 20.5 8.35 21.2 8.35 21.2 7.65 22.6 7.65"/><rect class="cls-2" x="26.1" y="6.25" width=".7" height="1.4"/><polygon class="cls-2" points="29.6 8.35 29.6 7.65 28.9 7.65 28.2 7.65 27.5 7.65 27.5 6.95 26.8 6.95 26.8 8.35 26.1 8.35 26.1 5.55 25.4 5.55 25.4 4.85 24.7 4.85 24.7 5.55 24 5.55 24 6.95 23.3 6.95 23.3 7.65 22.6 7.65 22.6 8.35 21.9 8.35 21.9 9.05 20.5 9.05 20.5 8.35 19.8 8.35 19.8 7.65 19.1 7.65 19.1 8.35 17.7 8.35 17.7 9.75 18.4 9.75 18.4 10.45 23.3 10.45 23.3 9.75 24 9.75 24.7 9.75 24.7 10.45 25.4 10.45 25.4 11.15 26.1 11.15 26.8 11.15 27.5 11.15 28.2 11.15 28.9 11.15 29.6 11.15 29.6 10.45 30.3 10.45 30.3 8.35 29.6 8.35"/><rect class="cls-2" x="22.6" y="9.75" width=".7" height=".7"/><rect class="cls-2" x="24.7" y="9.75" width=".7" height=".7"/><rect class="cls-2" x="18.4" y="10.45" width="4.2" height=".7"/><rect class="cls-2" x="28.9" y="10.45" width=".7" height=".7"/><rect class="cls-2" x="26.1" y="10.45" width=".7" height=".7"/><rect class="cls-2" x="25.4" y="10.45" width=".7" height=".7"/><rect class="cls-2" x="26.8" y="10.45" width=".7" height=".7"/><rect class="cls-2" x="27.5" y="10.45" width=".7" height=".7"/><rect class="cls-3" x="27.5" y="9.05" width=".7" height=".7"/><rect class="cls-3" x="28.2" y="7.65" width=".7" height=".7"/><rect class="cls-3" x="26.1" y="9.05" width=".7" height=".7"/><rect class="cls-3" x="28.9" y="9.05" width=".7" height=".7"/><rect class="cls-2" x="28.2" y="10.45" width=".7" height=".7"/><rect class="cls-3" x="20.5" y="7.65" width=".7" height=".7"/><rect class="cls-3" x="19.8" y="6.95" width=".7" height=".7"/><rect class="cls-3" x="19.1" y="6.25" width=".7" height=".7"/><rect class="cls-3" x="18.4" y="5.55" width=".7" height=".7"/><rect class="cls-3" x="19.1" y="6.95" width=".7" height=".7"/><rect class="cls-3" x="19.8" y="7.65" width=".7" height=".7"/><rect class="cls-2" x="22.6" y="6.95" width=".7" height=".7"/><rect class="cls-2" x="23.3" y="5.55" width=".7" height="1.4"/><rect class="cls-2" x="24" y="4.85" width=".7" height=".7"/><rect class="cls-2" x="24.7" y="4.15" width=".7" height=".7"/><rect class="cls-2" x="25.4" y="4.85" width=".7" height=".7"/><rect class="cls-3" x="20.5" y="6.95" width=".7" height=".7"/><rect class="cls-3" x="19.8" y="6.25" width=".7" height=".7"/><polygon class="cls-1" points="26.1 6.95 26.1 6.25 25.4 6.25 24.7 6.25 24.7 6.95 24.7 7.65 25.4 7.65 25.4 8.35 26.1 8.35 26.1 7.65 26.8 7.65 26.8 6.95 26.1 6.95"/><rect x="25.4" y="6.25" width=".7" height=".7"/></g></svg>